<svg viewBox="0 0 330 200" xmlns="http://www.w3.org/2000/svg"><g><g><g><g><g><line x1="53.1875" y1="176" x2="48.1875" y2="176" style="visibility: inherit;" fill="rgb(0, 0, 0)" stroke="rgb(204, 204, 204)" stroke-width="1px"></line><line x1="53.1875" y1="160" x2="48.1875" y2="160" style="visibility: inherit;" fill="rgb(0, 0, 0)" stroke="rgb(204, 204, 204)" stroke-width="1px"></line><line x1="53.1875" y1="144" x2="48.1875" y2="144" style="visibility: inherit;" fill="rgb(0, 0, 0)" stroke="rgb(204, 204, 204)" stroke-width="1px"></line><line x1="53.1875" y1="128" x2="48.1875" y2="128" style="visibility: inherit;" fill="rgb(0, 0, 0)" stroke="rgb(204, 204, 204)" stroke-width="1px"></line><line x1="53.1875" y1="112" x2="48.1875" y2="112" style="visibility: inherit;" fill="rgb(0, 0, 0)" stroke="rgb(204, 204, 204)" stroke-width="1px"></line><line x1="53.1875" y1="96" x2="48.1875" y2="96" style="visibility: inherit;" fill="rgb(0, 0, 0)" stroke="rgb(204, 204, 204)" stroke-width="1px"></line><line x1="53.1875" y1="80" x2="48.1875" y2="80" style="visibility: inherit;" fill="rgb(0, 0, 0)" stroke="rgb(204, 204, 204)" stroke-width="1px"></line><line x1="53.1875" y1="64" x2="48.1875" y2="64" style="visibility: inherit;" fill="rgb(0, 0, 0)" stroke="rgb(204, 204, 204)" stroke-width="1px"></line><line x1="53.1875" y1="48" x2="48.1875" y2="48" style="visibility: inherit;" fill="rgb(0, 0, 0)" stroke="rgb(204, 204, 204)" stroke-width="1px"></line><line x1="53.1875" y1="31.999999999999993" x2="48.1875" y2="31.999999999999993" style="visibility: inherit;" fill="rgb(0, 0, 0)" stroke="rgb(204, 204, 204)" stroke-width="1px"></line><line x1="53.1875" y1="16.000000000000007" x2="48.1875" y2="16.000000000000007" style="visibility: inherit;" fill="rgb(0, 0, 0)" stroke="rgb(204, 204, 204)" stroke-width="1px"></line><line x1="53.1875" y1="0" x2="48.1875" y2="0" style="visibility: inherit;" fill="rgb(0, 0, 0)" stroke="rgb(204, 204, 204)" stroke-width="1px"></line></g><g transform="translate(43.1875, 0)"><text x="0" y="176" dx="0em" dy="0.3em" style="text-anchor: end; visibility: hidden; font-family: Roboto, sans-serif; font-size: 12px; font-weight: 200;" fill="rgb(33, 33, 33)" stroke="none" stroke-width="1px">-700</text><text x="0" y="160" dx="0em" dy="0.3em" style="text-anchor: end; visibility: inherit; font-family: Roboto, sans-serif; font-size: 12px; font-weight: 200;" fill="rgb(33, 33, 33)" stroke="none" stroke-width="1px">-600</text><text x="0" y="144" dx="0em" dy="0.3em" style="text-anchor: end; visibility: hidden; font-family: Roboto, sans-serif; font-size: 12px; font-weight: 200;" fill="rgb(33, 33, 33)" stroke="none" stroke-width="1px">-500</text><text x="0" y="128" dx="0em" dy="0.3em" style="text-anchor: end; visibility: inherit; font-family: Roboto, sans-serif; font-size: 12px; font-weight: 200;" fill="rgb(33, 33, 33)" stroke="none" stroke-width="1px">-400</text><text x="0" y="112" dx="0em" dy="0.3em" style="text-anchor: end; visibility: hidden; font-family: Roboto, sans-serif; font-size: 12px; font-weight: 200;" fill="rgb(33, 33, 33)" stroke="none" stroke-width="1px">-300</text><text x="0" y="96" dx="0em" dy="0.3em" style="text-anchor: end; visibility: inherit; font-family: Roboto, sans-serif; font-size: 12px; font-weight: 200;" fill="rgb(33, 33, 33)" stroke="none" stroke-width="1px">-200</text><text x="0" y="80" dx="0em" dy="0.3em" style="text-anchor: end; visibility: hidden; font-family: Roboto, sans-serif; font-size: 12px; font-weight: 200;" fill="rgb(33, 33, 33)" stroke="none" stroke-width="1px">-100</text><text x="0" y="64" dx="0em" dy="0.3em" style="text-anchor: end; visibility: inherit; font-family: Roboto, sans-serif; font-size: 12px; font-weight: 200;" fill="rgb(33, 33, 33)" stroke="none" stroke-width="1px">0</text><text x="0" y="48" dx="0em" dy="0.3em" style="text-anchor: end; visibility: hidden; font-family: Roboto, sans-serif; font-size: 12px; font-weight: 200;" fill="rgb(33, 33, 33)" stroke="none" stroke-width="1px">100</text><text x="0" y="31.999999999999993" dx="0em" dy="0.3em" style="text-anchor: end; visibility: inherit; font-family: Roboto, sans-serif; font-size: 12px; font-weight: 200;" fill="rgb(33, 33, 33)" stroke="none" stroke-width="1px">200</text><text x="0" y="16.000000000000007" dx="0em" dy="0.3em" style="text-anchor: end; visibility: hidden; font-family: Roboto, sans-serif; font-size: 12px; font-weight: 200;" fill="rgb(33, 33, 33)" stroke="none" stroke-width="1px">300</text><text x="0" y="0" dx="0em" dy="0.3em" style="text-anchor: end; visibility: hidden; font-family: Roboto, sans-serif; font-size: 12px; font-weight: 200;" fill="rgb(33, 33, 33)" stroke="none" stroke-width="1px">400</text></g><line x1="53.1875" y1="0" x2="53.1875" y2="176" fill="rgb(0, 0, 0)" stroke="rgb(204, 204, 204)" stroke-width="1px"></line></g></g><g transform="translate(53, 0)" clip-path="url(#clip_0)"><clipPath id="clip_0"><rect width="276" height="176"></rect></clipPath><g><g><g><line x1="0" y1="0" x2="0" y2="176" fill="rgb(0, 0, 0)" stroke="rgb(66, 66, 66)" stroke-width="1px" opacity="0.25"></line><line x1="30.756944444444443" y1="0" x2="30.756944444444443" y2="176" fill="rgb(0, 0, 0)" stroke="rgb(66, 66, 66)" stroke-width="1px" opacity="0.25"></line><line x1="61.513888888888886" y1="0" x2="61.513888888888886" y2="176" fill="rgb(0, 0, 0)" stroke="rgb(66, 66, 66)" stroke-width="1px" opacity="0.25"></line><line x1="92.27083333333333" y1="0" x2="92.27083333333333" y2="176" fill="rgb(0, 0, 0)" stroke="rgb(66, 66, 66)" stroke-width="1px" opacity="0.25"></line><line x1="123.02777777777777" y1="0" x2="123.02777777777777" y2="176" fill="rgb(0, 0, 0)" stroke="rgb(66, 66, 66)" stroke-width="1px" opacity="0.25"></line><line x1="153.78472222222223" y1="0" x2="153.78472222222223" y2="176" fill="rgb(0, 0, 0)" stroke="rgb(66, 66, 66)" stroke-width="1px" opacity="0.25"></line><line x1="184.54166666666666" y1="0" x2="184.54166666666666" y2="176" fill="rgb(0, 0, 0)" stroke="rgb(66, 66, 66)" stroke-width="1px" opacity="0.25"></line><line x1="215.29861111111111" y1="0" x2="215.29861111111111" y2="176" fill="rgb(0, 0, 0)" stroke="rgb(66, 66, 66)" stroke-width="1px" opacity="0.25"></line><line x1="246.05555555555554" y1="0" x2="246.05555555555554" y2="176" fill="rgb(0, 0, 0)" stroke="rgb(66, 66, 66)" stroke-width="1px" opacity="0.25"></line><line x1="276.8125" y1="0" x2="276.8125" y2="176" fill="rgb(0, 0, 0)" stroke="rgb(66, 66, 66)" stroke-width="1px" opacity="0.25"></line></g><g><line x1="0" y1="176" x2="276.8125" y2="176" fill="rgb(0, 0, 0)" stroke="rgb(66, 66, 66)" stroke-width="1px" opacity="0.25"></line><line x1="0" y1="160" x2="276.8125" y2="160" fill="rgb(0, 0, 0)" stroke="rgb(66, 66, 66)" stroke-width="1px" opacity="0.25"></line><line x1="0" y1="144" x2="276.8125" y2="144" fill="rgb(0, 0, 0)" stroke="rgb(66, 66, 66)" stroke-width="1px" opacity="0.25"></line><line x1="0" y1="128" x2="276.8125" y2="128" fill="rgb(0, 0, 0)" stroke="rgb(66, 66, 66)" stroke-width="1px" opacity="0.25"></line><line x1="0" y1="112" x2="276.8125" y2="112" fill="rgb(0, 0, 0)" stroke="rgb(66, 66, 66)" stroke-width="1px" opacity="0.25"></line><line x1="0" y1="96" x2="276.8125" y2="96" fill="rgb(0, 0, 0)" stroke="rgb(66, 66, 66)" stroke-width="1px" opacity="0.25"></line><line x1="0" y1="80" x2="276.8125" y2="80" fill="rgb(0, 0, 0)" stroke="rgb(66, 66, 66)" stroke-width="1px" opacity="0.25"></line><line x1="0" y1="64" x2="276.8125" y2="64" fill="rgb(0, 0, 0)" stroke="rgb(66, 66, 66)" stroke-width="1px" opacity="0.25"></line><line x1="0" y1="48" x2="276.8125" y2="48" fill="rgb(0, 0, 0)" stroke="rgb(66, 66, 66)" stroke-width="1px" opacity="0.25"></line><line x1="0" y1="31.999999999999993" x2="276.8125" y2="31.999999999999993" fill="rgb(0, 0, 0)" stroke="rgb(66, 66, 66)" stroke-width="1px" opacity="0.25"></line><line x1="0" y1="16.000000000000007" x2="276.8125" y2="16.000000000000007" fill="rgb(0, 0, 0)" stroke="rgb(66, 66, 66)" stroke-width="1px" opacity="0.25"></line><line x1="0" y1="0" x2="276.8125" y2="0" fill="rgb(0, 0, 0)" stroke="rgb(66, 66, 66)" stroke-width="1px" opacity="0.25"></line></g></g></g><g><g><line x1="0" y1="64" x2="276.8125" y2="64" fill="rgb(0, 0, 0)" stroke="rgb(153, 153, 153)" stroke-width="1.5px"></line></g></g><g><g><line x1="30.756944444444443" y1="0" x2="30.756944444444443" y2="176" fill="rgb(0, 0, 0)" stroke="rgb(153, 153, 153)" stroke-width="1.5px"></line></g></g><g><g><g><g><g><path stroke="rgb(0, 153, 136)" stroke-width="2px" d="M32.29479166666667,112.80785644531251L33.83263888888889,107.57746041183836L35.370486111111106,111.42919317339815L36.90833333333333,112.57867972908508L38.44618055555556,116.08463602537529L39.984027777777776,84.23371848350612L41.521875,77.7854221344658L43.05972222222222,74.258741201845L44.597569444444446,72.76621886406399L46.135416666666664,71.6318626924806L47.67326388888889,58.666295369461395L49.211111111111116,64.94583698550456L50.74895833333333,77.44439654782171L52.28680555555555,75.72947991225628L53.82465277777778,59.519468893256146L55.362500000000004,50.537187661554945L56.90034722222222,63.64899517858075L58.43819444444444,56.990254352273965L59.97604166666667,55.118445834193224L61.513888888888886,56.968028355305854L63.05173611111111,46.0781309079822L64.58958333333334,47.49013440167131L66.12743055555556,47.653554468435956L67.66527777777777,63.03474414761968L69.203125,49.0849368574919L70.74097222222221,39.0031961792351L72.27881944444445,44.441547144095836L73.81666666666666,45.1281412842736L75.35451388888889,47.814778712094274L76.89236111111111,47.509147024125696L78.43020833333333,44.53729714703593L79.96805555555555,37.78478442352748L81.50590277777778,35.39927334565662L83.04375,30.899030102040808L84.58159722222223,32.600057799874804L86.11944444444444,33.55284578985588L87.65729166666667,38.79514066210464L89.19513888888889,36.67152456499825L90.73298611111112,38.47172802448659L92.27083333333333,37.818916014535674L93.80868055555555,38.922186068049825L95.34652777777778,33.2599004384252L96.88437499999999,32.86946333379028L98.42222222222223,29.438570288904838L99.96006944444444,34.139924343579246L101.49791666666665,30.895519824846332L103.0357638888889,28.129401215066732L104.5736111111111,25.904335417515053L106.11145833333335,24.41707820008773L107.64930555555556,26.065245187121498L109.18715277777777,24.390585427179314L110.72500000000001,22.747190280330926L112.26284722222222,22.596616868275625L113.80069444444445,22.023326144583134L115.33854166666667,21.741578958132173L116.87638888888888,21.797506528626855L118.41423611111111,21.37793505123909L119.95208333333333,20.21624954181982L121.48993055555556,19.338913754545654L123.02777777777777,19.67333676181933L124.565625,20.51640988209244L126.10347222222222,21.747053319696743L127.64131944444445,21.179377057391168L129.17916666666667,21.54903302319517L130.71701388888889,21.516130582211957L132.25486111111113,20.67956635280555L133.79270833333334,20.322238237521844L135.33055555555555,19.502593158113193L136.8684027777778,18.558994047563402L138.40625,18.90563306246291L139.9440972222222,18.476365222662338L141.48194444444442,18.442789109316585L143.0197916666667,18.658051586148282L144.5576388888889,19.201388126829265L146.09548611111111,19.5086202040418L147.63333333333333,18.69773562867853L149.17118055555554,18.859464201846965L150.70902777777778,19.169316467078676L152.24687500000002,19.781086095564383L153.78472222222223,18.997798020281778L155.32256944444444,18.926429136816836L156.86041666666665,20.28723485259718L158.3982638888889,19.455191586570294L159.9361111111111,22.34889353133151L161.47395833333334,21.903764226492267L163.01180555555555,22.7780124898903L164.54965277777777,23.67972587758127L166.0875,21.94328321160963L167.62534722222222,22.3586566111704L169.16319444444446,35.841859194305634L170.70104166666667,48.8660300816984L172.23888888888888,62.40433985162005L173.77673611111112,72.86195952481995L175.31458333333333,63.93607284560087L176.85243055555554,59.11674711435316L178.39027777777778,46.803406404595336L179.928125,39.30238572498182L181.46597222222223,32.08701418375029L183.00381944444445,32.508974644761444L184.54166666666666,28.23865646909219L186.0795138888889,27.065016502698683L187.6173611111111,26.327297769501026L189.15520833333335,30.748714413604674L190.69305555555556,32.407361066411106L192.23090277777777,31.532457027253262L193.76874999999998,27.7876624504392L195.30659722222222,24.126699947945134L196.84444444444446,22.810801505644132L198.38229166666667,25.268684803199108L199.92013888888889,23.08546419556231L201.4579861111111,26.993049966761603L202.9958333333333,24.334612155788825L204.53368055555558,22.34282643900259L206.0715277777778,21.921958468572228L207.609375,22.58070019244304L209.1472222222222,21.28017314650923L210.68506944444442,20.7963099482042L212.2229166666667,19.67053438675572L213.7607638888889,20.010205865712337L215.29861111111111,19.615633458946203L216.83645833333333,27.264450547693084L218.37430555555554,24.694412838362258L219.91215277777778,23.05610609144194L221.45000000000002,21.691135168448987L222.98784722222223,21.84432384882271L224.52569444444444,20.982088204533863L226.06354166666665,25.93564227735299L227.6013888888889,36.55182366604528L229.1392361111111,30.592554566082427L230.67708333333334,27.123891824657377L232.21493055555555,24.98499222023227L233.75277777777777,23.987041959496082L235.290625,23.480936688968868L236.82847222222222,26.087463107330834L238.36631944444446,23.311107356563824L239.90416666666667,21.992962502985883L241.44201388888888,23.80597734497526L242.97986111111112,22.74751243988587L244.51770833333333,26.650621875228317L246.05555555555554,24.494674736090936L247.59340277777778,22.631086383590585L249.13125,21.295545831022885L250.66909722222223,20.40300500157239L252.20694444444445,19.59131162668163L253.74479166666666,19.228761725630065L255.2826388888889,24.31208602415466L256.8204861111111,23.055229073856932L258.35833333333335,22.37066374231936L259.89618055555553,22.20471154265112L261.43402777777777,20.614657992599057" style="fill: none;" fill="none"></path></g><g><path stroke="rgb(238, 51, 119)" stroke-width="2px" d="M32.29479166666667,85.72974853515625L33.83263888888889,87.42620318107058L35.370486111111106,86.956229140512L36.90833333333333,80.88074100799996L38.44618055555556,88.84125176928198L39.984027777777776,90.79298961963399L41.521875,81.044797558657L43.05972222222222,88.71511992603848L44.597569444444446,80.91109806807361L46.135416666666664,75.40615774107415L47.67326388888889,76.46964086193432L49.211111111111116,80.2331894554033L50.74895833333333,76.05618779913588L52.28680555555555,67.14146669481113L53.82465277777778,70.73360708721717L55.362500000000004,72.73343740599161L56.90034722222222,80.21219946289881L58.43819444444444,82.54851293649185L59.97604166666667,80.88162120529539L61.513888888888886,74.49680916120747L63.05173611111111,67.2318364129324L64.58958333333334,55.23330367347009L66.12743055555556,48.01717503325614L67.66527777777777,48.836736777913664L69.203125,45.56414648405733L70.74097222222221,43.99959700918423L72.27881944444445,36.71777166468455L73.81666666666666,37.20357732067133L75.35451388888889,31.547881262770233L76.89236111111111,29.481240821264535L78.43020833333333,34.63005195379174L79.96805555555555,39.37212150859807L81.50590277777778,34.29230100998113L83.04375,34.742473214874856L84.58159722222223,35.454262665992005L86.11944444444444,30.642458100026666L87.65729166666667,27.931622802396937L89.19513888888889,25.639804891944618L90.73298611111112,28.731846022217304L92.27083333333333,25.743643827115022L93.80868055555555,27.660741116753737L95.34652777777778,24.362316907683862L96.88437499999999,29.604102237948545L98.42222222222223,26.531486665024666L99.96006944444444,24.142515170049656L101.49791666666665,24.365914552301113L103.0357638888889,33.16792226408827L104.5736111111111,36.46374094648464L106.11145833333335,30.905578896716843L107.64930555555556,27.788082136311413L109.18715277777777,26.68677052980998L110.72500000000001,27.57325202352994L112.26284722222222,25.93033395239749L113.80069444444445,25.93212707226198L115.33854166666667,23.83214931376279L116.87638888888888,31.10768631306998L118.41423611111111,36.6970094610035L119.95208333333333,39.86186666669555L121.48993055555556,40.5412450055325L123.02777777777777,33.79267707310929L124.565625,33.9620090517282L126.10347222222222,29.268108910793355L127.64131944444445,26.342123563014177L129.17916666666667,24.033979065574883L130.71701388888889,27.496370748493387L132.25486111111113,25.425142471104188L133.79270833333334,24.127939021828492L135.33055555555555,22.93018181954156L136.8684027777778,23.976683217889466L138.40625,22.996226317733417L139.9440972222222,22.352132093328976L141.48194444444442,22.233218235467028L143.0197916666667,21.485419724546162L144.5576388888889,20.306516039269813L146.09548611111111,29.38635844635911L147.63333333333333,38.529334687477444L149.17118055555554,32.30669783185952L150.70902777777778,28.201856763321956L152.24687500000002,24.740916612139763L153.78472222222223,23.35004490867041L155.32256944444444,22.533465530188998L156.86041666666665,21.294423523787003L158.3982638888889,21.345766514234867L159.9361111111111,20.601786308503335L161.47395833333334,19.839378758689243L163.01180555555555,19.14002002583917L164.54965277777777,19.40206271517642L166.0875,19.695966339911074L167.62534722222222,20.96817566948273L169.16319444444446,25.035344635829894L170.70104166666667,28.22175880230894L172.23888888888888,25.507050782339107L173.77673611111112,23.14204105541937L175.31458333333333,21.5549903001793L176.85243055555554,21.44772883328299L178.39027777777778,29.118110348231795L179.928125,25.28272210713678L181.46597222222223,23.73456132630842L183.00381944444445,22.521979664404245L184.54166666666666,20.503329553229666L186.0795138888889,20.504916873832823L187.6173611111111,28.398014695856283L189.15520833333335,26.21527493811542L190.69305555555556,22.863418742788557L192.23090277777777,20.804324817028927L193.76874999999998,19.71803987079344L195.30659722222222,34.20184147908627L196.84444444444446,31.619919114570987L198.38229166666667,27.36952048874169L199.92013888888889,25.31487628405943L201.4579861111111,23.606320339450427L202.9958333333333,21.01554730717318L204.53368055555558,20.019785290420387L206.0715277777778,20.008212355787506L207.609375,19.8462321015267L209.1472222222222,19.043578089413437L210.68506944444442,23.051798479992087L212.2229166666667,21.19749287542967L213.7607638888889,19.94010849353876L215.29861111111111,18.726005251408047L216.83645833333333,19.6878494351962L218.37430555555554,19.577202984514358L219.91215277777778,24.3517303860624L221.45000000000002,23.35490125693391L222.98784722222223,26.596554601690833L224.52569444444444,23.88040809077375L226.06354166666665,22.636379080749947L227.6013888888889,20.834763109451465L229.1392361111111,20.281765223613892L230.67708333333334,18.88038439433103L232.21493055555555,18.466649992677965L233.75277777777777,18.0989201622671L235.290625,18.660199192793474L236.82847222222222,18.250793701307238L238.36631944444446,18.422571609465948L239.90416666666667,18.440192535623606L241.44201388888888,18.946221532376565L242.97986111111112,24.677610459600793L244.51770833333333,21.67158555697676L246.05555555555554,22.651321841944636L247.59340277777778,21.45318538716179L249.13125,20.191390580172722L250.66909722222223,18.64414540737605L252.20694444444445,19.009601182506707L253.74479166666666,18.657189650894505L255.2826388888889,18.026671406338615L256.8204861111111,17.929078106934544L258.35833333333335,18.239233183172516L259.89618055555553,18.17579536315444L261.43402777777777,18.168101632477292" style="fill: none;" fill="none"></path></g><g><path stroke="rgb(51, 187, 238)" stroke-width="2px" d="M32.29479166666667,69.6075848388672L33.83263888888889,92.01239226272801L35.370486111111106,99.29336083391334L36.90833333333333,98.0721805290689L38.44618055555556,93.4094695556306L39.984027777777776,87.20820025050159L41.521875,86.1387401194481L43.05972222222222,86.40332850811882L44.597569444444446,80.39466845492083L46.135416666666664,70.57129148983383L47.67326388888889,78.6059119527829L49.211111111111116,73.14742907705318L50.74895833333333,57.981721482241625L52.28680555555555,47.01734021527961L53.82465277777778,40.398566652936964L55.362500000000004,50.03086844548858L56.90034722222222,42.582465915375586L58.43819444444444,45.31813127600013L59.97604166666667,39.29839927444979L61.513888888888886,53.6412203413081L63.05173611111111,53.38765063651754L64.58958333333334,57.026916926797576L66.12743055555556,50.91314883665899L67.66527777777777,44.44904372320057L69.203125,39.12700867475941L70.74097222222221,36.28006619204841L72.27881944444445,36.33695884778483L73.81666666666666,43.213627879261836L75.35451388888889,37.943091612474845L76.89236111111111,33.435764936510026L78.43020833333333,30.157245948893333L79.96805555555555,26.400369525205548L81.50590277777778,26.969504035184528L83.04375,26.61814328784626L84.58159722222223,26.74986272148952L86.11944444444444,26.560296246496232L87.65729166666667,23.56014616823841L89.19513888888889,22.071096330532228L90.73298611111112,21.75744222293593L92.27083333333333,25.47697202709477L93.80868055555555,26.51073126517929L95.34652777777778,24.659746501541957L96.88437499999999,23.09358955085649L98.42222222222223,31.59903954236034L99.96006944444444,29.157951874605853L101.49791666666665,26.85421222709632L103.0357638888889,24.712580951685794L104.5736111111111,24.983993619686814L106.11145833333335,23.3185609722653L107.64930555555556,33.52562324622892L109.18715277777777,33.927768158034596L110.72500000000001,37.78810367306832L112.26284722222222,36.69610289409031L113.80069444444445,30.518053329385673L115.33854166666667,27.329795117576555L116.87638888888888,25.51418052174587L118.41423611111111,23.8497227869351L119.95208333333333,22.558073478319933L121.48993055555556,23.237397916537823L123.02777777777777,21.439639056084566L124.565625,21.2893595159969L126.10347222222222,20.932805532242853L127.64131944444445,21.323352036422392L129.17916666666667,20.429809091905376L130.71701388888889,19.937088545694934L132.25486111111113,18.8991979948903L133.79270833333334,37.212915036991L135.33055555555555,33.54447046735126L136.8684027777778,28.815238099366745L138.40625,25.969859299647112L139.9440972222222,23.45954912123647L141.48194444444442,22.671630564158118L143.0197916666667,21.434431637551448L144.5576388888889,20.969162357309493L146.09548611111111,64.32694030724187L147.63333333333333,70.5932095407639L149.17118055555554,72.00757730944028L150.70902777777778,66.84034697635776L152.24687500000002,52.024232933737075L153.78472222222223,41.55070781272115L155.32256944444444,43.53055183178926L156.86041666666665,36.065484815337335L158.3982638888889,37.1679231005942L159.9361111111111,32.18040338609928L161.47395833333334,28.196869630146203L163.01180555555555,24.301259594583247L164.54965277777777,25.249808263966187L166.0875,22.851364747135268L167.62534722222222,22.467139492887405L169.16319444444446,22.73035922359533L170.70104166666667,22.110097179506063L172.23888888888888,21.340312726503075L173.77673611111112,21.25788183189756L175.31458333333333,21.25572420822266L176.85243055555554,22.72014760542563L178.39027777777778,21.58090618303351L179.928125,21.358738095623522L181.46597222222223,21.043365515884027L183.00381944444445,22.496737427455304L184.54166666666666,22.67772948484371L186.0795138888889,21.312821870064973L187.6173611111111,20.207883210746157L189.15520833333335,19.64041200980892L190.69305555555556,20.2498363627791L192.23090277777777,20.437424996725063L193.76874999999998,20.088722175924232L195.30659722222222,19.597844388158588L196.84444444444446,18.551763772592576L198.38229166666667,19.076798848932217L199.92013888888889,23.49100234210745L201.4579861111111,22.916005722333708L202.9958333333333,22.08137869697075L204.53368055555558,22.020512343739362L206.0715277777778,22.00485238093033L207.609375,20.32531017498519L209.1472222222222,20.002940429777553L210.68506944444442,20.112812101623028L212.2229166666667,18.956770786978154L213.7607638888889,20.01566840634932L215.29861111111111,20.25346858312925L216.83645833333333,19.654815145675347L218.37430555555554,19.70903101226883L219.91215277777778,20.276404465244667L221.45000000000002,20.09988243345691L222.98784722222223,25.260345956220558L224.52569444444444,23.185807052892706L226.06354166666665,21.87550585516891L227.6013888888889,30.3208242315485L229.1392361111111,25.85461286797559L230.67708333333334,50.22888750352958L232.21493055555555,39.398890996121885L233.75277777777777,36.548375003300166L235.290625,32.083178392842704L236.82847222222222,42.221920828110406L238.36631944444446,35.3844703277402L239.90416666666667,29.971066521178905L241.44201388888888,36.38026672176346L242.97986111111112,30.190233065150057L244.51770833333333,26.38564329946835L246.05555555555554,23.48642159411773L247.59340277777778,22.199243983122102L249.13125,23.940215023064297L250.66909722222223,21.680282151749207L252.20694444444445,21.026792145037973L253.74479166666666,21.134599673028024L255.2826388888889,21.82668285527482L256.8204861111111,21.25887185530719L258.35833333333335,20.599007355516445L259.89618055555553,19.670474739782037L261.43402777777777,20.195120626696045" style="fill: none;" fill="none"></path></g></g></g></g><g opacity="0.2"><g><g><g><path stroke="rgb(0, 153, 136)" stroke-width="2px" d="M32.29479166666667,112.80785644531251L33.83263888888889,104.06263427734375L35.370486111111106,115.7569384765625L36.90833333333333,114.219052734375L38.44618055555556,121.80276855468749L39.984027777777776,27.92077880859374L41.521875,65.79090148925782L43.05972222222222,67.48048919677734L44.597569444444446,69.8355340576172L46.135416666666664,69.37276428222657L47.67326388888889,32.60155517578125L49.211111111111116,77.648876953125L50.74895833333333,102.83403808593751L52.28680555555555,72.236015625L53.82465277777778,26.435903320312494L55.362500000000004,32.181826171875L56.90034722222222,90.46575195312501L58.43819444444444,43.363811035156246L59.97604166666667,51.286516113281245L61.513888888888886,60.7554281616211L63.05173611111111,23.774990234375L64.58958333333334,50.382333984374995L66.12743055555556,47.98831298828126L67.66527777777777,94.544052734375L69.203125,20.5068994140625L70.74097222222221,18.3489208984375L72.27881944444445,55.58317260742188L73.81666666666666,46.534791259765626L75.35451388888889,53.31902832031251L76.89236111111111,46.88298095703125L78.43020833333333,38.44866943359374L79.96805555555555,23.950429687499994L81.50590277777778,30.511899414062505L83.04375,21.679038085937492L84.58159722222223,36.08508544921875L86.11944444444444,35.5048974609375L87.65729166666667,49.53544555664063L89.19513888888889,32.320703124999994L90.73298611111112,42.15994873046875L92.27083333333333,36.48144775390625L93.80868055555555,41.1825439453125L95.34652777777778,21.659121093750002L96.88437499999999,32.069543457031244L98.42222222222223,22.409423828124996L99.96006944444444,43.77196655273438L101.49791666666665,24.248447265624996L103.0357638888889,22.462231445312494L104.5736111111111,21.3456640625L106.11145833333335,21.370014648437508L107.64930555555556,29.4419775390625L109.18715277777777,20.959575195312492L110.72500000000001,19.380234375L112.26284722222222,22.288124999999994L113.80069444444445,20.848779296874994L115.33854166666667,21.164340820312503L116.87638888888888,21.912089843750007L118.41423611111111,20.518325195312503L119.95208333333333,17.836210937500006L121.48993055555556,17.541445312500002L123.02777777777777,20.35849609374999L124.565625,22.243681640625L126.10347222222222,24.268371582031243L127.64131944444445,20.0163330078125L129.17916666666667,22.306376953124992L130.71701388888889,21.44872070312499L132.25486111111113,18.9656298828125L133.79270833333334,19.59015136718751L135.33055555555555,17.823320312499998L136.8684027777778,16.625766601562503L138.40625,19.61582031250001L139.9440972222222,17.5968896484375L141.48194444444442,18.3739990234375L143.0197916666667,19.0990771484375L144.5576388888889,20.314565429687505L146.09548611111111,20.138071289062502L147.63333333333333,17.036411132812496L149.17118055555554,19.190810546875L150.70902777777778,19.80413574218749L152.24687500000002,21.0344677734375L153.78472222222223,17.393012695312493L155.32256944444444,18.78020996093751L156.86041666666665,23.07522705078126L158.3982638888889,17.75051757812499L159.9361111111111,28.277453613281246L161.47395833333334,20.991791992187505L163.01180555555555,24.56915527343751L164.54965277777777,25.527138671875L166.0875,18.385693359374997L167.62534722222222,23.209665527343752L169.16319444444446,63.46598155975341L170.70104166666667,75.549697265625L172.23888888888888,90.14136474609376L173.77673611111112,94.28732666015624L175.31458333333333,45.64889038085937L176.85243055555554,49.24300659179688L178.39027777777778,21.57607421875L179.928125,23.934440917968743L181.46597222222223,17.304301757812503L183.00381944444445,33.37347900390625L184.54166666666666,19.489711914062504L186.0795138888889,24.66048583984375L187.6173611111111,24.8158740234375L189.15520833333335,39.80722656249999L190.69305555555556,35.805563964843756L192.23090277777777,29.739970703124992L193.76874999999998,20.115400390625002L195.30659722222222,16.626191406249998L196.84444444444446,20.114814453124993L198.38229166666667,30.304348144531254L199.92013888888889,18.612524414062502L201.4579861111111,34.99883544921876L202.9958333333333,18.888056640625003L204.53368055555558,18.2620947265625L206.0715277777778,21.059692382812507L207.609375,23.930317382812497L209.1472222222222,18.6156787109375L210.68506944444442,19.80498046875001L212.2229166666667,17.364067382812507L213.7607638888889,20.706118164062495L215.29861111111111,18.807241210937505L216.83645833333333,42.93519775390625L218.37430555555554,19.428969726562492L219.91215277777778,19.699575195312505L221.45000000000002,18.89460937499999L222.98784722222223,22.15817382812499L224.52569444444444,19.215556640625L226.06354166666665,36.08438720703124L227.6013888888889,58.30204895019532L229.1392361111111,18.383320312499997L230.67708333333334,20.01736328125L232.21493055555555,20.602856445312504L233.75277777777777,21.9424609375L235.290625,22.4440380859375L236.82847222222222,31.427663574218744L238.36631944444446,17.6229638671875L239.90416666666667,19.292373046875003L241.44201388888888,27.520446777343757L242.97986111111112,20.57895019531251L244.51770833333333,34.647236328125004L246.05555555555554,20.077612304687506L247.59340277777778,18.813002929687503L249.13125,18.559316406249998L250.66909722222223,18.574384765625L252.20694444444445,17.928330078125008L253.74479166666666,18.4859765625L255.2826388888889,34.726701660156245L256.8204861111111,20.480205078124992L258.35833333333335,20.9681396484375L259.89618055555553,21.864711914062497L261.43402777777777,17.3569873046875" style="fill: none;" fill="none"></path></g><g><path stroke="rgb(238, 51, 119)" stroke-width="2px" d="M32.29479166666667,85.72974853515625L33.83263888888889,88.566220703125L35.370486111111106,86.428173828125L36.90833333333333,72.21072509765624L38.44618055555556,101.82465820312501L39.984027777777776,94.24369384765625L41.521875,62.91211807250977L43.05972222222222,103.45741699218749L44.597569444444446,65.58728836059569L46.135416666666664,64.44293273925781L47.67326388888889,78.60756591796874L49.211111111111116,87.84656494140626L50.74895833333333,67.57100402832032L52.28680555555555,48.98124877929687L53.82465277777778,78.06492919921875L55.362500000000004,76.82010620117188L56.90034722222222,95.5080419921875L58.43819444444444,87.32954345703126L59.97604166666667,77.46919311523438L61.513888888888886,61.4225961303711L63.05173611111111,52.35275146484375L64.58958333333334,30.656770019531244L66.12743055555556,33.23526611328125L67.66527777777777,50.51565917968749L69.203125,38.85980957031251L70.74097222222221,40.79433349609375L72.27881944444445,21.79939453125L73.81666666666666,38.19886474609375L75.35451388888889,19.96077148437499L76.89236111111111,25.247189941406244L78.43020833333333,45.17876586914062L79.96805555555555,49.08753784179688L81.50590277777778,23.88489501953125L83.04375,35.66477539062501L84.58159722222223,36.91256103515625L86.11944444444444,20.784135742187498L87.65729166666667,22.377719726562507L89.19513888888889,20.944375L90.73298611111112,35.06675781250001L92.27083333333333,19.621474609375007L93.80868055555555,31.588452148437497L95.34652777777778,17.6045703125L96.88437499999999,40.34336914062499L98.42222222222223,20.236372070312505L99.96006944444444,19.248037109374994L101.49791666666665,24.82361083984376L103.0357638888889,51.20130371093751L104.5736111111111,43.216149902343744L106.11145833333335,19.51812499999999L107.64930555555556,21.401015625L109.18715277777777,24.430424804687494L110.72500000000001,29.389458007812493L112.26284722222222,22.56435546875L113.80069444444445,25.93580078124999L115.33854166666667,19.529755859374994L116.87638888888888,46.01366455078124L118.41423611111111,48.148305664062505L119.95208333333333,46.34596435546875L121.48993055555556,41.933142089843756L123.02777777777777,19.966342773437496L124.565625,34.30893310546875L126.10347222222222,19.651337890624994L127.64131944444445,20.347421875L129.17916666666667,19.305097656250005L130.71701388888889,34.590051269531244L132.25486111111113,21.18165039062501L133.79270833333334,21.470253906250008L135.33055555555555,20.47624023437499L136.8684027777778,26.120734863281253L138.40625,20.9874853515625L139.9440972222222,21.032524414062507L141.48194444444442,21.989589843749997L143.0197916666667,19.953344726562506L144.5576388888889,17.891201171875007L146.09548611111111,47.988962402343745L147.63333333333333,57.26128601074219L149.17118055555554,19.557880859375004L150.70902777777778,19.791938476562493L152.24687500000002,17.650209960937502L153.78472222222223,20.500454101562497L155.32256944444444,20.860473632812493L156.86041666666665,18.755898437500008L158.3982638888889,21.450957031250006L159.9361111111111,19.077534179687497L161.47395833333334,18.277373046875006L163.01180555555555,17.707187499999996L164.54965277777777,19.938930664062507L166.0875,20.298110351562503L167.62534722222222,23.5746533203125L169.16319444444446,33.368081054687494L170.70104166666667,34.750021972656256L172.23888888888888,19.945209960937504L173.77673611111112,18.29665527343751L175.31458333333333,18.303471679687497L176.85243055555554,21.227973632812493L178.39027777777778,44.83303833007813L179.928125,17.424853515625006L181.46597222222223,20.5627197265625L183.00381944444445,20.037666015624993L184.54166666666666,16.367558593750008L186.0795138888889,20.50816894531249L187.6173611111111,44.56923950195312L189.15520833333335,21.74332031250001L190.69305555555556,15.996201171874992L192.23090277777777,16.585693359374993L193.76874999999998,17.492480468750003L195.30659722222222,63.875971603393566L196.84444444444446,26.330126953125006L198.38229166666667,18.661386718749995L199.92013888888889,21.105361328124992L201.4579861111111,20.1058642578125L202.9958333333333,15.707622070312501L204.53368055555558,17.979687500000004L206.0715277777778,19.984501953124994L207.609375,19.5143701171875L209.1472222222222,17.399116210937493L210.68506944444442,31.26376220703125L212.2229166666667,17.398427734374998L213.7607638888889,17.36400390624999L215.29861111111111,16.23857421875001L216.83645833333333,21.658457031249995L218.37430555555554,19.35051269531249L219.91215277777778,34.133688964843756L221.45000000000002,21.31261718750001L222.98784722222223,33.23799072265624L224.52569444444444,18.315620117187496L226.06354166666665,20.087636718750005L227.6013888888889,17.143647460937494L229.1392361111111,19.148793945312498L230.67708333333334,16.0092626953125L232.21493055555555,17.6189990234375L233.75277777777777,17.345522460937502L235.290625,19.81013671875L236.82847222222222,17.412011718749994L238.36631944444446,18.774506835937494L239.90416666666667,18.476293945312506L241.44201388888888,19.982963867187504L242.97986111111112,36.41996826171875L244.51770833333333,15.512900390625006L246.05555555555554,24.658586425781245L247.59340277777778,18.998466796874997L249.13125,17.60624999999999L250.66909722222223,15.474179687500005L252.20694444444445,19.758339843749994L253.74479166666666,17.93517578125L255.2826388888889,16.7348779296875L256.8204861111111,17.729130859375008L258.35833333333335,18.874672851562508L259.89618055555553,18.045825195312503L261.43402777777777,18.15233886718751" style="fill: none;" fill="none"></path></g><g><path stroke="rgb(51, 187, 238)" stroke-width="2px" d="M32.29479166666667,69.6075848388672L33.83263888888889,107.06842285156249L35.370486111111106,107.47414062500002L36.90833333333333,96.32949707031251L38.44618055555556,85.804697265625L39.984027777777776,76.24425537109374L41.521875,84.14942993164063L43.05972222222222,86.911865234375L44.597569444444446,68.59619262695313L46.135416666666664,51.00779296875L47.67326388888889,94.75794677734375L49.211111111111116,62.10532913208007L50.74895833333333,27.174020996093745L52.28680555555555,24.681750488281253L53.82465277777778,26.89008544921875L55.362500000000004,69.71455200195314L56.90034722222222,27.348715820312506L58.43819444444444,50.91639526367188L59.97604166666667,26.974921875000007L61.513888888888886,83.01109008789062L63.05173611111111,52.86832519531251L64.58958333333334,64.4812075805664L66.12743055555556,38.389375L67.66527777777777,31.2069287109375L69.203125,28.224111328125005L70.74097222222221,30.447587890625L72.27881944444445,36.45351562500001L73.81666666666666,57.302105712890615L75.35451388888889,27.14507812499999L76.89236111111111,24.201333007812504L78.43020833333333,23.44032470703125L79.96805555555555,18.70338867187499L81.50590277777778,28.135532226562507L83.04375,25.898283691406256L84.58159722222223,27.019726562499997L86.11944444444444,26.171916503906253L87.65729166666667,17.41350097656251L89.19513888888889,19.02036132812499L90.73298611111112,21.114833984374997L92.27083333333333,33.097470703125005L93.80868055555555,28.628676757812503L95.34652777777778,20.867485351562493L96.88437499999999,19.884877929687505L98.42222222222223,49.02483886718751L99.96006944444444,24.15669921875L101.49791666666665,22.13435546875L103.0357638888889,20.324848632812493L104.5736111111111,25.54005859375001L106.11145833333335,19.906455078125006L107.64930555555556,54.43765319824219L109.18715277777777,34.751674804687504L110.72500000000001,45.697083740234376L112.26284722222222,34.458833007812494L113.80069444444445,17.860585937500005L115.33854166666667,20.797753906249994L116.87638888888888,21.794384765624997L118.41423611111111,20.439614257812508L119.95208333333333,19.911767578125L121.48993055555556,24.629184570312496L123.02777777777777,17.756425781250005L124.565625,20.98146972656251L126.10347222222222,20.202304687500003L127.64131944444445,22.123496093749992L129.17916666666667,18.599135742187492L130.71701388888889,18.927612304687496L132.25486111111113,16.7727880859375L133.79270833333334,74.733701171875L135.33055555555555,26.0286328125L136.8684027777778,19.126079101562496L138.40625,20.140302734375005L139.9440972222222,18.316474609375L141.48194444444442,21.0573583984375L143.0197916666667,18.899682617187494L144.5576388888889,20.015927734374998L146.09548611111111,153.157509765625L147.63333333333333,83.43141967773438L149.17118055555554,74.90530639648438L150.70902777777778,56.25382629394531L152.24687500000002,21.669267578125005L153.78472222222223,20.09275390624999L155.32256944444444,47.58681762695313L156.86041666666665,20.771201171875006L158.3982638888889,39.4265771484375L159.9361111111111,21.962070312500003L161.47395833333334,20.035483398437492L163.01180555555555,16.320009765624995L164.54965277777777,27.19317626953125L166.0875,17.937480468750007L167.62534722222222,21.679946289062507L169.16319444444446,23.269638671875L170.70104166666667,20.839316406249996L172.23888888888888,19.763193359374995L173.77673611111112,21.08899902343751L175.31458333333333,21.251303710937506L176.85243055555554,25.72042968750001L178.39027777777778,19.246850585937494L179.928125,20.903564453125L181.46597222222223,20.39723632812501L183.00381944444445,25.474377441406254L184.54166666666666,23.04854248046876L186.0795138888889,18.51642578125L187.6173611111111,17.9441064453125L189.15520833333335,18.47778808593749L190.69305555555556,21.4984130859375L192.23090277777777,20.82175292968749L193.76874999999998,19.374306640624994L195.30659722222222,18.59214355468751L196.84444444444446,16.40857421874999L198.38229166666667,20.152480468750007L199.92013888888889,32.53473632812499L201.4579861111111,21.73796386718749L202.9958333333333,20.37141113281251L204.53368055555558,21.895810546874998L206.0715277777778,21.9727685546875L207.609375,16.884296875000004L209.1472222222222,19.342475585937507L210.68506944444442,20.337915039062494L212.2229166666667,16.5882958984375L213.7607638888889,22.185117187499998L215.29861111111111,20.740668945312496L216.83645833333333,18.428305664062492L218.37430555555554,19.820107421874994L219.91215277777778,21.438828125L221.45000000000002,19.738227539062493L222.98784722222223,35.833002929687495L224.52569444444444,18.935532226562493L226.06354166666665,19.190986328124993L227.6013888888889,47.623427734375L229.1392361111111,16.704326171874992L230.67708333333334,100.16642578125001L232.21493055555555,17.210605468750003L233.75277777777777,30.708293457031246L235.290625,22.934970703125007L236.82847222222222,62.993978500366204L238.36631944444446,21.376035156249998L239.90416666666667,18.880190429687502L241.44201388888888,49.51131103515624L242.97986111111112,17.50821289062501L244.51770833333333,18.590874023437493L246.05555555555554,17.546552734375L247.59340277777778,19.562099609375004L249.13125,27.50708251953126L250.66909722222223,17.050175781250005L252.20694444444445,19.687934570312496L253.74479166666666,21.355473632812494L255.2826388888889,23.244609375000003L256.8204861111111,20.09555175781251L258.35833333333335,19.247089843750008L259.89618055555553,17.768115234374992L261.43402777777777,21.270004882812493" style="fill: none;" fill="none"></path></g></g></g></g></g></g><g transform="translate(53, 176)" clip-path="url(#clip_1)"><clipPath id="clip_1"><rect width="276" height="24"></rect></clipPath><g><g><line x1="0" y1="0" x2="0" y2="5" style="visibility: inherit;" fill="rgb(0, 0, 0)" stroke="rgb(204, 204, 204)" stroke-width="1px"></line><line x1="30.756944444444443" y1="0" x2="30.756944444444443" y2="5" style="visibility: inherit;" fill="rgb(0, 0, 0)" stroke="rgb(204, 204, 204)" stroke-width="1px"></line><line x1="61.513888888888886" y1="0" x2="61.513888888888886" y2="5" style="visibility: inherit;" fill="rgb(0, 0, 0)" stroke="rgb(204, 204, 204)" stroke-width="1px"></line><line x1="92.27083333333333" y1="0" x2="92.27083333333333" y2="5" style="visibility: inherit;" fill="rgb(0, 0, 0)" stroke="rgb(204, 204, 204)" stroke-width="1px"></line><line x1="123.02777777777777" y1="0" x2="123.02777777777777" y2="5" style="visibility: inherit;" fill="rgb(0, 0, 0)" stroke="rgb(204, 204, 204)" stroke-width="1px"></line><line x1="153.78472222222223" y1="0" x2="153.78472222222223" y2="5" style="visibility: inherit;" fill="rgb(0, 0, 0)" stroke="rgb(204, 204, 204)" stroke-width="1px"></line><line x1="184.54166666666666" y1="0" x2="184.54166666666666" y2="5" style="visibility: inherit;" fill="rgb(0, 0, 0)" stroke="rgb(204, 204, 204)" stroke-width="1px"></line><line x1="215.29861111111111" y1="0" x2="215.29861111111111" y2="5" style="visibility: inherit;" fill="rgb(0, 0, 0)" stroke="rgb(204, 204, 204)" stroke-width="1px"></line><line x1="246.05555555555554" y1="0" x2="246.05555555555554" y2="5" style="visibility: inherit;" fill="rgb(0, 0, 0)" stroke="rgb(204, 204, 204)" stroke-width="1px"></line><line x1="276.8125" y1="0" x2="276.8125" y2="5" style="visibility: inherit;" fill="rgb(0, 0, 0)" stroke="rgb(204, 204, 204)" stroke-width="1px"></line></g><g transform="translate(0, 8)"><text x="0" y="0" dx="0em" dy="0.95em" style="text-anchor: middle; visibility: hidden; font-family: Roboto, sans-serif; font-size: 12px; font-weight: 200;" fill="rgb(33, 33, 33)" stroke="none" stroke-width="1px">-200k</text><text x="30.756944444444443" y="0" dx="0em" dy="0.95em" style="text-anchor: middle; visibility: inherit; font-family: Roboto, sans-serif; font-size: 12px; font-weight: 200;" fill="rgb(33, 33, 33)" stroke="none" stroke-width="1px">0</text><text x="61.513888888888886" y="0" dx="0em" dy="0.95em" style="text-anchor: middle; visibility: hidden; font-family: Roboto, sans-serif; font-size: 12px; font-weight: 200;" fill="rgb(33, 33, 33)" stroke="none" stroke-width="1px">200k</text><text x="92.27083333333333" y="0" dx="0em" dy="0.95em" style="text-anchor: middle; visibility: inherit; font-family: Roboto, sans-serif; font-size: 12px; font-weight: 200;" fill="rgb(33, 33, 33)" stroke="none" stroke-width="1px">400k</text><text x="123.02777777777777" y="0" dx="0em" dy="0.95em" style="text-anchor: middle; visibility: hidden; font-family: Roboto, sans-serif; font-size: 12px; font-weight: 200;" fill="rgb(33, 33, 33)" stroke="none" stroke-width="1px">600k</text><text x="153.78472222222223" y="0" dx="0em" dy="0.95em" style="text-anchor: middle; visibility: inherit; font-family: Roboto, sans-serif; font-size: 12px; font-weight: 200;" fill="rgb(33, 33, 33)" stroke="none" stroke-width="1px">800k</text><text x="184.54166666666666" y="0" dx="0em" dy="0.95em" style="text-anchor: middle; visibility: hidden; font-family: Roboto, sans-serif; font-size: 12px; font-weight: 200;" fill="rgb(33, 33, 33)" stroke="none" stroke-width="1px">1M</text><text x="215.29861111111111" y="0" dx="0em" dy="0.95em" style="text-anchor: middle; visibility: inherit; font-family: Roboto, sans-serif; font-size: 12px; font-weight: 200;" fill="rgb(33, 33, 33)" stroke="none" stroke-width="1px">1.2M</text><text x="246.05555555555554" y="0" dx="0em" dy="0.95em" style="text-anchor: middle; visibility: hidden; font-family: Roboto, sans-serif; font-size: 12px; font-weight: 200;" fill="rgb(33, 33, 33)" stroke="none" stroke-width="1px">1.4M</text><text x="276.8125" y="0" dx="0em" dy="0.95em" style="text-anchor: middle; visibility: hidden; font-family: Roboto, sans-serif; font-size: 12px; font-weight: 200;" fill="rgb(33, 33, 33)" stroke="none" stroke-width="1px">1.6M</text></g><line x1="0" y1="0" x2="276.8125" y2="0" fill="rgb(0, 0, 0)" stroke="rgb(204, 204, 204)" stroke-width="1px"></line></g></g></g></g></svg>