<svg viewBox="0 0 330 200" xmlns="http://www.w3.org/2000/svg"><g><g><g><g><g><line x1="85.578125" y1="176" x2="80.578125" y2="176" style="visibility: inherit;" fill="rgb(0, 0, 0)" stroke="rgb(204, 204, 204)" stroke-width="1px"></line><line x1="85.578125" y1="156.44444444444443" x2="80.578125" y2="156.44444444444443" style="visibility: inherit;" fill="rgb(0, 0, 0)" stroke="rgb(204, 204, 204)" stroke-width="1px"></line><line x1="85.578125" y1="136.88888888888889" x2="80.578125" y2="136.88888888888889" style="visibility: inherit;" fill="rgb(0, 0, 0)" stroke="rgb(204, 204, 204)" stroke-width="1px"></line><line x1="85.578125" y1="117.33333333333334" x2="80.578125" y2="117.33333333333334" style="visibility: inherit;" fill="rgb(0, 0, 0)" stroke="rgb(204, 204, 204)" stroke-width="1px"></line><line x1="85.578125" y1="97.77777777777779" x2="80.578125" y2="97.77777777777779" style="visibility: inherit;" fill="rgb(0, 0, 0)" stroke="rgb(204, 204, 204)" stroke-width="1px"></line><line x1="85.578125" y1="78.22222222222221" x2="80.578125" y2="78.22222222222221" style="visibility: inherit;" fill="rgb(0, 0, 0)" stroke="rgb(204, 204, 204)" stroke-width="1px"></line><line x1="85.578125" y1="58.66666666666667" x2="80.578125" y2="58.66666666666667" style="visibility: inherit;" fill="rgb(0, 0, 0)" stroke="rgb(204, 204, 204)" stroke-width="1px"></line><line x1="85.578125" y1="39.11111111111111" x2="80.578125" y2="39.11111111111111" style="visibility: inherit;" fill="rgb(0, 0, 0)" stroke="rgb(204, 204, 204)" stroke-width="1px"></line><line x1="85.578125" y1="19.555555555555564" x2="80.578125" y2="19.555555555555564" style="visibility: inherit;" fill="rgb(0, 0, 0)" stroke="rgb(204, 204, 204)" stroke-width="1px"></line><line x1="85.578125" y1="0" x2="80.578125" y2="0" style="visibility: inherit;" fill="rgb(0, 0, 0)" stroke="rgb(204, 204, 204)" stroke-width="1px"></line></g><g transform="translate(75.578125, 0)"><text x="0" y="176" dx="0em" dy="0.3em" style="text-anchor: end; visibility: hidden; font-family: Roboto, sans-serif; font-size: 12px; font-weight: 200;" fill="rgb(33, 33, 33)" stroke="none" stroke-width="1px">-1.8e+3</text><text x="0" y="156.44444444444443" dx="0em" dy="0.3em" style="text-anchor: end; visibility: inherit; font-family: Roboto, sans-serif; font-size: 12px; font-weight: 200;" fill="rgb(33, 33, 33)" stroke="none" stroke-width="1px">-1.6e+3</text><text x="0" y="136.88888888888889" dx="0em" dy="0.3em" style="text-anchor: end; visibility: hidden; font-family: Roboto, sans-serif; font-size: 12px; font-weight: 200;" fill="rgb(33, 33, 33)" stroke="none" stroke-width="1px">-1.4e+3</text><text x="0" y="117.33333333333334" dx="0em" dy="0.3em" style="text-anchor: end; visibility: inherit; font-family: Roboto, sans-serif; font-size: 12px; font-weight: 200;" fill="rgb(33, 33, 33)" stroke="none" stroke-width="1px">-1.2e+3</text><text x="0" y="97.77777777777779" dx="0em" dy="0.3em" style="text-anchor: end; visibility: hidden; font-family: Roboto, sans-serif; font-size: 12px; font-weight: 200;" fill="rgb(33, 33, 33)" stroke="none" stroke-width="1px">-1e+3</text><text x="0" y="78.22222222222221" dx="0em" dy="0.3em" style="text-anchor: end; visibility: inherit; font-family: Roboto, sans-serif; font-size: 12px; font-weight: 200;" fill="rgb(33, 33, 33)" stroke="none" stroke-width="1px">-800</text><text x="0" y="58.66666666666667" dx="0em" dy="0.3em" style="text-anchor: end; visibility: hidden; font-family: Roboto, sans-serif; font-size: 12px; font-weight: 200;" fill="rgb(33, 33, 33)" stroke="none" stroke-width="1px">-600</text><text x="0" y="39.11111111111111" dx="0em" dy="0.3em" style="text-anchor: end; visibility: inherit; font-family: Roboto, sans-serif; font-size: 12px; font-weight: 200;" fill="rgb(33, 33, 33)" stroke="none" stroke-width="1px">-400</text><text x="0" y="19.555555555555564" dx="0em" dy="0.3em" style="text-anchor: end; visibility: hidden; font-family: Roboto, sans-serif; font-size: 12px; font-weight: 200;" fill="rgb(33, 33, 33)" stroke="none" stroke-width="1px">-200</text><text x="0" y="0" dx="0em" dy="0.3em" style="text-anchor: end; visibility: hidden; font-family: Roboto, sans-serif; font-size: 12px; font-weight: 200;" fill="rgb(33, 33, 33)" stroke="none" stroke-width="1px">0</text></g><line x1="85.578125" y1="0" x2="85.578125" y2="176" fill="rgb(0, 0, 0)" stroke="rgb(204, 204, 204)" stroke-width="1px"></line></g></g><g transform="translate(85, 0)" clip-path="url(#clip_0)"><clipPath id="clip_0"><rect width="244" height="176"></rect></clipPath><g><g><g><line x1="0" y1="0" x2="0" y2="176" fill="rgb(0, 0, 0)" stroke="rgb(66, 66, 66)" stroke-width="1px" opacity="0.25"></line><line x1="22.220170454545457" y1="0" x2="22.220170454545457" y2="176" fill="rgb(0, 0, 0)" stroke="rgb(66, 66, 66)" stroke-width="1px" opacity="0.25"></line><line x1="44.440340909090914" y1="0" x2="44.440340909090914" y2="176" fill="rgb(0, 0, 0)" stroke="rgb(66, 66, 66)" stroke-width="1px" opacity="0.25"></line><line x1="66.66051136363636" y1="0" x2="66.66051136363636" y2="176" fill="rgb(0, 0, 0)" stroke="rgb(66, 66, 66)" stroke-width="1px" opacity="0.25"></line><line x1="88.88068181818183" y1="0" x2="88.88068181818183" y2="176" fill="rgb(0, 0, 0)" stroke="rgb(66, 66, 66)" stroke-width="1px" opacity="0.25"></line><line x1="111.10085227272727" y1="0" x2="111.10085227272727" y2="176" fill="rgb(0, 0, 0)" stroke="rgb(66, 66, 66)" stroke-width="1px" opacity="0.25"></line><line x1="133.32102272727272" y1="0" x2="133.32102272727272" y2="176" fill="rgb(0, 0, 0)" stroke="rgb(66, 66, 66)" stroke-width="1px" opacity="0.25"></line><line x1="155.5411931818182" y1="0" x2="155.5411931818182" y2="176" fill="rgb(0, 0, 0)" stroke="rgb(66, 66, 66)" stroke-width="1px" opacity="0.25"></line><line x1="177.76136363636365" y1="0" x2="177.76136363636365" y2="176" fill="rgb(0, 0, 0)" stroke="rgb(66, 66, 66)" stroke-width="1px" opacity="0.25"></line><line x1="199.9815340909091" y1="0" x2="199.9815340909091" y2="176" fill="rgb(0, 0, 0)" stroke="rgb(66, 66, 66)" stroke-width="1px" opacity="0.25"></line><line x1="222.20170454545453" y1="0" x2="222.20170454545453" y2="176" fill="rgb(0, 0, 0)" stroke="rgb(66, 66, 66)" stroke-width="1px" opacity="0.25"></line><line x1="244.421875" y1="0" x2="244.421875" y2="176" fill="rgb(0, 0, 0)" stroke="rgb(66, 66, 66)" stroke-width="1px" opacity="0.25"></line></g><g><line x1="0" y1="176" x2="244.421875" y2="176" fill="rgb(0, 0, 0)" stroke="rgb(66, 66, 66)" stroke-width="1px" opacity="0.25"></line><line x1="0" y1="156.44444444444443" x2="244.421875" y2="156.44444444444443" fill="rgb(0, 0, 0)" stroke="rgb(66, 66, 66)" stroke-width="1px" opacity="0.25"></line><line x1="0" y1="136.88888888888889" x2="244.421875" y2="136.88888888888889" fill="rgb(0, 0, 0)" stroke="rgb(66, 66, 66)" stroke-width="1px" opacity="0.25"></line><line x1="0" y1="117.33333333333334" x2="244.421875" y2="117.33333333333334" fill="rgb(0, 0, 0)" stroke="rgb(66, 66, 66)" stroke-width="1px" opacity="0.25"></line><line x1="0" y1="97.77777777777779" x2="244.421875" y2="97.77777777777779" fill="rgb(0, 0, 0)" stroke="rgb(66, 66, 66)" stroke-width="1px" opacity="0.25"></line><line x1="0" y1="78.22222222222221" x2="244.421875" y2="78.22222222222221" fill="rgb(0, 0, 0)" stroke="rgb(66, 66, 66)" stroke-width="1px" opacity="0.25"></line><line x1="0" y1="58.66666666666667" x2="244.421875" y2="58.66666666666667" fill="rgb(0, 0, 0)" stroke="rgb(66, 66, 66)" stroke-width="1px" opacity="0.25"></line><line x1="0" y1="39.11111111111111" x2="244.421875" y2="39.11111111111111" fill="rgb(0, 0, 0)" stroke="rgb(66, 66, 66)" stroke-width="1px" opacity="0.25"></line><line x1="0" y1="19.555555555555564" x2="244.421875" y2="19.555555555555564" fill="rgb(0, 0, 0)" stroke="rgb(66, 66, 66)" stroke-width="1px" opacity="0.25"></line><line x1="0" y1="0" x2="244.421875" y2="0" fill="rgb(0, 0, 0)" stroke="rgb(66, 66, 66)" stroke-width="1px" opacity="0.25"></line></g></g></g><g><g><line x1="0" y1="0" x2="244.421875" y2="0" fill="rgb(0, 0, 0)" stroke="rgb(153, 153, 153)" stroke-width="1.5px"></line></g></g><g><g><line x1="0" y1="0" x2="0" y2="176" fill="rgb(0, 0, 0)" stroke="rgb(153, 153, 153)" stroke-width="1.5px"></line></g></g><g><g><g><g><g><path stroke="rgb(204, 51, 17)" stroke-width="2px" d="M8.88806818181818,147.08879882812502L17.77613636363636,141.1394610497818L26.664204545454545,138.9725678695543L35.55227272727272,129.28979329816542L44.440340909090914,138.07832756820525L53.32840909090909,130.22414648024164L62.21647727272727,137.27214621471063L71.10454545454544,128.51480671146547L79.99261363636363,136.09291361981687L88.88068181818183,135.50473701883072L97.76875000000001,128.1112649111928L106.65681818181818,129.8643409247379L115.54488636363637,76.35499646470787L124.43295454545454,34.5136168932666L133.32102272727272,22.07140680629373L142.2090909090909,15.36322842969777L151.0971590909091,15.848960189148212L159.98522727272726,15.887747315734295L168.87329545454546,18.25130857946955L177.76136363636365,11.504555088429061L186.64943181818182,11.79225128722402L195.53750000000002,16.50392057703914L204.42556818181816,13.577107498238993L213.31363636363636,15.837535188995034L222.20170454545453,12.83633316031148" style="fill: none;" fill="none"></path></g><g><path stroke="rgb(0, 119, 187)" stroke-width="2px" d="M8.88806818181818,150.318974609375L17.77613636363636,148.49870435560206L26.664204545454545,133.9603396979243L35.55227272727272,142.1800213738785L44.440340909090914,137.31268675409646L53.32840909090909,151.38424292625854L62.21647727272727,152.78659404595737L71.10454545454544,142.24245340149528L79.99261363636363,142.39773015555767L88.88068181818183,157.15784772713698L97.76875000000001,145.17060501807742L106.65681818181818,146.51756740901828L115.54488636363637,68.23894679112617L124.43295454545454,36.32768218726268L133.32102272727272,25.402492875872433L142.2090909090909,19.25696725041509L151.0971590909091,16.64113117583406L159.98522727272726,13.570631247899405L168.87329545454546,12.464651456289042L177.76136363636365,14.724212257975687L186.64943181818182,14.44405705824282L195.53750000000002,17.38371915333179L204.42556818181816,16.856271130402L213.31363636363636,11.204852465869205L222.20170454545453,14.589760498249456" style="fill: none;" fill="none"></path></g><g><path stroke="rgb(255, 112, 67)" stroke-width="2px" d="M8.88806818181818,121.01161349826388L17.77613636363636,119.66851759193935L26.664204545454545,140.73056031745045L35.55227272727272,124.5375360224593L44.440340909090914,122.06662082703389L53.32840909090909,106.46866597494197L62.21647727272727,125.00609366427916L71.10454545454544,136.68239804871456L79.99261363636363,125.68450647810042L88.88068181818183,125.76977664636509L97.76875000000001,118.69597999683353L106.65681818181818,112.17637532967389L115.54488636363637,94.38800678694179L124.43295454545454,46.8807875221291L133.32102272727272,24.14769515103225L142.2090909090909,20.866671039519954L151.0971590909091,19.852024269196342L159.98522727272726,16.81947284905335L168.87329545454546,16.380611296321625L177.76136363636365,12.09849071356368L186.64943181818182,17.740531271244695L195.53750000000002,9.053897079050197L204.42556818181816,8.293102200213818L213.31363636363636,14.939952502184896L222.20170454545453,12.954251994504565" style="fill: none;" fill="none"></path></g></g></g></g><g opacity="0.2"><g><g><g><path stroke="rgb(204, 51, 17)" stroke-width="2px" d="M8.88806818181818,147.08879882812502L17.77613636363636,139.05124348958333L26.664204545454545,137.94502495659722L35.55227272727272,124.27949435763887L44.440340909090914,142.75930338541667L53.32840909090909,125.998984375L62.21647727272727,141.07680230034723L71.10454545454544,123.78166558159722L79.99261363636363,140.19045247395835L88.88068181818183,135.1866579861111L97.76875000000001,124.11275173611111L106.65681818181818,130.812451171875L115.54488636363637,47.41552924262153L124.43295454545454,11.884485609266488L133.32102272727272,15.34226372612847L142.2090909090909,11.73523111979166L151.0971590909091,16.111659478081602L159.98522727272726,15.908724636501738L168.87329545454546,19.529598253038202L177.76136363636365,7.855694580078133L186.64943181818182,11.947846611870666L195.53750000000002,19.052142333984367L204.42556818181816,11.99419318305122L213.31363636363636,17.060046929253467L222.20170454545453,11.21318691677517" style="fill: none;" fill="none"></path></g><g><path stroke="rgb(0, 119, 187)" stroke-width="2px" d="M8.88806818181818,150.318974609375L17.77613636363636,147.85978949652778L26.664204545454545,127.06623263888889L35.55227272727272,146.43325086805555L44.440340909090914,134.7202322048611L53.32840909090909,158.95404622395833L62.21647727272727,153.54361219618056L71.10454545454544,136.54358723958333L79.99261363636363,142.481689453125L88.88068181818183,165.13994683159723L97.76875000000001,138.68770399305555L106.65681818181818,147.2460405815972L115.54488636363637,25.903508029513894L124.43295454545454,19.06906873914931L133.32102272727272,19.493802897135417L142.2090909090909,15.933270534939236L151.0971590909091,15.22640326605902L159.98522727272726,11.910006510416665L168.87329545454546,11.866502143012156L177.76136363636365,15.946255154079859L186.64943181818182,14.292540147569444L195.53750000000002,18.9735826280382L204.42556818181816,16.571010335286456L213.31363636363636,8.1483841281467L222.20170454545453,16.42042724609376" style="fill: none;" fill="none"></path></g><g><path stroke="rgb(255, 112, 67)" stroke-width="2px" d="M8.88806818181818,121.01161349826388L17.77613636363636,119.19709092881945L26.664204545454545,150.71820203993056L35.55227272727272,116.15854383680555L44.440340909090914,120.75055447048612L53.32840909090909,98.07773546006943L62.21647727272727,135.0129806857639L71.10454545454544,142.99317274305554L79.99261363636363,119.73786458333335L88.88068181818183,125.81588975694446L97.76875000000001,114.87035264756946L106.65681818181818,108.65039930555554L115.54488636363637,84.76752061631944L124.43295454545454,21.187392306857646L133.32102272727272,11.852915513780387L142.2090909090909,19.092188313802076L151.0971590909091,19.30327080620659L159.98522727272726,15.179371880425348L168.87329545454546,16.14326090494791L177.76136363636365,9.78258266872829L186.64943181818182,20.791927625868055L195.53750000000002,4.355886908637155L204.42556818181816,7.881639946831589L213.31363636363636,18.534782172309036L222.20170454545453,11.880321519639766" style="fill: none;" fill="none"></path></g></g></g></g></g></g><g transform="translate(85, 176)" clip-path="url(#clip_1)"><clipPath id="clip_1"><rect width="244" height="24"></rect></clipPath><g><g><line x1="0" y1="0" x2="0" y2="5" style="visibility: inherit;" fill="rgb(0, 0, 0)" stroke="rgb(204, 204, 204)" stroke-width="1px"></line><line x1="22.220170454545457" y1="0" x2="22.220170454545457" y2="5" style="visibility: inherit;" fill="rgb(0, 0, 0)" stroke="rgb(204, 204, 204)" stroke-width="1px"></line><line x1="44.440340909090914" y1="0" x2="44.440340909090914" y2="5" style="visibility: inherit;" fill="rgb(0, 0, 0)" stroke="rgb(204, 204, 204)" stroke-width="1px"></line><line x1="66.66051136363636" y1="0" x2="66.66051136363636" y2="5" style="visibility: inherit;" fill="rgb(0, 0, 0)" stroke="rgb(204, 204, 204)" stroke-width="1px"></line><line x1="88.88068181818183" y1="0" x2="88.88068181818183" y2="5" style="visibility: inherit;" fill="rgb(0, 0, 0)" stroke="rgb(204, 204, 204)" stroke-width="1px"></line><line x1="111.10085227272727" y1="0" x2="111.10085227272727" y2="5" style="visibility: inherit;" fill="rgb(0, 0, 0)" stroke="rgb(204, 204, 204)" stroke-width="1px"></line><line x1="133.32102272727272" y1="0" x2="133.32102272727272" y2="5" style="visibility: inherit;" fill="rgb(0, 0, 0)" stroke="rgb(204, 204, 204)" stroke-width="1px"></line><line x1="155.5411931818182" y1="0" x2="155.5411931818182" y2="5" style="visibility: inherit;" fill="rgb(0, 0, 0)" stroke="rgb(204, 204, 204)" stroke-width="1px"></line><line x1="177.76136363636365" y1="0" x2="177.76136363636365" y2="5" style="visibility: inherit;" fill="rgb(0, 0, 0)" stroke="rgb(204, 204, 204)" stroke-width="1px"></line><line x1="199.9815340909091" y1="0" x2="199.9815340909091" y2="5" style="visibility: inherit;" fill="rgb(0, 0, 0)" stroke="rgb(204, 204, 204)" stroke-width="1px"></line><line x1="222.20170454545453" y1="0" x2="222.20170454545453" y2="5" style="visibility: inherit;" fill="rgb(0, 0, 0)" stroke="rgb(204, 204, 204)" stroke-width="1px"></line><line x1="244.421875" y1="0" x2="244.421875" y2="5" style="visibility: inherit;" fill="rgb(0, 0, 0)" stroke="rgb(204, 204, 204)" stroke-width="1px"></line></g><g transform="translate(0, 8)"><text x="0" y="0" dx="0em" dy="0.95em" style="text-anchor: middle; visibility: hidden; font-family: Roboto, sans-serif; font-size: 12px; font-weight: 200;" fill="rgb(33, 33, 33)" stroke="none" stroke-width="1px">0</text><text x="22.220170454545457" y="0" dx="0em" dy="0.95em" style="text-anchor: middle; visibility: inherit; font-family: Roboto, sans-serif; font-size: 12px; font-weight: 200;" fill="rgb(33, 33, 33)" stroke="none" stroke-width="1px">10k</text><text x="44.440340909090914" y="0" dx="0em" dy="0.95em" style="text-anchor: middle; visibility: hidden; font-family: Roboto, sans-serif; font-size: 12px; font-weight: 200;" fill="rgb(33, 33, 33)" stroke="none" stroke-width="1px">20k</text><text x="66.66051136363636" y="0" dx="0em" dy="0.95em" style="text-anchor: middle; visibility: inherit; font-family: Roboto, sans-serif; font-size: 12px; font-weight: 200;" fill="rgb(33, 33, 33)" stroke="none" stroke-width="1px">30k</text><text x="88.88068181818183" y="0" dx="0em" dy="0.95em" style="text-anchor: middle; visibility: hidden; font-family: Roboto, sans-serif; font-size: 12px; font-weight: 200;" fill="rgb(33, 33, 33)" stroke="none" stroke-width="1px">40k</text><text x="111.10085227272727" y="0" dx="0em" dy="0.95em" style="text-anchor: middle; visibility: inherit; font-family: Roboto, sans-serif; font-size: 12px; font-weight: 200;" fill="rgb(33, 33, 33)" stroke="none" stroke-width="1px">50k</text><text x="133.32102272727272" y="0" dx="0em" dy="0.95em" style="text-anchor: middle; visibility: hidden; font-family: Roboto, sans-serif; font-size: 12px; font-weight: 200;" fill="rgb(33, 33, 33)" stroke="none" stroke-width="1px">60k</text><text x="155.5411931818182" y="0" dx="0em" dy="0.95em" style="text-anchor: middle; visibility: inherit; font-family: Roboto, sans-serif; font-size: 12px; font-weight: 200;" fill="rgb(33, 33, 33)" stroke="none" stroke-width="1px">70k</text><text x="177.76136363636365" y="0" dx="0em" dy="0.95em" style="text-anchor: middle; visibility: hidden; font-family: Roboto, sans-serif; font-size: 12px; font-weight: 200;" fill="rgb(33, 33, 33)" stroke="none" stroke-width="1px">80k</text><text x="199.9815340909091" y="0" dx="0em" dy="0.95em" style="text-anchor: middle; visibility: inherit; font-family: Roboto, sans-serif; font-size: 12px; font-weight: 200;" fill="rgb(33, 33, 33)" stroke="none" stroke-width="1px">90k</text><text x="222.20170454545453" y="0" dx="0em" dy="0.95em" style="text-anchor: middle; visibility: hidden; font-family: Roboto, sans-serif; font-size: 12px; font-weight: 200;" fill="rgb(33, 33, 33)" stroke="none" stroke-width="1px">100k</text><text x="244.421875" y="0" dx="0em" dy="0.95em" style="text-anchor: middle; visibility: hidden; font-family: Roboto, sans-serif; font-size: 12px; font-weight: 200;" fill="rgb(33, 33, 33)" stroke="none" stroke-width="1px">110k</text></g><line x1="0" y1="0" x2="244.421875" y2="0" fill="rgb(0, 0, 0)" stroke="rgb(204, 204, 204)" stroke-width="1px"></line></g></g></g></g></svg>