<svg viewBox="0 0 330 200" xmlns="http://www.w3.org/2000/svg"><g><g><g><g><g><line x1="53.1875" y1="177" x2="48.1875" y2="177" style="visibility: inherit;" fill="rgb(0, 0, 0)" stroke="rgb(204, 204, 204)" stroke-width="1px"></line><line x1="53.1875" y1="159.3" x2="48.1875" y2="159.3" style="visibility: inherit;" fill="rgb(0, 0, 0)" stroke="rgb(204, 204, 204)" stroke-width="1px"></line><line x1="53.1875" y1="141.6" x2="48.1875" y2="141.6" style="visibility: inherit;" fill="rgb(0, 0, 0)" stroke="rgb(204, 204, 204)" stroke-width="1px"></line><line x1="53.1875" y1="123.89999999999999" x2="48.1875" y2="123.89999999999999" style="visibility: inherit;" fill="rgb(0, 0, 0)" stroke="rgb(204, 204, 204)" stroke-width="1px"></line><line x1="53.1875" y1="106.2" x2="48.1875" y2="106.2" style="visibility: inherit;" fill="rgb(0, 0, 0)" stroke="rgb(204, 204, 204)" stroke-width="1px"></line><line x1="53.1875" y1="88.5" x2="48.1875" y2="88.5" style="visibility: inherit;" fill="rgb(0, 0, 0)" stroke="rgb(204, 204, 204)" stroke-width="1px"></line><line x1="53.1875" y1="70.8" x2="48.1875" y2="70.8" style="visibility: inherit;" fill="rgb(0, 0, 0)" stroke="rgb(204, 204, 204)" stroke-width="1px"></line><line x1="53.1875" y1="53.10000000000001" x2="48.1875" y2="53.10000000000001" style="visibility: inherit;" fill="rgb(0, 0, 0)" stroke="rgb(204, 204, 204)" stroke-width="1px"></line><line x1="53.1875" y1="35.39999999999999" x2="48.1875" y2="35.39999999999999" style="visibility: inherit;" fill="rgb(0, 0, 0)" stroke="rgb(204, 204, 204)" stroke-width="1px"></line><line x1="53.1875" y1="17.699999999999996" x2="48.1875" y2="17.699999999999996" style="visibility: inherit;" fill="rgb(0, 0, 0)" stroke="rgb(204, 204, 204)" stroke-width="1px"></line><line x1="53.1875" y1="0" x2="48.1875" y2="0" style="visibility: inherit;" fill="rgb(0, 0, 0)" stroke="rgb(204, 204, 204)" stroke-width="1px"></line></g><g transform="translate(43.1875, 0)"><text x="0" y="177" dx="0em" dy="0.3em" style="text-anchor: end; visibility: hidden; font-family: Roboto, sans-serif; font-size: 12px; font-weight: 200;" fill="rgb(50, 49, 63)" stroke="none" stroke-width="1px">-450</text><text x="0" y="159.3" dx="0em" dy="0.3em" style="text-anchor: end; visibility: inherit; font-family: Roboto, sans-serif; font-size: 12px; font-weight: 200;" fill="rgb(50, 49, 63)" stroke="none" stroke-width="1px">-400</text><text x="0" y="141.6" dx="0em" dy="0.3em" style="text-anchor: end; visibility: hidden; font-family: Roboto, sans-serif; font-size: 12px; font-weight: 200;" fill="rgb(50, 49, 63)" stroke="none" stroke-width="1px">-350</text><text x="0" y="123.89999999999999" dx="0em" dy="0.3em" style="text-anchor: end; visibility: inherit; font-family: Roboto, sans-serif; font-size: 12px; font-weight: 200;" fill="rgb(50, 49, 63)" stroke="none" stroke-width="1px">-300</text><text x="0" y="106.2" dx="0em" dy="0.3em" style="text-anchor: end; visibility: hidden; font-family: Roboto, sans-serif; font-size: 12px; font-weight: 200;" fill="rgb(50, 49, 63)" stroke="none" stroke-width="1px">-250</text><text x="0" y="88.5" dx="0em" dy="0.3em" style="text-anchor: end; visibility: inherit; font-family: Roboto, sans-serif; font-size: 12px; font-weight: 200;" fill="rgb(50, 49, 63)" stroke="none" stroke-width="1px">-200</text><text x="0" y="70.8" dx="0em" dy="0.3em" style="text-anchor: end; visibility: hidden; font-family: Roboto, sans-serif; font-size: 12px; font-weight: 200;" fill="rgb(50, 49, 63)" stroke="none" stroke-width="1px">-150</text><text x="0" y="53.10000000000001" dx="0em" dy="0.3em" style="text-anchor: end; visibility: inherit; font-family: Roboto, sans-serif; font-size: 12px; font-weight: 200;" fill="rgb(50, 49, 63)" stroke="none" stroke-width="1px">-100</text><text x="0" y="35.39999999999999" dx="0em" dy="0.3em" style="text-anchor: end; visibility: hidden; font-family: Roboto, sans-serif; font-size: 12px; font-weight: 200;" fill="rgb(50, 49, 63)" stroke="none" stroke-width="1px">-50</text><text x="0" y="17.699999999999996" dx="0em" dy="0.3em" style="text-anchor: end; visibility: inherit; font-family: Roboto, sans-serif; font-size: 12px; font-weight: 200;" fill="rgb(50, 49, 63)" stroke="none" stroke-width="1px">0</text><text x="0" y="0" dx="0em" dy="0.3em" style="text-anchor: end; visibility: hidden; font-family: Roboto, sans-serif; font-size: 12px; font-weight: 200;" fill="rgb(50, 49, 63)" stroke="none" stroke-width="1px">50</text></g><line x1="53.1875" y1="0" x2="53.1875" y2="177" fill="rgb(0, 0, 0)" stroke="rgb(204, 204, 204)" stroke-width="1px"></line></g></g><g transform="translate(53, 0)" clip-path="url(#clip_0)"><clipPath id="clip_0"><rect width="276" height="177"></rect></clipPath><g><g><g><line x1="0" y1="0" x2="0" y2="177" fill="rgb(0, 0, 0)" stroke="rgb(60, 60, 60)" stroke-width="1px" opacity="0.25"></line><line x1="25.164772727272727" y1="0" x2="25.164772727272727" y2="177" fill="rgb(0, 0, 0)" stroke="rgb(60, 60, 60)" stroke-width="1px" opacity="0.25"></line><line x1="50.32954545454545" y1="0" x2="50.32954545454545" y2="177" fill="rgb(0, 0, 0)" stroke="rgb(60, 60, 60)" stroke-width="1px" opacity="0.25"></line><line x1="75.49431818181817" y1="0" x2="75.49431818181817" y2="177" fill="rgb(0, 0, 0)" stroke="rgb(60, 60, 60)" stroke-width="1px" opacity="0.25"></line><line x1="100.6590909090909" y1="0" x2="100.6590909090909" y2="177" fill="rgb(0, 0, 0)" stroke="rgb(60, 60, 60)" stroke-width="1px" opacity="0.25"></line><line x1="125.82386363636363" y1="0" x2="125.82386363636363" y2="177" fill="rgb(0, 0, 0)" stroke="rgb(60, 60, 60)" stroke-width="1px" opacity="0.25"></line><line x1="150.98863636363635" y1="0" x2="150.98863636363635" y2="177" fill="rgb(0, 0, 0)" stroke="rgb(60, 60, 60)" stroke-width="1px" opacity="0.25"></line><line x1="176.1534090909091" y1="0" x2="176.1534090909091" y2="177" fill="rgb(0, 0, 0)" stroke="rgb(60, 60, 60)" stroke-width="1px" opacity="0.25"></line><line x1="201.3181818181818" y1="0" x2="201.3181818181818" y2="177" fill="rgb(0, 0, 0)" stroke="rgb(60, 60, 60)" stroke-width="1px" opacity="0.25"></line><line x1="226.48295454545456" y1="0" x2="226.48295454545456" y2="177" fill="rgb(0, 0, 0)" stroke="rgb(60, 60, 60)" stroke-width="1px" opacity="0.25"></line><line x1="251.64772727272725" y1="0" x2="251.64772727272725" y2="177" fill="rgb(0, 0, 0)" stroke="rgb(60, 60, 60)" stroke-width="1px" opacity="0.25"></line><line x1="276.8125" y1="0" x2="276.8125" y2="177" fill="rgb(0, 0, 0)" stroke="rgb(60, 60, 60)" stroke-width="1px" opacity="0.25"></line></g><g><line x1="0" y1="177" x2="276.8125" y2="177" fill="rgb(0, 0, 0)" stroke="rgb(60, 60, 60)" stroke-width="1px" opacity="0.25"></line><line x1="0" y1="159.3" x2="276.8125" y2="159.3" fill="rgb(0, 0, 0)" stroke="rgb(60, 60, 60)" stroke-width="1px" opacity="0.25"></line><line x1="0" y1="141.6" x2="276.8125" y2="141.6" fill="rgb(0, 0, 0)" stroke="rgb(60, 60, 60)" stroke-width="1px" opacity="0.25"></line><line x1="0" y1="123.89999999999999" x2="276.8125" y2="123.89999999999999" fill="rgb(0, 0, 0)" stroke="rgb(60, 60, 60)" stroke-width="1px" opacity="0.25"></line><line x1="0" y1="106.2" x2="276.8125" y2="106.2" fill="rgb(0, 0, 0)" stroke="rgb(60, 60, 60)" stroke-width="1px" opacity="0.25"></line><line x1="0" y1="88.5" x2="276.8125" y2="88.5" fill="rgb(0, 0, 0)" stroke="rgb(60, 60, 60)" stroke-width="1px" opacity="0.25"></line><line x1="0" y1="70.8" x2="276.8125" y2="70.8" fill="rgb(0, 0, 0)" stroke="rgb(60, 60, 60)" stroke-width="1px" opacity="0.25"></line><line x1="0" y1="53.10000000000001" x2="276.8125" y2="53.10000000000001" fill="rgb(0, 0, 0)" stroke="rgb(60, 60, 60)" stroke-width="1px" opacity="0.25"></line><line x1="0" y1="35.39999999999999" x2="276.8125" y2="35.39999999999999" fill="rgb(0, 0, 0)" stroke="rgb(60, 60, 60)" stroke-width="1px" opacity="0.25"></line><line x1="0" y1="17.699999999999996" x2="276.8125" y2="17.699999999999996" fill="rgb(0, 0, 0)" stroke="rgb(60, 60, 60)" stroke-width="1px" opacity="0.25"></line><line x1="0" y1="0" x2="276.8125" y2="0" fill="rgb(0, 0, 0)" stroke="rgb(60, 60, 60)" stroke-width="1px" opacity="0.25"></line></g></g></g><g><g><line x1="0" y1="17.699999999999996" x2="276.8125" y2="17.699999999999996" fill="rgb(0, 0, 0)" stroke="rgb(153, 153, 153)" stroke-width="1.5px"></line></g></g><g><g><line x1="25.164772727272727" y1="0" x2="25.164772727272727" y2="177" fill="rgb(0, 0, 0)" stroke="rgb(153, 153, 153)" stroke-width="1.5px"></line></g></g><g><g><g><g><g><path stroke="rgb(0, 153, 136)" stroke-width="2px" d="M25.164772727272727,158.238L26.423011363636366,53.10000000000001L27.681250000000002,53.10000000000001L28.939488636363635,53.10000000000001L30.19772727272727,53.10000000000001L31.455965909090907,53.10000000000001L32.71420454545454,53.10000000000001L33.97244318181818,53.10000000000001L35.230681818181814,53.10000000000001L36.48892045454545,53.10000000000001L37.747159090909086,53.10000000000001L39.00539772727272,53.10000000000001L40.26363636363636,53.10000000000001L41.521875,53.10000000000001L42.78011363636364,53.10000000000001L44.03835227272727,53.10000000000001L45.29659090909091,53.10000000000001L46.554829545454545,53.10000000000001L47.81306818181818,53.10000000000001L49.07130681818182,53.10000000000001L50.32954545454545,53.10000000000001L51.58778409090909,53.10000000000001L52.84602272727273,53.10000000000001L54.10426136363637,53.10000000000001L55.362500000000004,53.10000000000001L56.62073863636364,53.10000000000001L57.87897727272727,53.10000000000001L59.137215909090905,53.10000000000001L60.39545454545454,53.10000000000001L61.65369318181818,53.10000000000001L62.91193181818181,53.10000000000001L64.17017045454546,53.10000000000001L65.42840909090908,53.10000000000001L66.68664772727273,53.10000000000001L67.94488636363636,53.10000000000001L69.203125,53.10000000000001L70.46136363636363,53.10000000000001L71.71960227272727,53.10000000000001L72.9778409090909,53.10000000000001L74.23607954545454,53.10000000000001L75.49431818181817,53.10000000000001L76.75255681818182,53.10000000000001L78.01079545454544,53.10000000000001L79.26903409090909,53.10000000000001L80.52727272727272,53.10000000000001L81.78551136363637,53.10000000000001L83.04375,53.10000000000001L84.30198863636365,53.10000000000001L85.56022727272727,53.10000000000001L86.81846590909092,53.10000000000001L88.07670454545455,53.10000000000001L89.33494318181819,53.10000000000001L90.59318181818182,53.10000000000001L91.85142045454546,53.10000000000001L93.10965909090909,53.10000000000001L94.36789772727272,53.10000000000001L95.62613636363636,22.302L96.88437499999999,53.10000000000001L98.14261363636363,53.10000000000001L99.40085227272726,53.10000000000001L100.6590909090909,53.10000000000001L101.91732954545454,53.10000000000001L103.17556818181818,53.10000000000001L104.43380681818182,53.10000000000001L105.69204545454546,22.302L106.9502840909091,53.10000000000001L108.20852272727274,22.302L109.46676136363637,22.302L110.72500000000001,53.10000000000001L111.98323863636364,22.302L113.24147727272728,22.302L114.49971590909091,22.302L115.75795454545454,22.302L117.01619318181818,22.302L118.27443181818181,22.302L119.53267045454545,22.302L120.79090909090908,22.302L122.04914772727273,22.302L123.30738636363635,22.302L124.565625,22.302L125.82386363636363,22.302L127.08210227272728,22.302L128.3403409090909,22.302L129.59857954545456,22.302L130.85681818181817,22.302L132.1150568181818,22.302L133.37329545454546,22.302L134.6315340909091,22.302L135.8897727272727,22.302L137.14801136363636,22.302L138.40625,22.302L139.66448863636364,22.302L140.92272727272726,22.302L142.18096590909093,22.302L143.43920454545454,22.302L144.6974431818182,22.302L145.9556818181818,22.302L147.21392045454547,22.302L148.4721590909091,22.302L149.73039772727273,22.302L150.98863636363635,22.302L152.24687500000002,22.302L153.50511363636363,22.302L154.76335227272727,22.302L156.0215909090909,22.302L157.27982954545456,22.302L158.53806818181818,22.302L159.79630681818182,22.302L161.05454545454543,22.302L162.31278409090908,22.302L163.57102272727275,22.302L164.82926136363636,22.302L166.0875,22.302L167.34573863636362,22.302L168.6039772727273,22.302L169.8622159090909,22.302L171.12045454545455,22.302L172.37869318181816,22.302L173.63693181818184,22.302L174.89517045454545,22.302L176.1534090909091,22.302L177.4116477272727,22.302L178.66988636363638,22.302L179.928125,22.302L181.18636363636364,22.302L182.44460227272725,22.302L183.70284090909092,22.302L184.96107954545457,22.302L186.21931818181818,22.302L187.47755681818182,22.302L188.73579545454544,22.302L189.9940340909091,22.302L191.25227272727273,22.302L192.51051136363637,22.302L193.76874999999998,22.302L195.02698863636365,22.302L196.28522727272727,22.302L197.5434659090909,22.302L198.80170454545453,22.302L200.0599431818182,22.302L201.3181818181818,22.302L202.57642045454546,22.302L203.83465909090907,22.302L205.09289772727274,22.302L206.35113636363636,22.302L207.609375,22.302L208.86761363636364,22.302L210.12585227272726,22.302L211.38409090909093,22.302L212.64232954545454,22.302L213.9005681818182,22.302L215.1588068181818,22.302L216.41704545454547,22.302L217.6752840909091,22.302L218.93352272727273,22.302L220.19176136363635,22.302L221.45000000000002,22.302L222.70823863636363,22.302L223.96647727272727,22.302L225.2247159090909,22.302L226.48295454545456,22.302L227.74119318181818,22.302L228.99943181818182,22.302L230.25767045454543,22.302L231.51590909090908,22.302L232.77414772727275,22.302L234.03238636363636,22.302L235.290625,22.302L236.54886363636362,22.302L237.8071022727273,22.302L239.0653409090909,22.302L240.32357954545455,22.302L241.58181818181816,22.302L242.84005681818184,22.302L244.09829545454545,22.302L245.3565340909091,22.302L246.6147727272727,22.302L247.87301136363638,22.302L249.13125,22.302L250.38948863636364,22.302L251.64772727272725,22.302L252.90596590909092,22.302L254.16420454545457,22.302L255.42244318181818,22.302L256.6806818181818,22.302L257.93892045454544,22.302L259.1971590909091,22.302L260.4553977272727,22.302L261.71363636363634,22.302L262.971875,22.302" style="fill: none;" fill="none"></path></g></g></g></g></g></g><g transform="translate(53, 177)" clip-path="url(#clip_1)"><clipPath id="clip_1"><rect width="276" height="23"></rect></clipPath><g><g><line x1="0" y1="0" x2="0" y2="5" style="visibility: inherit;" fill="rgb(0, 0, 0)" stroke="rgb(204, 204, 204)" stroke-width="1px"></line><line x1="25.164772727272727" y1="0" x2="25.164772727272727" y2="5" style="visibility: inherit;" fill="rgb(0, 0, 0)" stroke="rgb(204, 204, 204)" stroke-width="1px"></line><line x1="50.32954545454545" y1="0" x2="50.32954545454545" y2="5" style="visibility: inherit;" fill="rgb(0, 0, 0)" stroke="rgb(204, 204, 204)" stroke-width="1px"></line><line x1="75.49431818181817" y1="0" x2="75.49431818181817" y2="5" style="visibility: inherit;" fill="rgb(0, 0, 0)" stroke="rgb(204, 204, 204)" stroke-width="1px"></line><line x1="100.6590909090909" y1="0" x2="100.6590909090909" y2="5" style="visibility: inherit;" fill="rgb(0, 0, 0)" stroke="rgb(204, 204, 204)" stroke-width="1px"></line><line x1="125.82386363636363" y1="0" x2="125.82386363636363" y2="5" style="visibility: inherit;" fill="rgb(0, 0, 0)" stroke="rgb(204, 204, 204)" stroke-width="1px"></line><line x1="150.98863636363635" y1="0" x2="150.98863636363635" y2="5" style="visibility: inherit;" fill="rgb(0, 0, 0)" stroke="rgb(204, 204, 204)" stroke-width="1px"></line><line x1="176.1534090909091" y1="0" x2="176.1534090909091" y2="5" style="visibility: inherit;" fill="rgb(0, 0, 0)" stroke="rgb(204, 204, 204)" stroke-width="1px"></line><line x1="201.3181818181818" y1="0" x2="201.3181818181818" y2="5" style="visibility: inherit;" fill="rgb(0, 0, 0)" stroke="rgb(204, 204, 204)" stroke-width="1px"></line><line x1="226.48295454545456" y1="0" x2="226.48295454545456" y2="5" style="visibility: inherit;" fill="rgb(0, 0, 0)" stroke="rgb(204, 204, 204)" stroke-width="1px"></line><line x1="251.64772727272725" y1="0" x2="251.64772727272725" y2="5" style="visibility: inherit;" fill="rgb(0, 0, 0)" stroke="rgb(204, 204, 204)" stroke-width="1px"></line><line x1="276.8125" y1="0" x2="276.8125" y2="5" style="visibility: inherit;" fill="rgb(0, 0, 0)" stroke="rgb(204, 204, 204)" stroke-width="1px"></line></g><g transform="translate(0, 8)"><text x="0" y="0" dx="0em" dy="0.95em" style="text-anchor: middle; visibility: hidden; font-family: Roboto, sans-serif; font-size: 12px; font-weight: 200;" fill="rgb(50, 49, 63)" stroke="none" stroke-width="1px">-2k</text><text x="25.164772727272727" y="0" dx="0em" dy="0.95em" style="text-anchor: middle; visibility: inherit; font-family: Roboto, sans-serif; font-size: 12px; font-weight: 200;" fill="rgb(50, 49, 63)" stroke="none" stroke-width="1px">0</text><text x="50.32954545454545" y="0" dx="0em" dy="0.95em" style="text-anchor: middle; visibility: hidden; font-family: Roboto, sans-serif; font-size: 12px; font-weight: 200;" fill="rgb(50, 49, 63)" stroke="none" stroke-width="1px">2k</text><text x="75.49431818181817" y="0" dx="0em" dy="0.95em" style="text-anchor: middle; visibility: inherit; font-family: Roboto, sans-serif; font-size: 12px; font-weight: 200;" fill="rgb(50, 49, 63)" stroke="none" stroke-width="1px">4k</text><text x="100.6590909090909" y="0" dx="0em" dy="0.95em" style="text-anchor: middle; visibility: hidden; font-family: Roboto, sans-serif; font-size: 12px; font-weight: 200;" fill="rgb(50, 49, 63)" stroke="none" stroke-width="1px">6k</text><text x="125.82386363636363" y="0" dx="0em" dy="0.95em" style="text-anchor: middle; visibility: inherit; font-family: Roboto, sans-serif; font-size: 12px; font-weight: 200;" fill="rgb(50, 49, 63)" stroke="none" stroke-width="1px">8k</text><text x="150.98863636363635" y="0" dx="0em" dy="0.95em" style="text-anchor: middle; visibility: hidden; font-family: Roboto, sans-serif; font-size: 12px; font-weight: 200;" fill="rgb(50, 49, 63)" stroke="none" stroke-width="1px">10k</text><text x="176.1534090909091" y="0" dx="0em" dy="0.95em" style="text-anchor: middle; visibility: inherit; font-family: Roboto, sans-serif; font-size: 12px; font-weight: 200;" fill="rgb(50, 49, 63)" stroke="none" stroke-width="1px">12k</text><text x="201.3181818181818" y="0" dx="0em" dy="0.95em" style="text-anchor: middle; visibility: hidden; font-family: Roboto, sans-serif; font-size: 12px; font-weight: 200;" fill="rgb(50, 49, 63)" stroke="none" stroke-width="1px">14k</text><text x="226.48295454545456" y="0" dx="0em" dy="0.95em" style="text-anchor: middle; visibility: inherit; font-family: Roboto, sans-serif; font-size: 12px; font-weight: 200;" fill="rgb(50, 49, 63)" stroke="none" stroke-width="1px">16k</text><text x="251.64772727272725" y="0" dx="0em" dy="0.95em" style="text-anchor: middle; visibility: hidden; font-family: Roboto, sans-serif; font-size: 12px; font-weight: 200;" fill="rgb(50, 49, 63)" stroke="none" stroke-width="1px">18k</text><text x="276.8125" y="0" dx="0em" dy="0.95em" style="text-anchor: middle; visibility: hidden; font-family: Roboto, sans-serif; font-size: 12px; font-weight: 200;" fill="rgb(50, 49, 63)" stroke="none" stroke-width="1px">20k</text></g><line x1="0" y1="0" x2="276.8125" y2="0" fill="rgb(0, 0, 0)" stroke="rgb(204, 204, 204)" stroke-width="1px"></line></g></g></g></g></svg>