<svg viewBox="0 0 330 200.00001525878906" xmlns="http://www.w3.org/2000/svg"><g><g><g><g><g><line x1="53.1875" y1="177" x2="48.1875" y2="177" style="visibility: inherit;" fill="rgb(0, 0, 0)" stroke="rgb(204, 204, 204)" stroke-width="1px"></line><line x1="53.1875" y1="162.25" x2="48.1875" y2="162.25" style="visibility: inherit;" fill="rgb(0, 0, 0)" stroke="rgb(204, 204, 204)" stroke-width="1px"></line><line x1="53.1875" y1="147.5" x2="48.1875" y2="147.5" style="visibility: inherit;" fill="rgb(0, 0, 0)" stroke="rgb(204, 204, 204)" stroke-width="1px"></line><line x1="53.1875" y1="132.75" x2="48.1875" y2="132.75" style="visibility: inherit;" fill="rgb(0, 0, 0)" stroke="rgb(204, 204, 204)" stroke-width="1px"></line><line x1="53.1875" y1="118.00000000000001" x2="48.1875" y2="118.00000000000001" style="visibility: inherit;" fill="rgb(0, 0, 0)" stroke="rgb(204, 204, 204)" stroke-width="1px"></line><line x1="53.1875" y1="103.24999999999999" x2="48.1875" y2="103.24999999999999" style="visibility: inherit;" fill="rgb(0, 0, 0)" stroke="rgb(204, 204, 204)" stroke-width="1px"></line><line x1="53.1875" y1="88.5" x2="48.1875" y2="88.5" style="visibility: inherit;" fill="rgb(0, 0, 0)" stroke="rgb(204, 204, 204)" stroke-width="1px"></line><line x1="53.1875" y1="73.75" x2="48.1875" y2="73.75" style="visibility: inherit;" fill="rgb(0, 0, 0)" stroke="rgb(204, 204, 204)" stroke-width="1px"></line><line x1="53.1875" y1="59.00000000000001" x2="48.1875" y2="59.00000000000001" style="visibility: inherit;" fill="rgb(0, 0, 0)" stroke="rgb(204, 204, 204)" stroke-width="1px"></line><line x1="53.1875" y1="44.25" x2="48.1875" y2="44.25" style="visibility: inherit;" fill="rgb(0, 0, 0)" stroke="rgb(204, 204, 204)" stroke-width="1px"></line><line x1="53.1875" y1="29.499999999999993" x2="48.1875" y2="29.499999999999993" style="visibility: inherit;" fill="rgb(0, 0, 0)" stroke="rgb(204, 204, 204)" stroke-width="1px"></line><line x1="53.1875" y1="14.750000000000007" x2="48.1875" y2="14.750000000000007" style="visibility: inherit;" fill="rgb(0, 0, 0)" stroke="rgb(204, 204, 204)" stroke-width="1px"></line><line x1="53.1875" y1="0" x2="48.1875" y2="0" style="visibility: inherit;" fill="rgb(0, 0, 0)" stroke="rgb(204, 204, 204)" stroke-width="1px"></line></g><g transform="translate(43.1875, 0)"><text x="0" y="177" dx="0em" dy="0.3em" style="text-anchor: end; visibility: hidden; font-family: Roboto, sans-serif; font-size: 12px; font-weight: 200;" fill="rgb(50, 49, 63)" stroke="none" stroke-width="1px">-800</text><text x="0" y="162.25" dx="0em" dy="0.3em" style="text-anchor: end; visibility: inherit; font-family: Roboto, sans-serif; font-size: 12px; font-weight: 200;" fill="rgb(50, 49, 63)" stroke="none" stroke-width="1px">-700</text><text x="0" y="147.5" dx="0em" dy="0.3em" style="text-anchor: end; visibility: hidden; font-family: Roboto, sans-serif; font-size: 12px; font-weight: 200;" fill="rgb(50, 49, 63)" stroke="none" stroke-width="1px">-600</text><text x="0" y="132.75" dx="0em" dy="0.3em" style="text-anchor: end; visibility: inherit; font-family: Roboto, sans-serif; font-size: 12px; font-weight: 200;" fill="rgb(50, 49, 63)" stroke="none" stroke-width="1px">-500</text><text x="0" y="118.00000000000001" dx="0em" dy="0.3em" style="text-anchor: end; visibility: hidden; font-family: Roboto, sans-serif; font-size: 12px; font-weight: 200;" fill="rgb(50, 49, 63)" stroke="none" stroke-width="1px">-400</text><text x="0" y="103.24999999999999" dx="0em" dy="0.3em" style="text-anchor: end; visibility: inherit; font-family: Roboto, sans-serif; font-size: 12px; font-weight: 200;" fill="rgb(50, 49, 63)" stroke="none" stroke-width="1px">-300</text><text x="0" y="88.5" dx="0em" dy="0.3em" style="text-anchor: end; visibility: hidden; font-family: Roboto, sans-serif; font-size: 12px; font-weight: 200;" fill="rgb(50, 49, 63)" stroke="none" stroke-width="1px">-200</text><text x="0" y="73.75" dx="0em" dy="0.3em" style="text-anchor: end; visibility: inherit; font-family: Roboto, sans-serif; font-size: 12px; font-weight: 200;" fill="rgb(50, 49, 63)" stroke="none" stroke-width="1px">-100</text><text x="0" y="59.00000000000001" dx="0em" dy="0.3em" style="text-anchor: end; visibility: hidden; font-family: Roboto, sans-serif; font-size: 12px; font-weight: 200;" fill="rgb(50, 49, 63)" stroke="none" stroke-width="1px">0</text><text x="0" y="44.25" dx="0em" dy="0.3em" style="text-anchor: end; visibility: inherit; font-family: Roboto, sans-serif; font-size: 12px; font-weight: 200;" fill="rgb(50, 49, 63)" stroke="none" stroke-width="1px">100</text><text x="0" y="29.499999999999993" dx="0em" dy="0.3em" style="text-anchor: end; visibility: hidden; font-family: Roboto, sans-serif; font-size: 12px; font-weight: 200;" fill="rgb(50, 49, 63)" stroke="none" stroke-width="1px">200</text><text x="0" y="14.750000000000007" dx="0em" dy="0.3em" style="text-anchor: end; visibility: inherit; font-family: Roboto, sans-serif; font-size: 12px; font-weight: 200;" fill="rgb(50, 49, 63)" stroke="none" stroke-width="1px">300</text><text x="0" y="0" dx="0em" dy="0.3em" style="text-anchor: end; visibility: hidden; font-family: Roboto, sans-serif; font-size: 12px; font-weight: 200;" fill="rgb(50, 49, 63)" stroke="none" stroke-width="1px">400</text></g><line x1="53.1875" y1="0" x2="53.1875" y2="177" fill="rgb(0, 0, 0)" stroke="rgb(204, 204, 204)" stroke-width="1px"></line></g></g><g transform="translate(53, 0)" clip-path="url(#clip_0)"><clipPath id="clip_0"><rect width="276" height="177"></rect></clipPath><g><g><g><line x1="0" y1="0" x2="0" y2="177" fill="rgb(0, 0, 0)" stroke="rgb(60, 60, 60)" stroke-width="1px" opacity="0.25"></line><line x1="39.544642857142854" y1="0" x2="39.544642857142854" y2="177" fill="rgb(0, 0, 0)" stroke="rgb(60, 60, 60)" stroke-width="1px" opacity="0.25"></line><line x1="79.08928571428571" y1="0" x2="79.08928571428571" y2="177" fill="rgb(0, 0, 0)" stroke="rgb(60, 60, 60)" stroke-width="1px" opacity="0.25"></line><line x1="118.63392857142857" y1="0" x2="118.63392857142857" y2="177" fill="rgb(0, 0, 0)" stroke="rgb(60, 60, 60)" stroke-width="1px" opacity="0.25"></line><line x1="158.17857142857142" y1="0" x2="158.17857142857142" y2="177" fill="rgb(0, 0, 0)" stroke="rgb(60, 60, 60)" stroke-width="1px" opacity="0.25"></line><line x1="197.72321428571428" y1="0" x2="197.72321428571428" y2="177" fill="rgb(0, 0, 0)" stroke="rgb(60, 60, 60)" stroke-width="1px" opacity="0.25"></line><line x1="237.26785714285714" y1="0" x2="237.26785714285714" y2="177" fill="rgb(0, 0, 0)" stroke="rgb(60, 60, 60)" stroke-width="1px" opacity="0.25"></line><line x1="276.8125" y1="0" x2="276.8125" y2="177" fill="rgb(0, 0, 0)" stroke="rgb(60, 60, 60)" stroke-width="1px" opacity="0.25"></line></g><g><line x1="0" y1="177" x2="276.8125" y2="177" fill="rgb(0, 0, 0)" stroke="rgb(60, 60, 60)" stroke-width="1px" opacity="0.25"></line><line x1="0" y1="162.25" x2="276.8125" y2="162.25" fill="rgb(0, 0, 0)" stroke="rgb(60, 60, 60)" stroke-width="1px" opacity="0.25"></line><line x1="0" y1="147.5" x2="276.8125" y2="147.5" fill="rgb(0, 0, 0)" stroke="rgb(60, 60, 60)" stroke-width="1px" opacity="0.25"></line><line x1="0" y1="132.75" x2="276.8125" y2="132.75" fill="rgb(0, 0, 0)" stroke="rgb(60, 60, 60)" stroke-width="1px" opacity="0.25"></line><line x1="0" y1="118.00000000000001" x2="276.8125" y2="118.00000000000001" fill="rgb(0, 0, 0)" stroke="rgb(60, 60, 60)" stroke-width="1px" opacity="0.25"></line><line x1="0" y1="103.24999999999999" x2="276.8125" y2="103.24999999999999" fill="rgb(0, 0, 0)" stroke="rgb(60, 60, 60)" stroke-width="1px" opacity="0.25"></line><line x1="0" y1="88.5" x2="276.8125" y2="88.5" fill="rgb(0, 0, 0)" stroke="rgb(60, 60, 60)" stroke-width="1px" opacity="0.25"></line><line x1="0" y1="73.75" x2="276.8125" y2="73.75" fill="rgb(0, 0, 0)" stroke="rgb(60, 60, 60)" stroke-width="1px" opacity="0.25"></line><line x1="0" y1="59.00000000000001" x2="276.8125" y2="59.00000000000001" fill="rgb(0, 0, 0)" stroke="rgb(60, 60, 60)" stroke-width="1px" opacity="0.25"></line><line x1="0" y1="44.25" x2="276.8125" y2="44.25" fill="rgb(0, 0, 0)" stroke="rgb(60, 60, 60)" stroke-width="1px" opacity="0.25"></line><line x1="0" y1="29.499999999999993" x2="276.8125" y2="29.499999999999993" fill="rgb(0, 0, 0)" stroke="rgb(60, 60, 60)" stroke-width="1px" opacity="0.25"></line><line x1="0" y1="14.750000000000007" x2="276.8125" y2="14.750000000000007" fill="rgb(0, 0, 0)" stroke="rgb(60, 60, 60)" stroke-width="1px" opacity="0.25"></line><line x1="0" y1="0" x2="276.8125" y2="0" fill="rgb(0, 0, 0)" stroke="rgb(60, 60, 60)" stroke-width="1px" opacity="0.25"></line></g></g></g><g><g><line x1="0" y1="59.00000000000001" x2="276.8125" y2="59.00000000000001" fill="rgb(0, 0, 0)" stroke="rgb(153, 153, 153)" stroke-width="1.5px"></line></g></g><g><g><line x1="39.544642857142854" y1="0" x2="39.544642857142854" y2="177" fill="rgb(0, 0, 0)" stroke="rgb(153, 153, 153)" stroke-width="1.5px"></line></g></g><g><g><g><g><g><path stroke="rgb(204, 51, 17)" stroke-width="2px" d="M39.544642857142854,140.8625L40.33553571428571,147.60921240708979L41.126428571428576,139.64418883909573L41.917321428571434,165.21229655701703L42.708214285714284,139.14675710828877L43.49910714285714,135.26359464107617L44.29,115.16680781620289L45.08089285714286,100.75180813277522L45.871785714285714,96.51042511476714L46.66267857142857,85.67893849393006L47.45357142857143,79.42569362781443L48.24446428571429,74.74530158677138L49.03535714285714,69.37198312039952L49.82625,64.87588411768705L50.61714285714286,62.93129567810478L51.40803571428572,62.27126748884784L52.198928571428574,66.55373096699299L52.989821428571425,64.08884041494555L53.78071428571428,57.5644726441772L54.57160714285715,58.6315122181111L55.362500000000004,62.917457230634824L56.153392857142855,64.08350029463386L56.94428571428571,63.10244888138439L57.73517857142857,65.62934977941819L58.526071428571434,63.96417097446677L59.316964285714285,58.716873421554446L60.10785714285714,62.78803055987611L60.89875,61.022199831892216L61.68964285714286,64.8841673441467L62.48053571428571,56.77882316466222L63.27142857142857,58.66939150694805L64.06232142857142,59.715059888324774L64.85321428571429,60.83144784138807L65.64410714285715,61.926758578350906L66.435,58.859600624329936L67.22589285714285,58.857818313631206L68.01678571428572,56.70912966397717L68.80767857142857,58.839119316484826L69.59857142857143,59.36079950846236L70.38946428571428,59.159169409507754L71.18035714285713,53.75091676779L71.97125,53.43944499315127L72.76214285714285,48.06000524947661L73.55303571428573,42.883113398366966L74.34392857142858,39.375854053136415L75.13482142857143,35.97144645513228L75.92571428571429,33.12536730656383L76.71660714285714,36.62108091374986L77.50750000000001,40.0908870586231L78.29839285714286,43.39319865638852L79.08928571428571,42.60864798232454L79.88017857142857,41.095456889034786L80.67107142857142,42.62769755097259L81.46196428571427,41.33186024962133L82.25285714285715,44.58184373283093L83.04375,42.20315573339587L83.83464285714287,37.23758329643072L84.62553571428572,37.738934915334625L85.41642857142857,35.04157964557109L86.20732142857143,31.466315549283944L86.99821428571428,31.82428785430664L87.78910714285713,29.722969068172862L88.58,27.92694630984547L89.37089285714285,28.28476028938931L90.16178571428571,29.73748296683354L90.95267857142858,31.38090975070013L91.74357142857143,32.9080164092194L92.5344642857143,38.235361806039016L93.32535714285714,42.74385850256962L94.11625000000001,45.15813752237389L94.90714285714286,44.44890250338908L95.69803571428571,46.50926047692918L96.48892857142857,44.202128595634164L97.27982142857142,41.25234431661138L98.07071428571427,43.078408393846054L98.86160714285714,42.18775788673345L99.6525,39.66953565661863L100.44339285714287,42.67035720729356L101.23428571428572,43.4740950483604L102.02517857142857,43.113509691189186L102.81607142857143,43.99112875876044L103.60696428571428,39.72447294009401L104.39785714285715,38.453917732081884L105.18875,39.09423938134764L105.97964285714285,40.79558279666584L106.77053571428571,38.84893151467149L107.56142857142856,42.7961747045364L108.35232142857141,40.68057735367871L109.1432142857143,39.83644493789966L109.93410714285714,40.31486475848924L110.72500000000001,43.82011370412172L111.51589285714286,42.002845164382016L112.30678571428571,37.05052852811163L113.09767857142857,37.450740867556235L113.88857142857142,39.786737409802406L114.67946428571429,39.94443131994213L115.47035714285714,34.99046155863335L116.26124999999999,36.8333132074173L117.05214285714287,34.99265159235488L117.84303571428572,33.31781604267333L118.63392857142857,43.35522671596442L119.42482142857143,40.543969810256925L120.21571428571428,38.03109088788213L121.00660714285715,43.294287075024194L121.7975,42.31242851919304L122.58839285714285,38.319036460875395L123.37928571428571,35.21691830919556L124.17017857142856,37.965514313587555L124.96107142857142,38.76544772087709L125.7519642857143,34.07038034293685L126.54285714285714,33.3304623768597L127.33375000000001,32.3319938202679L128.12464285714285,36.36004337138069L128.9155357142857,33.15727248516411L129.70642857142857,37.12626709138795L130.49732142857144,37.87769405144956L131.2882142857143,35.182532844535714L132.07910714285714,32.38638460055725L132.87,35.84544456581738L133.66089285714287,32.179477979797205L134.4517857142857,32.321424006868114L135.24267857142857,32.90903408114422L136.03357142857143,32.497636526777015L136.82446428571427,34.595962258555986L137.61535714285714,32.46535823165844L138.40625,29.75886081551217L139.19714285714286,30.54540425081861L139.9880357142857,30.727277783863137L140.77892857142857,28.60512856011351L141.56982142857143,27.348841291525005L142.36071428571427,29.554794627352237L143.15160714285713,27.76396117588681L143.9425,27.12605442073923L144.73339285714286,26.42612726113369L145.5242857142857,26.494241818589128L146.31517857142856,26.138012122123254L147.10607142857145,24.131138579470324L147.8969642857143,25.034452796023274L148.68785714285715,24.56333764422143L149.47875000000002,23.76620239552184L150.26964285714286,26.834375594245852L151.06053571428572,25.05996232009017L151.85142857142858,27.211041777747525L152.64232142857142,26.0084902915329L153.43321428571429,27.77339922835814L154.22410714285715,25.985426022040258L155.01500000000001,25.60881909050815L155.80589285714285,28.99196799879059L156.59678571428572,27.897741531094155L157.38767857142858,27.152210906789513L158.17857142857142,26.519763469185364L158.96946428571428,25.305610338419836L159.76035714285715,25.617952143476447L160.55124999999998,24.445041155463848L161.34214285714285,25.380633325442435L162.1330357142857,25.748189360756403L162.92392857142855,27.06011883120653L163.7148214285714,25.85842650457368L164.5057142857143,24.736223951925684L165.29660714285717,24.228896739992358L166.0875,25.107673658254274L166.87839285714287,24.062842570032426L167.66928571428573,23.31728658495432L168.46017857142857,22.166505152130764L169.25107142857144,22.08204235894595L170.0419642857143,21.75962222685051L170.83285714285714,23.33223204791102L171.62375,22.807081803885357L172.41464285714287,22.376721771110137L173.2055357142857,25.423429606561466L173.99642857142857,23.63293877531457L174.78732142857143,22.6620861427106L175.57821428571427,22.78643502089024L176.36910714285713,21.954009830646797L177.16,21.626703363154462L177.95089285714286,21.23346081900268L178.7417857142857,21.56830465343304L179.53267857142856,21.52292268542133L180.32357142857143,21.192751591380567L181.11446428571426,20.76034094194406L181.90535714285716,20.436465365516092L182.69625000000002,20.490062558771537L183.48714285714286,22.71453435651989L184.27803571428572,22.788696233033374L185.0689285714286,22.548063478542023L185.85982142857142,21.849514545427972L186.6507142857143,22.325908894525554L187.44160714285715,21.349918261999647L188.23250000000002,22.54407127823773L189.02339285714285,24.06787438740006L189.81428571428572,22.839762916162645L190.60517857142858,22.475244924205807L191.39607142857142,22.054130948230164L192.18696428571428,22.8123690802244L192.97785714285715,21.973434441088077L193.76874999999998,22.122544896374983L194.55964285714285,21.71591362738485L195.3505357142857,21.115166806911237L196.14142857142855,20.776274938376528L196.9323214285714,20.55946742884402L197.72321428571428,20.32303360420419L198.51410714285717,20.59021466954892L199.305,20.23499578749215L200.09589285714287,20.080004344831618L200.88678571428574,21.740995754278874L201.67767857142857,21.393110819954888L202.46857142857144,21.206590004146204L203.2594642857143,20.659638413105494L204.05035714285714,22.32323167141604L204.84125,21.384935521890608L205.63214285714287,20.71917420589609L206.4230357142857,22.145688980216153L207.21392857142857,21.918361046181897L208.00482142857143,21.04466492359022L208.7957142857143,21.167739027769077L209.58660714285713,20.33435903179904L210.3775,19.78420241481748L211.16839285714286,19.853427608698293L211.9592857142857,19.942299778915018L212.75017857142856,19.157347534407375L213.54107142857143,19.383913303271125L214.33196428571426,19.553611064150058L215.12285714285713,19.49560218704838L215.91375,19.859401038099243L216.70464285714283,19.391436377536337L217.49553571428572,19.189020846774714L218.2864285714286,19.592749114234273L219.07732142857145,19.673006586561446L219.8682142857143,19.696096933334506L220.65910714285715,19.898504103067566L221.45000000000002,20.161174573197574L222.24089285714285,19.50639725532502L223.03178571428572,20.05259904423843L223.82267857142858,19.351029184134568L224.61357142857142,18.825553358916796L225.40446428571428,19.431579465828683L226.19535714285715,19.33015551990571L226.98624999999998,19.84654898440939L227.77714285714285,19.863102689322616L228.5680357142857,19.653366414302646L229.35892857142858,20.051611444312663L230.1498214285714,21.164391971790188L230.94071428571428,21.997864586870854L231.73160714285714,21.659550575566247L232.52249999999998,22.072558381099128L233.31339285714284,21.826563727443258L234.10428571428574,21.346133731854973L234.89517857142857,21.726741665159373L235.68607142857144,22.826312007204383L236.4769642857143,22.42814769339609L237.26785714285714,21.20436012235366L238.05875,21.36139573164292L238.84964285714287,20.997722903000536L239.64053571428573,20.762354454347406L240.43142857142857,23.029548486306197L241.22232142857143,22.284191816243368L242.0132142857143,22.947662170366264L242.80410714285713,22.81521896560434L243.595,22.271749005237638L244.38589285714286,22.938342504922996L245.1767857142857,23.622733536187333L245.96767857142856,22.95062241860433L246.75857142857143,22.076986191534637L247.54946428571427,21.08943015745944L248.34035714285713,20.97913318793713L249.13125,23.00680325776489L249.92214285714283,22.822493140065887L250.7130357142857,22.573377361909344L251.5039285714286,23.238307144070134L252.29482142857145,22.070327050908517L253.0857142857143,21.602757461130462L253.87660714285715,25.436090338386723L254.66750000000002,24.16073666345168L255.45839285714285,23.908924260925303L256.2492857142857,22.49857427143303L257.04017857142856,21.59031212930336L257.8310714285714,21.76154128484821L258.6219642857143,21.815746922351316L259.41285714285715,20.70864944484114L260.20375,20.619883434186008L260.9946428571429,20.775532692205314L261.78553571428574,20.48486648646178L262.5764285714286,21.08165249835989L263.3673214285714,20.899262721271548L264.1582142857143,20.2443377782324L264.94910714285714,21.567901495896052" style="fill: none;" fill="none"></path></g></g></g></g><g opacity="0.2"><g><g><g><path stroke="rgb(204, 51, 17)" stroke-width="2px" d="M39.544642857142854,140.8625L40.33553571428571,152.6625L41.126428571428576,129.21L41.917321428571434,209.45L42.708214285714284,85.845L43.49910714285714,126.40749999999998L44.29,65.78500000000001L45.08089285714286,63.42499999999999L45.871785714285714,85.1075L46.66267857142857,55.75499999999999L47.45357142857143,61.802499999999995L48.24446428571429,61.36L49.03535714285714,53.837500000000006L49.82625,51.772499999999994L50.61714285714286,57.230000000000004L51.40803571428572,60.3275L52.198928571428574,79.2075L52.989821428571425,56.787499999999994L53.78071428571428,38.2025L54.57160714285715,61.802499999999995L55.362500000000004,75.6675L56.153392857142855,67.555L56.94428571428571,60.17999999999999L57.73517857142857,73.16L58.526071428571434,59.00000000000001L59.316964285714285,43.06999999999999L60.10785714285714,74.93L60.89875,55.75499999999999L61.68964285714286,76.405L62.48053571428571,32.597500000000004L63.27142857142857,64.30999999999999L64.06232142857142,62.834999999999994L64.85321428571429,64.16250000000001L65.64410714285715,65.195L66.435,49.70750000000001L67.22589285714285,58.852500000000006L68.01678571428572,50.2975L68.80767857142857,65.195L69.59857142857143,60.91749999999999L70.38946428571428,58.5575L71.18035714285713,37.612500000000004L71.97125,52.50999999999999L72.76214285714285,32.00749999999999L73.55303571428573,27.435000000000006L74.34392857142858,28.91L75.13482142857143,25.812500000000007L75.92571428571429,24.6325L76.71660714285714,47.05250000000001L77.50750000000001,50.44500000000001L78.29839285714286,53.24749999999999L79.08928571428571,40.267500000000005L79.88017857142857,36.58L80.67107142857142,47.20000000000001L81.46196428571427,37.465L82.25285714285715,54.279999999999994L83.04375,35.105000000000004L83.83464285714287,22.420000000000005L84.62553571428572,39.235L85.41642857142857,26.992499999999996L86.20732142857143,20.79750000000001L86.99821428571428,32.89249999999999L87.78910714285713,23.45249999999999L88.58,22.567499999999992L89.37089285714285,29.35250000000001L90.16178571428571,34.0725L90.95267857142858,36.28499999999999L91.74357142857143,37.465L92.5344642857143,54.13249999999999L93.32535714285714,56.1975L94.11625000000001,52.36249999999999L94.90714285714286,42.332499999999996L95.69803571428571,52.6575L96.48892857142857,37.317499999999995L97.27982142857142,32.45L98.07071428571427,48.5275L98.86160714285714,39.53000000000001L99.6525,32.154999999999994L100.44339285714287,51.62499999999999L101.23428571428572,45.872499999999995L102.02517857142857,42.03750000000001L102.81607142857143,46.60999999999999L103.60696428571428,26.992499999999996L104.39785714285715,34.662499999999994L105.18875,41.005L105.97964285714285,45.872499999999995L106.77053571428571,33.04L107.56142857142856,54.575L108.35232142857141,34.36750000000001L109.1432142857143,37.317499999999995L109.93410714285714,41.7425L110.72500000000001,54.279999999999994L111.51589285714286,36.58L112.30678571428571,22.272500000000004L113.09767857142857,38.64500000000001L113.88857142857142,46.7575L114.67946428571429,40.415000000000006L115.47035714285714,20.207499999999996L116.26124999999999,42.332499999999996L117.05214285714287,29.499999999999993L117.84303571428572,28.320000000000004L118.63392857142857,73.3075L119.42482142857143,32.154999999999994L120.21571428571428,30.5325L121.00660714285715,59.00000000000001L121.7975,39.38250000000001L122.58839285714285,26.4025L123.37928571428571,25.95999999999999L124.17017857142856,46.167500000000004L124.96107142857142,41.15250000000001L125.7519642857143,20.05999999999999L126.54285714285714,31.12249999999999L127.33375000000001,29.35250000000001L128.12464285714285,48.379999999999995L128.9155357142857,23.599999999999994L129.70642857142857,48.96999999999999L130.49732142857144,40.120000000000005L131.2882142857143,27.139999999999997L132.07910714285714,24.042500000000004L132.87,46.167500000000004L133.66089285714287,21.24L134.4517857142857,32.74500000000001L135.24267857142857,34.662499999999994L136.03357142857143,31.269999999999996L136.82446428571427,40.8575L137.61535714285714,26.107499999999995L138.40625,21.682500000000008L139.19714285714286,32.89249999999999L139.9880357142857,31.269999999999996L140.77892857142857,22.272500000000004L141.56982142857143,23.599999999999994L142.36071428571427,36.13750000000001L143.15160714285713,22.420000000000005L143.9425,25.222499999999993L144.73339285714286,24.33749999999999L145.5242857142857,26.69750000000001L146.31517857142856,25.07500000000001L147.10607142857145,18.142500000000005L147.8969642857143,27.729999999999993L148.68785714285715,23.157500000000006L149.47875000000002,21.387500000000003L150.26964285714286,35.99000000000001L151.06053571428572,19.765000000000004L151.85142857142858,33.62999999999999L152.64232142857142,22.420000000000005L153.43321428571429,33.04L154.22410714285715,20.650000000000006L155.01500000000001,24.484999999999996L155.80589285714285,39.0875L156.59678571428572,24.6325L157.38767857142858,24.927500000000006L158.17857142857142,24.6325L158.96946428571428,21.682500000000008L159.76035714285715,26.550000000000004L160.55124999999998,20.944999999999993L161.34214285714285,28.172500000000003L162.1330357142857,26.84499999999999L162.92392857142855,30.97500000000001L163.7148214285714,22.272500000000004L164.5057142857143,21.387500000000003L165.29660714285717,22.714999999999993L166.0875,27.729999999999993L166.87839285714287,20.944999999999993L167.66928571428573,21.092499999999994L168.46017857142857,18.7325L169.25107142857144,21.829999999999995L170.0419642857143,20.79750000000001L170.83285714285714,28.025L171.62375,21.24L172.41464285714287,21.092499999999994L173.2055357142857,34.51499999999999L173.99642857142857,18.29000000000001L174.78732142857143,19.765000000000004L175.57821428571427,23.157500000000006L176.36910714285713,19.47L177.16,20.650000000000006L177.95089285714286,20.05999999999999L178.7417857142857,22.567499999999992L179.53267857142856,21.387500000000003L180.32357142857143,20.207499999999996L181.11446428571426,19.47L181.90535714285716,19.47L182.69625000000002,20.650000000000006L183.48714285714286,29.35250000000001L184.27803571428572,23.01L185.0689285714286,21.829999999999995L185.85982142857142,19.765000000000004L186.6507142857143,23.7475L187.44160714285715,18.437499999999993L188.23250000000002,26.107499999999995L189.02339285714285,28.61499999999999L189.81428571428572,19.17499999999999L190.60517857142858,21.387500000000003L191.39607142857142,20.79750000000001L192.18696428571428,25.07500000000001L192.97785714285715,19.47L193.76874999999998,22.567499999999992L194.55964285714285,20.5025L195.3505357142857,19.322499999999994L196.14142857142855,19.765000000000004L196.9323214285714,19.91250000000001L197.72321428571428,19.6175L198.51410714285717,21.387500000000003L199.305,19.17499999999999L200.09589285714287,19.6175L200.88678571428574,26.69750000000001L201.67767857142857,20.354999999999997L202.46857142857144,20.650000000000006L203.2594642857143,19.027500000000007L204.05035714285714,27.2875L204.84125,18.584999999999997L205.63214285714287,18.7325L206.4230357142857,26.4025L207.21392857142857,21.24L208.00482142857143,18.437499999999993L208.7957142857143,21.535000000000007L209.58660714285713,17.8475L210.3775,18.142500000000005L211.16839285714286,20.05999999999999L211.9592857142857,20.207499999999996L212.75017857142856,16.814999999999994L213.54107142857143,20.05999999999999L214.33196428571426,20.05999999999999L215.12285714285713,19.322499999999994L215.91375,20.944999999999993L216.70464285714283,17.995000000000005L217.49553571428572,18.584999999999997L218.2864285714286,20.79750000000001L219.07732142857145,19.91250000000001L219.8682142857143,19.765000000000004L220.65910714285715,20.5025L221.45000000000002,20.944999999999993L222.24089285714285,17.55249999999999L223.03178571428572,21.682500000000008L223.82267857142858,17.257500000000004L224.61357142857142,17.257500000000004L225.40446428571428,21.24L226.19535714285715,19.027500000000007L226.98624999999998,21.387500000000003L227.77714285714285,19.91250000000001L228.5680357142857,19.027500000000007L229.35892857142858,21.24L230.1498214285714,24.484999999999996L230.94071428571428,24.484999999999996L231.73160714285714,20.650000000000006L232.52249999999998,23.305000000000007L233.31339285714284,21.092499999999994L234.10428571428574,19.91250000000001L234.89517857142857,22.862499999999997L235.68607142857144,26.107499999999995L236.4769642857143,21.24L237.26785714285714,17.55249999999999L238.05875,21.829999999999995L238.84964285714287,19.91250000000001L239.64053571428573,20.05999999999999L240.43142857142857,29.795L241.22232142857143,20.05999999999999L242.0132142857143,24.927500000000006L242.80410714285713,22.420000000000005L243.595,20.650000000000006L244.38589285714286,24.927500000000006L245.1767857142857,25.665000000000003L245.96767857142856,20.944999999999993L246.75857142857143,19.47L247.54946428571427,18.142500000000005L248.34035714285713,20.650000000000006L249.13125,29.057500000000005L249.92214285714283,22.272500000000004L250.7130357142857,21.829999999999995L251.5039285714286,25.222499999999993L252.29482142857145,18.584999999999997L253.0857142857143,20.207499999999996L253.87660714285715,36.87500000000001L254.66750000000002,20.354999999999997L255.45839285714285,23.157500000000006L256.2492857142857,18.29000000000001L257.04017857142856,18.880000000000003L257.8310714285714,22.272500000000004L258.6219642857143,21.977499999999996L259.41285714285715,17.40500000000001L260.20375,20.354999999999997L260.9946428571429,21.24L261.78553571428574,19.6175L262.5764285714286,22.862499999999997L263.3673214285714,20.354999999999997L264.1582142857143,18.29000000000001L264.94910714285714,25.5175" style="fill: none;" fill="none"></path></g></g></g></g></g></g><g transform="translate(53, 177)" clip-path="url(#clip_1)"><clipPath id="clip_1"><rect width="276" height="23"></rect></clipPath><g><g><line x1="0" y1="0" x2="0" y2="5" style="visibility: inherit;" fill="rgb(0, 0, 0)" stroke="rgb(204, 204, 204)" stroke-width="1px"></line><line x1="39.544642857142854" y1="0" x2="39.544642857142854" y2="5" style="visibility: inherit;" fill="rgb(0, 0, 0)" stroke="rgb(204, 204, 204)" stroke-width="1px"></line><line x1="79.08928571428571" y1="0" x2="79.08928571428571" y2="5" style="visibility: inherit;" fill="rgb(0, 0, 0)" stroke="rgb(204, 204, 204)" stroke-width="1px"></line><line x1="118.63392857142857" y1="0" x2="118.63392857142857" y2="5" style="visibility: inherit;" fill="rgb(0, 0, 0)" stroke="rgb(204, 204, 204)" stroke-width="1px"></line><line x1="158.17857142857142" y1="0" x2="158.17857142857142" y2="5" style="visibility: inherit;" fill="rgb(0, 0, 0)" stroke="rgb(204, 204, 204)" stroke-width="1px"></line><line x1="197.72321428571428" y1="0" x2="197.72321428571428" y2="5" style="visibility: inherit;" fill="rgb(0, 0, 0)" stroke="rgb(204, 204, 204)" stroke-width="1px"></line><line x1="237.26785714285714" y1="0" x2="237.26785714285714" y2="5" style="visibility: inherit;" fill="rgb(0, 0, 0)" stroke="rgb(204, 204, 204)" stroke-width="1px"></line><line x1="276.8125" y1="0" x2="276.8125" y2="5" style="visibility: inherit;" fill="rgb(0, 0, 0)" stroke="rgb(204, 204, 204)" stroke-width="1px"></line></g><g transform="translate(0, 8)"><text x="0" y="0" dx="0em" dy="0.95em" style="text-anchor: middle; visibility: hidden; font-family: Roboto, sans-serif; font-size: 12px; font-weight: 200;" fill="rgb(50, 49, 63)" stroke="none" stroke-width="1px">-50k</text><text x="39.544642857142854" y="0" dx="0em" dy="0.95em" style="text-anchor: middle; visibility: inherit; font-family: Roboto, sans-serif; font-size: 12px; font-weight: 200;" fill="rgb(50, 49, 63)" stroke="none" stroke-width="1px">0</text><text x="79.08928571428571" y="0" dx="0em" dy="0.95em" style="text-anchor: middle; visibility: inherit; font-family: Roboto, sans-serif; font-size: 12px; font-weight: 200;" fill="rgb(50, 49, 63)" stroke="none" stroke-width="1px">50k</text><text x="118.63392857142857" y="0" dx="0em" dy="0.95em" style="text-anchor: middle; visibility: inherit; font-family: Roboto, sans-serif; font-size: 12px; font-weight: 200;" fill="rgb(50, 49, 63)" stroke="none" stroke-width="1px">100k</text><text x="158.17857142857142" y="0" dx="0em" dy="0.95em" style="text-anchor: middle; visibility: inherit; font-family: Roboto, sans-serif; font-size: 12px; font-weight: 200;" fill="rgb(50, 49, 63)" stroke="none" stroke-width="1px">150k</text><text x="197.72321428571428" y="0" dx="0em" dy="0.95em" style="text-anchor: middle; visibility: inherit; font-family: Roboto, sans-serif; font-size: 12px; font-weight: 200;" fill="rgb(50, 49, 63)" stroke="none" stroke-width="1px">200k</text><text x="237.26785714285714" y="0" dx="0em" dy="0.95em" style="text-anchor: middle; visibility: inherit; font-family: Roboto, sans-serif; font-size: 12px; font-weight: 200;" fill="rgb(50, 49, 63)" stroke="none" stroke-width="1px">250k</text><text x="276.8125" y="0" dx="0em" dy="0.95em" style="text-anchor: middle; visibility: hidden; font-family: Roboto, sans-serif; font-size: 12px; font-weight: 200;" fill="rgb(50, 49, 63)" stroke="none" stroke-width="1px">300k</text></g><line x1="0" y1="0" x2="276.8125" y2="0" fill="rgb(0, 0, 0)" stroke="rgb(204, 204, 204)" stroke-width="1px"></line></g></g></g></g></svg>