<svg viewBox="0 0 330 200.00001525878906" xmlns="http://www.w3.org/2000/svg"><g><g><g><g><g><line x1="53.1875" y1="177" x2="48.1875" y2="177" style="visibility: inherit;" fill="rgb(0, 0, 0)" stroke="rgb(204, 204, 204)" stroke-width="1px"></line><line x1="53.1875" y1="160.9090909090909" x2="48.1875" y2="160.9090909090909" style="visibility: inherit;" fill="rgb(0, 0, 0)" stroke="rgb(204, 204, 204)" stroke-width="1px"></line><line x1="53.1875" y1="144.8181818181818" x2="48.1875" y2="144.8181818181818" style="visibility: inherit;" fill="rgb(0, 0, 0)" stroke="rgb(204, 204, 204)" stroke-width="1px"></line><line x1="53.1875" y1="128.72727272727272" x2="48.1875" y2="128.72727272727272" style="visibility: inherit;" fill="rgb(0, 0, 0)" stroke="rgb(204, 204, 204)" stroke-width="1px"></line><line x1="53.1875" y1="112.63636363636364" x2="48.1875" y2="112.63636363636364" style="visibility: inherit;" fill="rgb(0, 0, 0)" stroke="rgb(204, 204, 204)" stroke-width="1px"></line><line x1="53.1875" y1="96.54545454545453" x2="48.1875" y2="96.54545454545453" style="visibility: inherit;" fill="rgb(0, 0, 0)" stroke="rgb(204, 204, 204)" stroke-width="1px"></line><line x1="53.1875" y1="80.45454545454547" x2="48.1875" y2="80.45454545454547" style="visibility: inherit;" fill="rgb(0, 0, 0)" stroke="rgb(204, 204, 204)" stroke-width="1px"></line><line x1="53.1875" y1="64.36363636363636" x2="48.1875" y2="64.36363636363636" style="visibility: inherit;" fill="rgb(0, 0, 0)" stroke="rgb(204, 204, 204)" stroke-width="1px"></line><line x1="53.1875" y1="48.272727272727266" x2="48.1875" y2="48.272727272727266" style="visibility: inherit;" fill="rgb(0, 0, 0)" stroke="rgb(204, 204, 204)" stroke-width="1px"></line><line x1="53.1875" y1="32.18181818181817" x2="48.1875" y2="32.18181818181817" style="visibility: inherit;" fill="rgb(0, 0, 0)" stroke="rgb(204, 204, 204)" stroke-width="1px"></line><line x1="53.1875" y1="16.090909090909097" x2="48.1875" y2="16.090909090909097" style="visibility: inherit;" fill="rgb(0, 0, 0)" stroke="rgb(204, 204, 204)" stroke-width="1px"></line><line x1="53.1875" y1="0" x2="48.1875" y2="0" style="visibility: inherit;" fill="rgb(0, 0, 0)" stroke="rgb(204, 204, 204)" stroke-width="1px"></line></g><g transform="translate(43.1875, 0)"><text x="0" y="177" dx="0em" dy="0.3em" style="text-anchor: end; visibility: hidden; font-family: Roboto, sans-serif; font-size: 12px; font-weight: 200;" fill="rgb(50, 49, 63)" stroke="none" stroke-width="1px">-700</text><text x="0" y="160.9090909090909" dx="0em" dy="0.3em" style="text-anchor: end; visibility: inherit; font-family: Roboto, sans-serif; font-size: 12px; font-weight: 200;" fill="rgb(50, 49, 63)" stroke="none" stroke-width="1px">-600</text><text x="0" y="144.8181818181818" dx="0em" dy="0.3em" style="text-anchor: end; visibility: hidden; font-family: Roboto, sans-serif; font-size: 12px; font-weight: 200;" fill="rgb(50, 49, 63)" stroke="none" stroke-width="1px">-500</text><text x="0" y="128.72727272727272" dx="0em" dy="0.3em" style="text-anchor: end; visibility: inherit; font-family: Roboto, sans-serif; font-size: 12px; font-weight: 200;" fill="rgb(50, 49, 63)" stroke="none" stroke-width="1px">-400</text><text x="0" y="112.63636363636364" dx="0em" dy="0.3em" style="text-anchor: end; visibility: hidden; font-family: Roboto, sans-serif; font-size: 12px; font-weight: 200;" fill="rgb(50, 49, 63)" stroke="none" stroke-width="1px">-300</text><text x="0" y="96.54545454545453" dx="0em" dy="0.3em" style="text-anchor: end; visibility: inherit; font-family: Roboto, sans-serif; font-size: 12px; font-weight: 200;" fill="rgb(50, 49, 63)" stroke="none" stroke-width="1px">-200</text><text x="0" y="80.45454545454547" dx="0em" dy="0.3em" style="text-anchor: end; visibility: hidden; font-family: Roboto, sans-serif; font-size: 12px; font-weight: 200;" fill="rgb(50, 49, 63)" stroke="none" stroke-width="1px">-100</text><text x="0" y="64.36363636363636" dx="0em" dy="0.3em" style="text-anchor: end; visibility: inherit; font-family: Roboto, sans-serif; font-size: 12px; font-weight: 200;" fill="rgb(50, 49, 63)" stroke="none" stroke-width="1px">0</text><text x="0" y="48.272727272727266" dx="0em" dy="0.3em" style="text-anchor: end; visibility: hidden; font-family: Roboto, sans-serif; font-size: 12px; font-weight: 200;" fill="rgb(50, 49, 63)" stroke="none" stroke-width="1px">100</text><text x="0" y="32.18181818181817" dx="0em" dy="0.3em" style="text-anchor: end; visibility: inherit; font-family: Roboto, sans-serif; font-size: 12px; font-weight: 200;" fill="rgb(50, 49, 63)" stroke="none" stroke-width="1px">200</text><text x="0" y="16.090909090909097" dx="0em" dy="0.3em" style="text-anchor: end; visibility: hidden; font-family: Roboto, sans-serif; font-size: 12px; font-weight: 200;" fill="rgb(50, 49, 63)" stroke="none" stroke-width="1px">300</text><text x="0" y="0" dx="0em" dy="0.3em" style="text-anchor: end; visibility: hidden; font-family: Roboto, sans-serif; font-size: 12px; font-weight: 200;" fill="rgb(50, 49, 63)" stroke="none" stroke-width="1px">400</text></g><line x1="53.1875" y1="0" x2="53.1875" y2="177" fill="rgb(0, 0, 0)" stroke="rgb(204, 204, 204)" stroke-width="1px"></line></g></g><g transform="translate(53, 0)" clip-path="url(#clip_0)"><clipPath id="clip_0"><rect width="276" height="177"></rect></clipPath><g><g><g><line x1="0" y1="0" x2="0" y2="177" fill="rgb(0, 0, 0)" stroke="rgb(60, 60, 60)" stroke-width="1px" opacity="0.25"></line><line x1="39.544642857142854" y1="0" x2="39.544642857142854" y2="177" fill="rgb(0, 0, 0)" stroke="rgb(60, 60, 60)" stroke-width="1px" opacity="0.25"></line><line x1="79.08928571428571" y1="0" x2="79.08928571428571" y2="177" fill="rgb(0, 0, 0)" stroke="rgb(60, 60, 60)" stroke-width="1px" opacity="0.25"></line><line x1="118.63392857142857" y1="0" x2="118.63392857142857" y2="177" fill="rgb(0, 0, 0)" stroke="rgb(60, 60, 60)" stroke-width="1px" opacity="0.25"></line><line x1="158.17857142857142" y1="0" x2="158.17857142857142" y2="177" fill="rgb(0, 0, 0)" stroke="rgb(60, 60, 60)" stroke-width="1px" opacity="0.25"></line><line x1="197.72321428571428" y1="0" x2="197.72321428571428" y2="177" fill="rgb(0, 0, 0)" stroke="rgb(60, 60, 60)" stroke-width="1px" opacity="0.25"></line><line x1="237.26785714285714" y1="0" x2="237.26785714285714" y2="177" fill="rgb(0, 0, 0)" stroke="rgb(60, 60, 60)" stroke-width="1px" opacity="0.25"></line><line x1="276.8125" y1="0" x2="276.8125" y2="177" fill="rgb(0, 0, 0)" stroke="rgb(60, 60, 60)" stroke-width="1px" opacity="0.25"></line></g><g><line x1="0" y1="177" x2="276.8125" y2="177" fill="rgb(0, 0, 0)" stroke="rgb(60, 60, 60)" stroke-width="1px" opacity="0.25"></line><line x1="0" y1="160.9090909090909" x2="276.8125" y2="160.9090909090909" fill="rgb(0, 0, 0)" stroke="rgb(60, 60, 60)" stroke-width="1px" opacity="0.25"></line><line x1="0" y1="144.8181818181818" x2="276.8125" y2="144.8181818181818" fill="rgb(0, 0, 0)" stroke="rgb(60, 60, 60)" stroke-width="1px" opacity="0.25"></line><line x1="0" y1="128.72727272727272" x2="276.8125" y2="128.72727272727272" fill="rgb(0, 0, 0)" stroke="rgb(60, 60, 60)" stroke-width="1px" opacity="0.25"></line><line x1="0" y1="112.63636363636364" x2="276.8125" y2="112.63636363636364" fill="rgb(0, 0, 0)" stroke="rgb(60, 60, 60)" stroke-width="1px" opacity="0.25"></line><line x1="0" y1="96.54545454545453" x2="276.8125" y2="96.54545454545453" fill="rgb(0, 0, 0)" stroke="rgb(60, 60, 60)" stroke-width="1px" opacity="0.25"></line><line x1="0" y1="80.45454545454547" x2="276.8125" y2="80.45454545454547" fill="rgb(0, 0, 0)" stroke="rgb(60, 60, 60)" stroke-width="1px" opacity="0.25"></line><line x1="0" y1="64.36363636363636" x2="276.8125" y2="64.36363636363636" fill="rgb(0, 0, 0)" stroke="rgb(60, 60, 60)" stroke-width="1px" opacity="0.25"></line><line x1="0" y1="48.272727272727266" x2="276.8125" y2="48.272727272727266" fill="rgb(0, 0, 0)" stroke="rgb(60, 60, 60)" stroke-width="1px" opacity="0.25"></line><line x1="0" y1="32.18181818181817" x2="276.8125" y2="32.18181818181817" fill="rgb(0, 0, 0)" stroke="rgb(60, 60, 60)" stroke-width="1px" opacity="0.25"></line><line x1="0" y1="16.090909090909097" x2="276.8125" y2="16.090909090909097" fill="rgb(0, 0, 0)" stroke="rgb(60, 60, 60)" stroke-width="1px" opacity="0.25"></line><line x1="0" y1="0" x2="276.8125" y2="0" fill="rgb(0, 0, 0)" stroke="rgb(60, 60, 60)" stroke-width="1px" opacity="0.25"></line></g></g></g><g><g><line x1="0" y1="64.36363636363636" x2="276.8125" y2="64.36363636363636" fill="rgb(0, 0, 0)" stroke="rgb(153, 153, 153)" stroke-width="1.5px"></line></g></g><g><g><line x1="39.544642857142854" y1="0" x2="39.544642857142854" y2="177" fill="rgb(0, 0, 0)" stroke="rgb(153, 153, 153)" stroke-width="1.5px"></line></g></g><g><g><g><g><g><path stroke="rgb(51, 187, 238)" stroke-width="2px" d="M39.544642857142854,153.6681818181818L40.33553571428571,161.0282317168252L41.126428571428576,152.33911509719533L41.917321428571434,149.11289143150003L42.708214285714284,138.5602143264807L43.49910714285714,138.4567877809215L44.29,123.12239193918074L45.08089285714286,111.50432152430781L45.871785714285714,103.39168066740882L46.66267857142857,96.26937721137756L47.45357142857143,89.34608854702904L48.24446428571429,85.50005521967842L49.03535714285714,84.6996008415017L49.82625,82.50523550060086L50.61714285714286,78.99621147170355L51.40803571428572,79.03957326530156L52.198928571428574,78.58361711482468L52.989821428571425,77.06584551388063L53.78071428571428,75.77049555777945L54.57160714285715,73.6682582577081L55.362500000000004,75.82086466401181L56.153392857142855,71.20040494608153L56.94428571428571,63.21384589955416L57.73517857142857,56.38748965573642L58.526071428571434,53.25792551659967L59.316964285714285,55.60246709914038L60.10785714285714,50.812409215604625L60.89875,51.06356586109139L61.68964285714286,44.86885361070891L62.48053571428571,49.48011798760543L63.27142857142857,55.68035698255677L64.06232142857142,51.55890703809479L64.85321428571429,46.81608035059812L65.64410714285715,48.71655225980084L66.435,45.252793005786884L67.22589285714285,49.40352951869005L68.01678571428572,45.0000036951638L68.80767857142857,49.294913939462454L69.59857142857143,44.71675135659068L70.38946428571428,41.045401763636015L71.18035714285713,39.02256874878999L71.97125,37.06320078578664L72.76214285714285,34.707095222565734L73.55303571428573,33.87130726842878L74.34392857142858,36.31481190833071L75.13482142857143,36.61024098027423L75.92571428571429,34.08511731055509L76.71660714285714,37.36349323422645L77.50750000000001,37.35531460846899L78.29839285714286,40.459080467856836L79.08928571428571,44.8839866625954L79.88017857142857,42.09962336457846L80.67107142857142,39.610253709557675L81.46196428571427,40.08823101724358L82.25285714285715,42.66758626312148L83.04375,39.22789451661348L83.83464285714287,38.509422033517176L84.62553571428572,43.98912557246534L85.41642857142857,43.327617755049914L86.20732142857143,49.3346458753676L86.99821428571428,45.998602414366296L87.78910714285713,41.9247667774455L88.58,39.80239210823566L89.37089285714285,44.10940809260853L90.16178571428571,47.17381031899235L90.95267857142858,41.99723390201969L91.74357142857143,42.11840819308446L92.5344642857143,45.92488047499204L93.32535714285714,47.160400933012845L94.11625000000001,51.19569575997295L94.90714285714286,47.715634301774145L95.69803571428571,46.805371909375324L96.48892857142857,48.869981743359396L97.27982142857142,50.29520996287356L98.07071428571427,48.69708589793969L98.86160714285714,43.0170027904618L99.6525,46.9210332727186L100.44339285714287,42.252173920509755L101.23428571428572,46.06545917601549L102.02517857142857,42.29794801340223L102.81607142857143,39.23375306182965L103.60696428571428,36.696341952271936L104.39785714285715,33.78611648577689L105.18875,36.69526852065737L105.97964285714285,33.7853124855464L106.77053571428571,31.60575541527564L107.56142857142856,33.12354535151424L108.35232142857141,32.44290183191441L109.1432142857143,31.206112563004634L109.93410714285714,30.23936921877652L110.72500000000001,30.121101181226784L111.51589285714286,30.961446602923075L112.30678571428571,35.02386077832528L113.09767857142857,32.73536899568926L113.88857142857142,33.202250468680894L114.67946428571429,31.047877419221898L115.47035714285714,34.11928109609015L116.26124999999999,32.138615177334174L117.05214285714287,34.89585549509707L117.84303571428572,33.32609212946362L118.63392857142857,33.402373004968254L119.42482142857143,32.49019101708474L120.21571428571428,33.30132943543292L121.00660714285715,34.51469483804847L121.7975,33.08099097915276L122.58839285714285,31.158994970658036L123.37928571428571,31.738829051204704L124.17017857142856,32.173124777534156L124.96107142857142,32.41763591291854L125.7519642857143,34.98367748059422L126.54285714285714,38.8846635238742L127.33375000000001,37.92923661574542L128.12464285714285,40.56584095246605L128.9155357142857,36.56320669157887L129.70642857142857,36.91745272108351L130.49732142857144,35.122985724455155L131.2882142857143,35.15212812579873L132.07910714285714,35.49706123895054L132.87,33.857171595246676L133.66089285714287,33.80015152483976L134.4517857142857,31.21298803755953L135.24267857142857,33.03130349467755L136.03357142857143,31.041002681149834L136.82446428571427,34.71995464454487L137.61535714285714,33.63861239240047L138.40625,41.06787613645342L139.19714285714286,40.65494377165815L139.9880357142857,37.31654379406286L140.77892857142857,35.66423402902582L141.56982142857143,37.173050378649435L142.36071428571427,34.54705291542659L143.15160714285713,31.65125263365453L143.9425,30.330450040789056L144.73339285714286,32.45105889873281L145.5242857142857,37.1492849333327L146.31517857142856,37.80069532415711L147.10607142857145,34.37094807052094L147.8969642857143,33.90225283209292L148.68785714285715,31.854896462146698L149.47875000000002,31.25035472287513L150.26964285714286,35.19986477834257L151.06053571428572,35.128934173524044L151.85142857142858,41.01286987778769L152.64232142857142,36.89803135664479L153.43321428571429,33.85640548612694L154.22410714285715,31.86094498183635L155.01500000000001,30.083627791395426L155.80589285714285,28.95435812484609L156.59678571428572,28.552805144600626L157.38767857142858,27.848160144214958L158.17857142857142,29.66289558438062L158.96946428571428,33.52619970179201L159.76035714285715,34.19846448573311L160.55124999999998,34.50004989981411L161.34214285714285,40.6630001022335L162.1330357142857,39.46315162202743L162.92392857142855,38.12019511035309L163.7148214285714,35.014135228563546L164.5057142857143,33.21274274073955L165.29660714285717,33.519415221904836L166.0875,33.749112910297626L166.87839285714287,30.24583193344931L167.66928571428573,29.479730845426253L168.46017857142857,31.773482039587904L169.25107142857144,32.118303502196774L170.0419642857143,30.316777504963575L170.83285714285714,28.523164533035917L171.62375,29.80498023524388L172.41464285714287,32.13825837801587L173.2055357142857,35.21869370695205L173.99642857142857,39.82806613196162L174.78732142857143,36.73760062374834L175.57821428571427,34.78633559446024L176.36910714285713,31.951639905705285L177.16,29.949617380282334L177.95089285714286,31.721545236013295L178.7417857142857,32.36212010904667L179.53267857142856,36.517235234403245L180.32357142857143,36.43875009965893L181.11446428571426,35.12793109737182L181.90535714285716,32.57098857374967L182.69625000000002,33.563787714465775L183.48714285714286,34.4285588163167L184.27803571428572,34.55122600796663L185.0689285714286,36.33940737087611L185.85982142857142,37.557590666240735L186.6507142857143,39.39893813628705L187.44160714285715,35.48725557316991L188.23250000000002,35.02108442430425L189.02339285714285,36.933660415622064L189.81428571428572,38.689285287664575L190.60517857142858,35.884653771369855L191.39607142857142,33.17816203839239L192.18696428571428,32.07992791221044L192.97785714285715,33.438312369881984L193.76874999999998,31.265075965041618L194.55964285714285,28.991110988725257L195.3505357142857,27.328299403282493L196.14142857142855,26.24440625305858L196.9323214285714,27.330814828995425L197.72321428571428,28.144534852372114L198.51410714285717,26.97693114988126L199.305,25.254244158533798L200.09589285714287,24.731327056559987L200.88678571428574,24.178109419908882L201.67767857142857,24.127243046420837L202.46857142857144,24.452637769041946L203.2594642857143,28.08896568901242L204.05035714285714,30.61063439197939L204.84125,28.218216977774375L205.63214285714287,27.112895425443927L206.4230357142857,31.737414128202964L207.21392857142857,29.062175000205823L208.00482142857143,27.260361802426903L208.7957142857143,26.314685535472293L209.58660714285713,25.364044920614198L210.3775,25.136673281903672L211.16839285714286,24.56249010632768L211.9592857142857,23.445827816912143L212.75017857142856,26.36554867123084L213.54107142857143,31.621921409297354L214.33196428571426,30.348869135563724L215.12285714285713,27.82021389162815L215.91375,26.57246202301131L216.70464285714283,24.66857950978091L217.49553571428572,23.606065143734998L218.2864285714286,28.54536370174842L219.07732142857145,27.196375594427746L219.8682142857143,25.98404259295365L220.65910714285715,25.399110629395008L221.45000000000002,24.880220225053225L222.24089285714285,29.782423130383062L223.03178571428572,30.707776742838725L223.82267857142858,29.098740234931654L224.61357142857142,28.862888254145638L225.40446428571428,27.353425120536915L226.19535714285715,26.182449051645783L226.98624999999998,27.89023161240996L227.77714285714285,27.594221659513224L228.5680357142857,27.009016568429967L229.35892857142858,26.166816137026753L230.1498214285714,25.0513498320876L230.94071428571428,24.09470102423363L231.73160714285714,24.307099248969166L232.52249999999998,26.727923701114268L233.31339285714284,26.965982124861856L234.10428571428574,26.53846515697607L234.89517857142857,28.72232222075689L235.68607142857144,31.529288434256006L236.4769642857143,28.987065219075934L237.26785714285714,26.679058212724247L238.05875,27.454428237694085L238.84964285714287,25.28878402276015L239.64053571428573,26.21117196032009L240.43142857142857,24.923019616461566L241.22232142857143,24.40246351091153L242.0132142857143,23.406744260581824L242.80410714285713,23.064832360266696L243.595,23.1722339832943L244.38589285714286,23.575783253487437L245.1767857142857,23.35299529322574L245.96767857142856,23.630397110989698L246.75857142857143,22.343808345222193L247.54946428571427,22.309081541480523L248.34035714285713,26.80654752911436L249.13125,26.095943190215742L249.92214285714283,25.0790423585625L250.7130357142857,23.226902726563324L251.5039285714286,22.849354687650443L252.29482142857145,21.920360297413836L253.0857142857143,23.728610771853855L253.87660714285715,23.144357649936723L254.66750000000002,22.464422970711695L255.45839285714285,21.955151895972143L256.2492857142857,21.937201497355872L257.04017857142856,21.51987483061044" style="fill: none;" fill="none"></path></g></g></g></g><g opacity="0.2"><g><g><g><path stroke="rgb(51, 187, 238)" stroke-width="2px" d="M39.544642857142854,153.6681818181818L40.33553571428571,166.54090909090908L41.126428571428576,140.95636363636365L41.917321428571434,143.5309090909091L42.708214285714284,116.9809090909091L43.49910714285714,138.2209090909091L44.29,85.44272727272728L45.08089285714286,81.41999999999999L45.871785714285714,81.5809090909091L46.66267857142857,76.59272727272727L47.45357142857143,69.83454545454545L48.24446428571429,74.50090909090909L49.03535714285714,82.38545454545455L49.82625,76.11000000000001L50.61714285714286,68.70818181818181L51.40803571428572,79.16727272727273L52.198928571428574,77.23636363636365L52.989821428571425,72.57000000000001L53.78071428571428,71.92636363636363L54.57160714285715,67.42090909090908L55.362500000000004,82.22454545454546L56.153392857142855,57.44454545454546L56.94428571428571,39.42272727272728L57.73517857142857,36.04363636363636L58.526071428571434,43.92818181818182L59.316964285714285,62.593636363636364L60.10785714285714,36.52636363636365L60.89875,51.81272727272727L61.68964285714286,26.389090909090903L62.48053571428571,63.23727272727273L63.27142857142857,74.1790909090909L64.06232142857142,39.26181818181818L64.85321428571429,32.66454545454546L65.64410714285715,54.38727272727272L66.435,34.917272727272724L67.22589285714285,61.789090909090916L68.01678571428572,31.86000000000001L68.80767857142857,62.1109090909091L69.59857142857143,31.055454545454538L70.38946428571428,30.090000000000007L71.18035714285713,32.98636363636364L71.97125,31.216363636363642L72.76214285714285,27.67636363636364L73.55303571428573,31.37727272727272L74.34392857142858,43.60636363636363L75.13482142857143,37.491818181818175L75.92571428571429,26.550000000000004L76.71660714285714,47.14636363636364L77.50750000000001,37.330909090909095L78.29839285714286,49.72090909090909L79.08928571428571,58.08818181818181L79.88017857142857,33.79090909090909L80.67107142857142,32.18181818181817L81.46196428571427,41.51454545454545L82.25285714285715,50.36454545454546L83.04375,28.963636363636372L83.83464285714287,36.36545454545455L84.62553571428572,60.34090909090909L85.41642857142857,41.35363636363636L86.20732142857143,67.26L86.99821428571428,36.04363636363636L87.78910714285713,29.768181818181823L88.58,33.46909090909091L89.37089285714285,56.961818181818174L90.16178571428571,56.31818181818183L90.95267857142858,26.550000000000004L91.74357142857143,42.48L92.5344642857143,57.28363636363636L93.32535714285714,50.847272727272724L94.11625000000001,63.23727272727273L94.90714285714286,37.330909090909095L95.69803571428571,44.08909090909092L96.48892857142857,55.03090909090909L97.27982142857142,54.548181818181824L98.07071428571427,43.92818181818182L98.86160714285714,26.06727272727272L99.6525,58.5709090909091L100.44339285714287,28.320000000000004L101.23428571428572,57.44454545454546L102.02517857142857,31.055454545454538L102.81607142857143,30.090000000000007L103.60696428571428,29.124545454545455L104.39785714285715,25.101818181818185L105.18875,45.376363636363635L105.97964285714285,25.101818181818185L106.77053571428571,25.101818181818185L107.56142857142856,37.652727272727276L108.35232142857141,30.41181818181819L109.1432142857143,27.515454545454535L109.93410714285714,27.354545454545455L110.72500000000001,29.768181818181823L111.51589285714286,33.46909090909091L112.30678571428571,47.14636363636364L113.09767857142857,25.906363636363636L113.88857142857142,34.595454545454544L114.67946428571429,24.6190909090909L115.47035714285714,43.28454545454545L116.26124999999999,26.22818181818182L117.05214285714287,43.123636363636365L117.84303571428572,28.641818181818188L118.63392857142857,33.62999999999999L119.42482142857143,29.768181818181823L120.21571428571428,35.72181818181818L121.00660714285715,38.13545454545454L121.7975,28.80272727272727L122.58839285714285,25.42363636363637L123.37928571428571,33.46909090909091L124.17017857142856,33.46909090909091L124.96107142857142,33.14727272727272L125.7519642857143,42.6409090909091L126.54285714285714,50.52545454545454L127.33375000000001,35.078181818181825L128.12464285714285,48.433636363636374L128.9155357142857,24.6190909090909L129.70642857142857,37.97454545454546L130.49732142857144,29.768181818181823L131.2882142857143,35.23909090909091L132.07910714285714,36.52636363636365L132.87,28.963636363636372L133.66089285714287,33.62999999999999L134.4517857142857,23.492727272727265L135.24267857142857,38.45727272727273L136.03357142857143,25.101818181818185L136.82446428571427,45.698181818181816L137.61535714285714,30.41181818181819L138.40625,63.23727272727273L139.19714285714286,39.42272727272728L139.9880357142857,27.354545454545455L140.77892857142857,30.733636363636354L141.56982142857143,41.67545454545455L142.36071428571427,26.710909090909087L143.15160714285713,23.01L143.9425,26.389090909090903L144.73339285714286,38.77909090909091L145.5242857142857,51.169090909090905L146.31517857142856,39.744545454545445L147.10607142857145,24.136363636363633L147.8969642857143,32.50363636363636L148.68785714285715,25.745454545454553L149.47875000000002,29.44636363636364L150.26964285714286,46.98545454545455L151.06053571428572,34.917272727272724L151.85142857142858,58.5709090909091L152.64232142857142,24.6190909090909L153.43321428571429,24.78L154.22410714285715,25.906363636363636L155.01500000000001,24.78L155.80589285714285,25.584545454545452L156.59678571428572,27.354545454545455L157.38767857142858,25.745454545454553L158.17857142857142,35.078181818181825L158.96946428571428,45.05454545454545L159.76035714285715,36.20454545454546L160.55124999999998,35.39999999999999L161.34214285714285,59.05363636363636L162.1330357142857,35.88272727272728L162.92392857142855,34.11272727272728L163.7148214285714,25.745454545454553L164.5057142857143,27.83727272727272L165.29660714285717,34.43454545454546L166.0875,34.43454545454546L166.87839285714287,19.791818181818183L167.66928571428573,27.193636363636372L168.46017857142857,38.61818181818181L169.25107142857144,33.14727272727272L170.0419642857143,24.940909090909084L170.83285714285714,23.170909090909085L171.62375,33.62999999999999L172.41464285714287,39.1009090909091L173.2055357142857,44.41090909090908L173.99642857142857,53.582727272727276L174.78732142857143,27.515454545454535L175.57821428571427,28.963636363636372L176.36910714285713,23.492727272727265L177.16,23.975454545454554L177.95089285714286,37.009090909090915L178.7417857142857,34.273636363636356L179.53267857142856,48.916363636363634L180.32357142857143,36.20454545454546L181.11446428571426,31.216363636363642L181.90535714285716,24.940909090909084L182.69625000000002,36.52636363636365L183.48714285714286,37.009090909090915L184.27803571428572,34.917272727272724L185.0689285714286,41.67545454545455L185.85982142857142,41.19272727272728L186.6507142857143,44.89363636363637L187.44160714285715,23.81454545454545L188.23250000000002,33.62999999999999L189.02339285714285,42.6409090909091L189.81428571428572,43.92818181818182L190.60517857142858,27.515454545454535L191.39607142857142,25.101818181818185L192.18696428571428,28.80272727272727L192.97785714285715,37.491818181818175L193.76874999999998,24.78L194.55964285714285,22.20545454545455L195.3505357142857,22.366363636363634L196.14142857142855,23.01L196.9323214285714,30.572727272727274L197.72321428571428,30.572727272727274L198.51410714285717,23.492727272727265L199.305,20.113636363636367L200.09589285714287,23.170909090909085L200.88678571428574,22.527272727272734L201.67767857142857,23.975454545454554L202.46857142857144,25.42363636363637L203.2594642857143,38.94L204.05035714285714,38.13545454545454L204.84125,21.079090909090915L205.63214285714287,23.81454545454545L206.4230357142857,45.537272727272736L207.21392857142857,21.079090909090915L208.00482142857143,21.883636363636366L208.7957142857143,23.492727272727265L209.58660714285713,22.527272727272734L210.3775,24.458181818181817L211.16839285714286,22.84909090909092L211.9592857142857,20.113636363636367L212.75017857142856,35.078181818181825L213.54107142857143,47.30727272727272L214.33196428571426,26.550000000000004L215.12285714285713,20.274545454545446L215.91375,22.84909090909092L216.70464285714283,18.98727272727273L217.49553571428572,20.43545454545455L218.2864285714286,43.28454545454545L219.07732142857145,23.170909090909085L219.8682142857143,22.366363636363634L220.65910714285715,23.65363636363637L221.45000000000002,23.331818181818186L222.24089285714285,44.41090909090908L223.03178571428572,33.46909090909091L223.82267857142858,24.297272727272738L224.61357142857142,28.159090909090903L225.40446428571428,22.84909090909092L226.19535714285715,22.688181818181818L226.98624999999998,32.98636363636364L227.77714285714285,26.710909090909087L228.5680357142857,25.26272727272727L229.35892857142858,23.65363636363637L230.1498214285714,21.722727272727266L230.94071428571428,21.24L231.73160714285714,24.940909090909084L232.52249999999998,33.951818181818176L233.31339285714284,27.67636363636364L234.10428571428574,25.26272727272727L234.89517857142857,35.23909090909091L235.68607142857144,39.905454545454546L236.4769642857143,21.40090909090908L237.26785714285714,19.791818181818183L238.05875,29.768181818181823L238.84964285714287,18.82636363636363L239.64053571428573,28.963636363636372L240.43142857142857,21.079090909090915L241.22232142857143,22.84909090909092L242.0132142857143,20.43545454545455L242.80410714285713,22.04454545454545L243.595,23.492727272727265L244.38589285714286,24.78L245.1767857142857,22.688181818181818L245.96767857142856,24.458181818181817L246.75857142857143,18.504545454545447L247.54946428571427,22.20545454545455L248.34035714285713,40.227272727272734L249.13125,23.975454545454554L249.92214285714283,22.04454545454545L250.7130357142857,17.699999999999996L251.5039285714286,21.722727272727266L252.29482142857145,19.148181818181815L253.0857142857143,29.124545454545455L253.87660714285715,21.40090909090908L254.66750000000002,20.43545454545455L255.45839285714285,20.43545454545455L256.2492857142857,21.883636363636366L257.04017857142856,20.274545454545446" style="fill: none;" fill="none"></path></g></g></g></g></g></g><g transform="translate(53, 177)" clip-path="url(#clip_1)"><clipPath id="clip_1"><rect width="276" height="23"></rect></clipPath><g><g><line x1="0" y1="0" x2="0" y2="5" style="visibility: inherit;" fill="rgb(0, 0, 0)" stroke="rgb(204, 204, 204)" stroke-width="1px"></line><line x1="39.544642857142854" y1="0" x2="39.544642857142854" y2="5" style="visibility: inherit;" fill="rgb(0, 0, 0)" stroke="rgb(204, 204, 204)" stroke-width="1px"></line><line x1="79.08928571428571" y1="0" x2="79.08928571428571" y2="5" style="visibility: inherit;" fill="rgb(0, 0, 0)" stroke="rgb(204, 204, 204)" stroke-width="1px"></line><line x1="118.63392857142857" y1="0" x2="118.63392857142857" y2="5" style="visibility: inherit;" fill="rgb(0, 0, 0)" stroke="rgb(204, 204, 204)" stroke-width="1px"></line><line x1="158.17857142857142" y1="0" x2="158.17857142857142" y2="5" style="visibility: inherit;" fill="rgb(0, 0, 0)" stroke="rgb(204, 204, 204)" stroke-width="1px"></line><line x1="197.72321428571428" y1="0" x2="197.72321428571428" y2="5" style="visibility: inherit;" fill="rgb(0, 0, 0)" stroke="rgb(204, 204, 204)" stroke-width="1px"></line><line x1="237.26785714285714" y1="0" x2="237.26785714285714" y2="5" style="visibility: inherit;" fill="rgb(0, 0, 0)" stroke="rgb(204, 204, 204)" stroke-width="1px"></line><line x1="276.8125" y1="0" x2="276.8125" y2="5" style="visibility: inherit;" fill="rgb(0, 0, 0)" stroke="rgb(204, 204, 204)" stroke-width="1px"></line></g><g transform="translate(0, 8)"><text x="0" y="0" dx="0em" dy="0.95em" style="text-anchor: middle; visibility: hidden; font-family: Roboto, sans-serif; font-size: 12px; font-weight: 200;" fill="rgb(50, 49, 63)" stroke="none" stroke-width="1px">-50k</text><text x="39.544642857142854" y="0" dx="0em" dy="0.95em" style="text-anchor: middle; visibility: inherit; font-family: Roboto, sans-serif; font-size: 12px; font-weight: 200;" fill="rgb(50, 49, 63)" stroke="none" stroke-width="1px">0</text><text x="79.08928571428571" y="0" dx="0em" dy="0.95em" style="text-anchor: middle; visibility: inherit; font-family: Roboto, sans-serif; font-size: 12px; font-weight: 200;" fill="rgb(50, 49, 63)" stroke="none" stroke-width="1px">50k</text><text x="118.63392857142857" y="0" dx="0em" dy="0.95em" style="text-anchor: middle; visibility: inherit; font-family: Roboto, sans-serif; font-size: 12px; font-weight: 200;" fill="rgb(50, 49, 63)" stroke="none" stroke-width="1px">100k</text><text x="158.17857142857142" y="0" dx="0em" dy="0.95em" style="text-anchor: middle; visibility: inherit; font-family: Roboto, sans-serif; font-size: 12px; font-weight: 200;" fill="rgb(50, 49, 63)" stroke="none" stroke-width="1px">150k</text><text x="197.72321428571428" y="0" dx="0em" dy="0.95em" style="text-anchor: middle; visibility: inherit; font-family: Roboto, sans-serif; font-size: 12px; font-weight: 200;" fill="rgb(50, 49, 63)" stroke="none" stroke-width="1px">200k</text><text x="237.26785714285714" y="0" dx="0em" dy="0.95em" style="text-anchor: middle; visibility: inherit; font-family: Roboto, sans-serif; font-size: 12px; font-weight: 200;" fill="rgb(50, 49, 63)" stroke="none" stroke-width="1px">250k</text><text x="276.8125" y="0" dx="0em" dy="0.95em" style="text-anchor: middle; visibility: hidden; font-family: Roboto, sans-serif; font-size: 12px; font-weight: 200;" fill="rgb(50, 49, 63)" stroke="none" stroke-width="1px">300k</text></g><line x1="0" y1="0" x2="276.8125" y2="0" fill="rgb(0, 0, 0)" stroke="rgb(204, 204, 204)" stroke-width="1px"></line></g></g></g></g></svg>