<svg viewBox="0 0 330 200" xmlns="http://www.w3.org/2000/svg"><g><g><g><g><g><line x1="53.1875" y1="176" x2="48.1875" y2="176" style="visibility: inherit;" fill="rgb(0, 0, 0)" stroke="rgb(204, 204, 204)" stroke-width="1px"></line><line x1="53.1875" y1="158.4" x2="48.1875" y2="158.4" style="visibility: inherit;" fill="rgb(0, 0, 0)" stroke="rgb(204, 204, 204)" stroke-width="1px"></line><line x1="53.1875" y1="140.8" x2="48.1875" y2="140.8" style="visibility: inherit;" fill="rgb(0, 0, 0)" stroke="rgb(204, 204, 204)" stroke-width="1px"></line><line x1="53.1875" y1="123.19999999999999" x2="48.1875" y2="123.19999999999999" style="visibility: inherit;" fill="rgb(0, 0, 0)" stroke="rgb(204, 204, 204)" stroke-width="1px"></line><line x1="53.1875" y1="105.6" x2="48.1875" y2="105.6" style="visibility: inherit;" fill="rgb(0, 0, 0)" stroke="rgb(204, 204, 204)" stroke-width="1px"></line><line x1="53.1875" y1="88" x2="48.1875" y2="88" style="visibility: inherit;" fill="rgb(0, 0, 0)" stroke="rgb(204, 204, 204)" stroke-width="1px"></line><line x1="53.1875" y1="70.4" x2="48.1875" y2="70.4" style="visibility: inherit;" fill="rgb(0, 0, 0)" stroke="rgb(204, 204, 204)" stroke-width="1px"></line><line x1="53.1875" y1="52.80000000000001" x2="48.1875" y2="52.80000000000001" style="visibility: inherit;" fill="rgb(0, 0, 0)" stroke="rgb(204, 204, 204)" stroke-width="1px"></line><line x1="53.1875" y1="35.19999999999999" x2="48.1875" y2="35.19999999999999" style="visibility: inherit;" fill="rgb(0, 0, 0)" stroke="rgb(204, 204, 204)" stroke-width="1px"></line><line x1="53.1875" y1="17.599999999999994" x2="48.1875" y2="17.599999999999994" style="visibility: inherit;" fill="rgb(0, 0, 0)" stroke="rgb(204, 204, 204)" stroke-width="1px"></line><line x1="53.1875" y1="0" x2="48.1875" y2="0" style="visibility: inherit;" fill="rgb(0, 0, 0)" stroke="rgb(204, 204, 204)" stroke-width="1px"></line></g><g transform="translate(43.1875, 0)"><text x="0" y="176" dx="0em" dy="0.3em" style="text-anchor: end; visibility: hidden; font-family: Roboto, sans-serif; font-size: 12px; font-weight: 200;" fill="rgb(33, 33, 33)" stroke="none" stroke-width="1px">-600</text><text x="0" y="158.4" dx="0em" dy="0.3em" style="text-anchor: end; visibility: inherit; font-family: Roboto, sans-serif; font-size: 12px; font-weight: 200;" fill="rgb(33, 33, 33)" stroke="none" stroke-width="1px">-500</text><text x="0" y="140.8" dx="0em" dy="0.3em" style="text-anchor: end; visibility: hidden; font-family: Roboto, sans-serif; font-size: 12px; font-weight: 200;" fill="rgb(33, 33, 33)" stroke="none" stroke-width="1px">-400</text><text x="0" y="123.19999999999999" dx="0em" dy="0.3em" style="text-anchor: end; visibility: inherit; font-family: Roboto, sans-serif; font-size: 12px; font-weight: 200;" fill="rgb(33, 33, 33)" stroke="none" stroke-width="1px">-300</text><text x="0" y="105.6" dx="0em" dy="0.3em" style="text-anchor: end; visibility: hidden; font-family: Roboto, sans-serif; font-size: 12px; font-weight: 200;" fill="rgb(33, 33, 33)" stroke="none" stroke-width="1px">-200</text><text x="0" y="88" dx="0em" dy="0.3em" style="text-anchor: end; visibility: inherit; font-family: Roboto, sans-serif; font-size: 12px; font-weight: 200;" fill="rgb(33, 33, 33)" stroke="none" stroke-width="1px">-100</text><text x="0" y="70.4" dx="0em" dy="0.3em" style="text-anchor: end; visibility: hidden; font-family: Roboto, sans-serif; font-size: 12px; font-weight: 200;" fill="rgb(33, 33, 33)" stroke="none" stroke-width="1px">0</text><text x="0" y="52.80000000000001" dx="0em" dy="0.3em" style="text-anchor: end; visibility: inherit; font-family: Roboto, sans-serif; font-size: 12px; font-weight: 200;" fill="rgb(33, 33, 33)" stroke="none" stroke-width="1px">100</text><text x="0" y="35.19999999999999" dx="0em" dy="0.3em" style="text-anchor: end; visibility: hidden; font-family: Roboto, sans-serif; font-size: 12px; font-weight: 200;" fill="rgb(33, 33, 33)" stroke="none" stroke-width="1px">200</text><text x="0" y="17.599999999999994" dx="0em" dy="0.3em" style="text-anchor: end; visibility: inherit; font-family: Roboto, sans-serif; font-size: 12px; font-weight: 200;" fill="rgb(33, 33, 33)" stroke="none" stroke-width="1px">300</text><text x="0" y="0" dx="0em" dy="0.3em" style="text-anchor: end; visibility: hidden; font-family: Roboto, sans-serif; font-size: 12px; font-weight: 200;" fill="rgb(33, 33, 33)" stroke="none" stroke-width="1px">400</text></g><line x1="53.1875" y1="0" x2="53.1875" y2="176" fill="rgb(0, 0, 0)" stroke="rgb(204, 204, 204)" stroke-width="1px"></line></g></g><g transform="translate(53, 0)" clip-path="url(#clip_0)"><clipPath id="clip_0"><rect width="276" height="176"></rect></clipPath><g><g><g><line x1="0" y1="0" x2="0" y2="176" fill="rgb(0, 0, 0)" stroke="rgb(66, 66, 66)" stroke-width="1px" opacity="0.25"></line><line x1="19.772321428571427" y1="0" x2="19.772321428571427" y2="176" fill="rgb(0, 0, 0)" stroke="rgb(66, 66, 66)" stroke-width="1px" opacity="0.25"></line><line x1="39.544642857142854" y1="0" x2="39.544642857142854" y2="176" fill="rgb(0, 0, 0)" stroke="rgb(66, 66, 66)" stroke-width="1px" opacity="0.25"></line><line x1="59.316964285714285" y1="0" x2="59.316964285714285" y2="176" fill="rgb(0, 0, 0)" stroke="rgb(66, 66, 66)" stroke-width="1px" opacity="0.25"></line><line x1="79.08928571428571" y1="0" x2="79.08928571428571" y2="176" fill="rgb(0, 0, 0)" stroke="rgb(66, 66, 66)" stroke-width="1px" opacity="0.25"></line><line x1="98.86160714285714" y1="0" x2="98.86160714285714" y2="176" fill="rgb(0, 0, 0)" stroke="rgb(66, 66, 66)" stroke-width="1px" opacity="0.25"></line><line x1="118.63392857142857" y1="0" x2="118.63392857142857" y2="176" fill="rgb(0, 0, 0)" stroke="rgb(66, 66, 66)" stroke-width="1px" opacity="0.25"></line><line x1="138.40625" y1="0" x2="138.40625" y2="176" fill="rgb(0, 0, 0)" stroke="rgb(66, 66, 66)" stroke-width="1px" opacity="0.25"></line><line x1="158.17857142857142" y1="0" x2="158.17857142857142" y2="176" fill="rgb(0, 0, 0)" stroke="rgb(66, 66, 66)" stroke-width="1px" opacity="0.25"></line><line x1="177.95089285714286" y1="0" x2="177.95089285714286" y2="176" fill="rgb(0, 0, 0)" stroke="rgb(66, 66, 66)" stroke-width="1px" opacity="0.25"></line><line x1="197.72321428571428" y1="0" x2="197.72321428571428" y2="176" fill="rgb(0, 0, 0)" stroke="rgb(66, 66, 66)" stroke-width="1px" opacity="0.25"></line><line x1="217.49553571428572" y1="0" x2="217.49553571428572" y2="176" fill="rgb(0, 0, 0)" stroke="rgb(66, 66, 66)" stroke-width="1px" opacity="0.25"></line><line x1="237.26785714285714" y1="0" x2="237.26785714285714" y2="176" fill="rgb(0, 0, 0)" stroke="rgb(66, 66, 66)" stroke-width="1px" opacity="0.25"></line><line x1="257.04017857142856" y1="0" x2="257.04017857142856" y2="176" fill="rgb(0, 0, 0)" stroke="rgb(66, 66, 66)" stroke-width="1px" opacity="0.25"></line><line x1="276.8125" y1="0" x2="276.8125" y2="176" fill="rgb(0, 0, 0)" stroke="rgb(66, 66, 66)" stroke-width="1px" opacity="0.25"></line></g><g><line x1="0" y1="176" x2="276.8125" y2="176" fill="rgb(0, 0, 0)" stroke="rgb(66, 66, 66)" stroke-width="1px" opacity="0.25"></line><line x1="0" y1="158.4" x2="276.8125" y2="158.4" fill="rgb(0, 0, 0)" stroke="rgb(66, 66, 66)" stroke-width="1px" opacity="0.25"></line><line x1="0" y1="140.8" x2="276.8125" y2="140.8" fill="rgb(0, 0, 0)" stroke="rgb(66, 66, 66)" stroke-width="1px" opacity="0.25"></line><line x1="0" y1="123.19999999999999" x2="276.8125" y2="123.19999999999999" fill="rgb(0, 0, 0)" stroke="rgb(66, 66, 66)" stroke-width="1px" opacity="0.25"></line><line x1="0" y1="105.6" x2="276.8125" y2="105.6" fill="rgb(0, 0, 0)" stroke="rgb(66, 66, 66)" stroke-width="1px" opacity="0.25"></line><line x1="0" y1="88" x2="276.8125" y2="88" fill="rgb(0, 0, 0)" stroke="rgb(66, 66, 66)" stroke-width="1px" opacity="0.25"></line><line x1="0" y1="70.4" x2="276.8125" y2="70.4" fill="rgb(0, 0, 0)" stroke="rgb(66, 66, 66)" stroke-width="1px" opacity="0.25"></line><line x1="0" y1="52.80000000000001" x2="276.8125" y2="52.80000000000001" fill="rgb(0, 0, 0)" stroke="rgb(66, 66, 66)" stroke-width="1px" opacity="0.25"></line><line x1="0" y1="35.19999999999999" x2="276.8125" y2="35.19999999999999" fill="rgb(0, 0, 0)" stroke="rgb(66, 66, 66)" stroke-width="1px" opacity="0.25"></line><line x1="0" y1="17.599999999999994" x2="276.8125" y2="17.599999999999994" fill="rgb(0, 0, 0)" stroke="rgb(66, 66, 66)" stroke-width="1px" opacity="0.25"></line><line x1="0" y1="0" x2="276.8125" y2="0" fill="rgb(0, 0, 0)" stroke="rgb(66, 66, 66)" stroke-width="1px" opacity="0.25"></line></g></g></g><g><g><line x1="0" y1="70.4" x2="276.8125" y2="70.4" fill="rgb(0, 0, 0)" stroke="rgb(153, 153, 153)" stroke-width="1.5px"></line></g></g><g><g><line x1="19.772321428571427" y1="0" x2="19.772321428571427" y2="176" fill="rgb(0, 0, 0)" stroke="rgb(153, 153, 153)" stroke-width="1.5px"></line></g></g><g><g><g><g><g><path stroke="rgb(51, 187, 238)" stroke-width="2px" d="M21.74955357142857,188.77847839318318L23.726785714285715,151.75423009274726L25.70401785714286,121.19386720766684L27.681250000000002,109.00975881505123L29.658482142857142,93.6369452697712L31.635714285714286,84.22236747993654L33.612946428571426,86.84131733868665L35.59017857142857,74.07164845268505L37.567410714285714,77.38766741152182L39.544642857142854,80.06610076614777L41.521875,77.92407547032842L43.49910714285714,75.22932564643523L45.47633928571429,79.35715702125724L47.45357142857143,86.78792726682292L49.43080357142857,93.19514796217524L51.40803571428572,95.36291828448583L53.38526785714286,84.24811272450985L55.362500000000004,70.37904432926167L57.339732142857144,65.17070932033671L59.316964285714285,60.439762097511085L61.294196428571425,62.11070786194797L63.27142857142857,52.94305343332575L65.24866071428572,58.54700317385658L67.22589285714285,57.563451262075574L69.203125,58.12485695262848L71.18035714285713,60.93630166826344L73.15758928571428,57.403306904879926L75.13482142857143,53.874956663970494L77.11205357142858,50.60091936178343L79.08928571428571,55.03025217164715L81.06651785714286,59.07211909305026L83.04375,58.52943632243657L85.02098214285715,59.37429980998608L86.99821428571428,60.043210907465046L88.97544642857143,52.116663625677155L90.95267857142858,52.737606761067816L92.92991071428571,52.63421714203947L94.90714285714286,47.3526814473515L96.88437499999999,48.22923018932002L98.86160714285714,49.35833902719907L100.83883928571429,49.45603599534947L102.81607142857143,52.97461516493659L104.79330357142857,53.28926955220004L106.77053571428571,51.29247231738913L108.74776785714286,58.490851710918975L110.72500000000001,54.637089646390116L112.70223214285714,56.243200643628626L114.67946428571429,53.25468201265703L116.65669642857142,54.47466453445246L118.63392857142857,46.21130529428546L120.61116071428572,44.290893304021196L122.58839285714285,39.16048439413461L124.565625,37.93508746537465L126.54285714285714,33.69139724011585L128.52008928571428,35.989264425436296L130.49732142857144,37.21546502556986L132.47455357142857,34.79948001142324L134.4517857142857,35.068129647346446L136.42901785714287,36.748839363249004L138.40625,33.36846371056235L140.38348214285713,33.33117016589154L142.36071428571427,32.239046416667364L144.33794642857143,37.38018684591985L146.31517857142856,37.355844141926454L148.29241071428572,37.21452778325866L150.26964285714286,33.54223736463481L152.24687500000002,31.557946625459998L154.22410714285715,30.219215680170713L156.20133928571428,30.803547682349787L158.17857142857142,29.482809159750875L160.15580357142858,34.288454289719894L162.1330357142857,40.08026010828994L164.11026785714284,34.06543124963038L166.0875,31.20320829351234L168.06473214285714,29.614126932728432L170.0419642857143,37.95431561774438L172.01919642857143,35.40022494220965L173.99642857142857,40.10397663784082L175.9736607142857,34.33200897813164L177.95089285714286,37.594985772938664L179.928125,41.703703851999556L181.90535714285716,36.240281576835706L183.8825892857143,32.538805053905364L185.85982142857142,36.63045164966116L187.83705357142858,35.868452410732125L189.81428571428572,32.299718900100764L191.79151785714285,30.88467125276481L193.76874999999998,29.78629961552776L195.74598214285714,28.388894652784366L197.72321428571428,26.736379261740325L199.70044642857144,28.061427865299027L201.67767857142857,30.735562117387282L203.65491071428573,27.679798441480013L205.63214285714287,25.903438397871646L207.609375,24.949734889831483L209.58660714285713,25.781639534161652L211.56383928571427,24.997082220465938L213.54107142857143,27.94837186775962L215.51830357142856,29.783219110969434L217.49553571428572,27.130273888353344L219.47276785714286,24.858942110211203L221.45000000000002,24.9064437768658L223.42723214285715,27.136107348524703L225.40446428571428,25.993669025101397L227.38169642857142,25.133417183140203L229.35892857142858,25.397091248759143L231.3361607142857,25.31530567295212L233.31339285714284,25.514045547708207L235.290625,24.322363287176373L237.26785714285714,24.24726359365441L239.2450892857143,23.633486490719783L241.22232142857143,25.563611813532802L243.19955357142857,28.8153063961016L245.1767857142857,27.199058012693335L247.15401785714286,28.17043430216181L249.13125,35.01539725629004L251.10848214285716,30.431732435794498L253.0857142857143,27.924259956215852L255.06294642857142,26.87744315184679L257.04017857142856,25.073363946637503L259.0174107142857,26.489453017687904L260.9946428571429,24.44689429037333L262.971875,23.322025028710062L264.94910714285714,21.907582093460555L266.9263392857143,24.95651128609514" style="fill: none;" fill="none"></path></g></g></g></g><g opacity="0.2"><g><g><g><path stroke="rgb(51, 187, 238)" stroke-width="2px" d="M21.74955357142857,193.60000000000002L23.726785714285715,112.64L25.70401785714286,80.78399999999999L27.681250000000002,90.816L29.658482142857142,68.992L31.635714285714286,68.464L33.612946428571426,91.34400000000001L35.59017857142857,51.74400000000001L37.567410714285714,83.24799999999999L39.544642857142854,84.832L41.521875,74.096L43.49910714285714,70.4L45.47633928571429,86.768L47.45357142857143,100.14399999999999L49.43080357142857,104.72L51.40803571428572,99.26400000000001L53.38526785714286,64.24L55.362500000000004,45.408L57.339732142857144,55.79199999999999L59.316964285714285,51.92000000000001L61.294196428571425,65.12L63.27142857142857,36.431999999999995L65.24866071428572,68.64L67.22589285714285,55.79199999999999L69.203125,59.135999999999996L71.18035714285713,66L73.15758928571428,51.040000000000006L75.13482142857143,47.52L77.11205357142858,44.704L79.08928571428571,63.007999999999996L81.06651785714286,66.352L83.04375,57.55199999999999L85.02098214285715,60.895999999999994L86.99821428571428,61.248L88.97544642857143,37.839999999999996L90.95267857142858,53.85600000000001L92.92991071428571,52.44800000000001L94.90714285714286,37.839999999999996L96.88437499999999,49.80800000000001L98.86160714285714,51.39200000000001L100.83883928571429,49.632000000000005L102.81607142857143,59.312L104.79330357142857,53.85600000000001L106.77053571428571,47.696000000000005L108.74776785714286,71.456L110.72500000000001,47.696000000000005L112.70223214285714,59.135999999999996L114.67946428571429,47.872L116.65669642857142,56.67199999999999L118.63392857142857,31.32800000000001L120.61116071428572,40.831999999999994L122.58839285714285,29.92000000000001L124.565625,35.727999999999994L126.54285714285714,26.048000000000002L128.52008928571428,40.128L130.49732142857144,39.42399999999999L132.47455357142857,30.448000000000008L134.4517857142857,35.55199999999999L136.42901785714287,39.775999999999996L138.40625,27.280000000000005L140.38348214285713,33.26399999999999L142.36071428571427,30.272000000000006L144.33794642857143,46.64L146.31517857142856,37.312L148.29241071428572,36.959999999999994L150.26964285714286,26.928000000000004L152.24687500000002,27.984000000000005L154.22410714285715,27.808000000000007L156.20133928571428,31.85600000000001L158.17857142857142,27.104000000000006L160.15580357142858,42.944L162.1330357142857,50.51200000000001L164.11026785714284,23.232L166.0875,26.048000000000002L168.06473214285714,26.752000000000002L170.0419642857143,52.976000000000006L172.01919642857143,30.800000000000008L173.99642857142857,48.57600000000001L175.9736607142857,23.936L177.95089285714286,43.472L179.928125,49.104000000000006L181.90535714285716,26.400000000000006L183.8825892857143,25.872000000000003L185.85982142857142,44L187.83705357142858,34.495999999999995L189.81428571428572,25.872000000000003L191.79151785714285,28.336000000000006L193.76874999999998,27.808000000000007L195.74598214285714,25.872000000000003L197.72321428571428,23.76L199.70044642857144,30.448000000000008L201.67767857142857,35.55199999999999L203.65491071428573,22.176000000000002L205.63214285714287,22.704L207.609375,23.232L209.58660714285713,27.280000000000005L211.56383928571427,23.584000000000003L213.54107142857143,33.26399999999999L215.51830357142856,33.087999999999994L217.49553571428572,22.352L219.47276785714286,20.768L221.45000000000002,24.992000000000004L223.42723214285715,31.152000000000008L225.40446428571428,23.936L227.38169642857142,23.584000000000003L229.35892857142858,25.872000000000003L231.3361607142857,25.168000000000003L233.31339285714284,25.872000000000003L235.290625,22.176000000000002L237.26785714285714,24.112000000000002L239.2450892857143,22.528L241.22232142857143,29.040000000000006L243.19955357142857,34.67199999999999L245.1767857142857,24.288000000000004L247.15401785714286,29.92000000000001L249.13125,47.344L251.10848214285716,22.176000000000002L253.0857142857143,23.408L255.06294642857142,24.992000000000004L257.04017857142856,21.823999999999998L259.0174107142857,29.040000000000006L260.9946428571429,20.768L262.971875,21.296L264.94910714285714,19.36L266.9263392857143,30.448000000000008" style="fill: none;" fill="none"></path></g></g></g></g></g></g><g transform="translate(53, 176)" clip-path="url(#clip_1)"><clipPath id="clip_1"><rect width="276" height="24"></rect></clipPath><g><g><line x1="0" y1="0" x2="0" y2="5" style="visibility: inherit;" fill="rgb(0, 0, 0)" stroke="rgb(204, 204, 204)" stroke-width="1px"></line><line x1="19.772321428571427" y1="0" x2="19.772321428571427" y2="5" style="visibility: inherit;" fill="rgb(0, 0, 0)" stroke="rgb(204, 204, 204)" stroke-width="1px"></line><line x1="39.544642857142854" y1="0" x2="39.544642857142854" y2="5" style="visibility: inherit;" fill="rgb(0, 0, 0)" stroke="rgb(204, 204, 204)" stroke-width="1px"></line><line x1="59.316964285714285" y1="0" x2="59.316964285714285" y2="5" style="visibility: inherit;" fill="rgb(0, 0, 0)" stroke="rgb(204, 204, 204)" stroke-width="1px"></line><line x1="79.08928571428571" y1="0" x2="79.08928571428571" y2="5" style="visibility: inherit;" fill="rgb(0, 0, 0)" stroke="rgb(204, 204, 204)" stroke-width="1px"></line><line x1="98.86160714285714" y1="0" x2="98.86160714285714" y2="5" style="visibility: inherit;" fill="rgb(0, 0, 0)" stroke="rgb(204, 204, 204)" stroke-width="1px"></line><line x1="118.63392857142857" y1="0" x2="118.63392857142857" y2="5" style="visibility: inherit;" fill="rgb(0, 0, 0)" stroke="rgb(204, 204, 204)" stroke-width="1px"></line><line x1="138.40625" y1="0" x2="138.40625" y2="5" style="visibility: inherit;" fill="rgb(0, 0, 0)" stroke="rgb(204, 204, 204)" stroke-width="1px"></line><line x1="158.17857142857142" y1="0" x2="158.17857142857142" y2="5" style="visibility: inherit;" fill="rgb(0, 0, 0)" stroke="rgb(204, 204, 204)" stroke-width="1px"></line><line x1="177.95089285714286" y1="0" x2="177.95089285714286" y2="5" style="visibility: inherit;" fill="rgb(0, 0, 0)" stroke="rgb(204, 204, 204)" stroke-width="1px"></line><line x1="197.72321428571428" y1="0" x2="197.72321428571428" y2="5" style="visibility: inherit;" fill="rgb(0, 0, 0)" stroke="rgb(204, 204, 204)" stroke-width="1px"></line><line x1="217.49553571428572" y1="0" x2="217.49553571428572" y2="5" style="visibility: inherit;" fill="rgb(0, 0, 0)" stroke="rgb(204, 204, 204)" stroke-width="1px"></line><line x1="237.26785714285714" y1="0" x2="237.26785714285714" y2="5" style="visibility: inherit;" fill="rgb(0, 0, 0)" stroke="rgb(204, 204, 204)" stroke-width="1px"></line><line x1="257.04017857142856" y1="0" x2="257.04017857142856" y2="5" style="visibility: inherit;" fill="rgb(0, 0, 0)" stroke="rgb(204, 204, 204)" stroke-width="1px"></line><line x1="276.8125" y1="0" x2="276.8125" y2="5" style="visibility: inherit;" fill="rgb(0, 0, 0)" stroke="rgb(204, 204, 204)" stroke-width="1px"></line></g><g transform="translate(0, 8)"><text x="0" y="0" dx="0em" dy="0.95em" style="text-anchor: middle; visibility: hidden; font-family: Roboto, sans-serif; font-size: 12px; font-weight: 200;" fill="rgb(33, 33, 33)" stroke="none" stroke-width="1px">-20k</text><text x="19.772321428571427" y="0" dx="0em" dy="0.95em" style="text-anchor: middle; visibility: inherit; font-family: Roboto, sans-serif; font-size: 12px; font-weight: 200;" fill="rgb(33, 33, 33)" stroke="none" stroke-width="1px">0</text><text x="39.544642857142854" y="0" dx="0em" dy="0.95em" style="text-anchor: middle; visibility: hidden; font-family: Roboto, sans-serif; font-size: 12px; font-weight: 200;" fill="rgb(33, 33, 33)" stroke="none" stroke-width="1px">20k</text><text x="59.316964285714285" y="0" dx="0em" dy="0.95em" style="text-anchor: middle; visibility: inherit; font-family: Roboto, sans-serif; font-size: 12px; font-weight: 200;" fill="rgb(33, 33, 33)" stroke="none" stroke-width="1px">40k</text><text x="79.08928571428571" y="0" dx="0em" dy="0.95em" style="text-anchor: middle; visibility: hidden; font-family: Roboto, sans-serif; font-size: 12px; font-weight: 200;" fill="rgb(33, 33, 33)" stroke="none" stroke-width="1px">60k</text><text x="98.86160714285714" y="0" dx="0em" dy="0.95em" style="text-anchor: middle; visibility: inherit; font-family: Roboto, sans-serif; font-size: 12px; font-weight: 200;" fill="rgb(33, 33, 33)" stroke="none" stroke-width="1px">80k</text><text x="118.63392857142857" y="0" dx="0em" dy="0.95em" style="text-anchor: middle; visibility: hidden; font-family: Roboto, sans-serif; font-size: 12px; font-weight: 200;" fill="rgb(33, 33, 33)" stroke="none" stroke-width="1px">100k</text><text x="138.40625" y="0" dx="0em" dy="0.95em" style="text-anchor: middle; visibility: inherit; font-family: Roboto, sans-serif; font-size: 12px; font-weight: 200;" fill="rgb(33, 33, 33)" stroke="none" stroke-width="1px">120k</text><text x="158.17857142857142" y="0" dx="0em" dy="0.95em" style="text-anchor: middle; visibility: hidden; font-family: Roboto, sans-serif; font-size: 12px; font-weight: 200;" fill="rgb(33, 33, 33)" stroke="none" stroke-width="1px">140k</text><text x="177.95089285714286" y="0" dx="0em" dy="0.95em" style="text-anchor: middle; visibility: inherit; font-family: Roboto, sans-serif; font-size: 12px; font-weight: 200;" fill="rgb(33, 33, 33)" stroke="none" stroke-width="1px">160k</text><text x="197.72321428571428" y="0" dx="0em" dy="0.95em" style="text-anchor: middle; visibility: hidden; font-family: Roboto, sans-serif; font-size: 12px; font-weight: 200;" fill="rgb(33, 33, 33)" stroke="none" stroke-width="1px">180k</text><text x="217.49553571428572" y="0" dx="0em" dy="0.95em" style="text-anchor: middle; visibility: inherit; font-family: Roboto, sans-serif; font-size: 12px; font-weight: 200;" fill="rgb(33, 33, 33)" stroke="none" stroke-width="1px">200k</text><text x="237.26785714285714" y="0" dx="0em" dy="0.95em" style="text-anchor: middle; visibility: hidden; font-family: Roboto, sans-serif; font-size: 12px; font-weight: 200;" fill="rgb(33, 33, 33)" stroke="none" stroke-width="1px">220k</text><text x="257.04017857142856" y="0" dx="0em" dy="0.95em" style="text-anchor: middle; visibility: inherit; font-family: Roboto, sans-serif; font-size: 12px; font-weight: 200;" fill="rgb(33, 33, 33)" stroke="none" stroke-width="1px">240k</text><text x="276.8125" y="0" dx="0em" dy="0.95em" style="text-anchor: middle; visibility: hidden; font-family: Roboto, sans-serif; font-size: 12px; font-weight: 200;" fill="rgb(33, 33, 33)" stroke="none" stroke-width="1px">260k</text></g><line x1="0" y1="0" x2="276.8125" y2="0" fill="rgb(0, 0, 0)" stroke="rgb(204, 204, 204)" stroke-width="1px"></line></g></g></g></g></svg>