<svg viewBox="0 0 330 200" xmlns="http://www.w3.org/2000/svg"><g><g><g><g><g><line x1="53.1875" y1="176" x2="48.1875" y2="176" style="visibility: inherit;" fill="rgb(0, 0, 0)" stroke="rgb(204, 204, 204)" stroke-width="1px"></line><line x1="53.1875" y1="160" x2="48.1875" y2="160" style="visibility: inherit;" fill="rgb(0, 0, 0)" stroke="rgb(204, 204, 204)" stroke-width="1px"></line><line x1="53.1875" y1="144" x2="48.1875" y2="144" style="visibility: inherit;" fill="rgb(0, 0, 0)" stroke="rgb(204, 204, 204)" stroke-width="1px"></line><line x1="53.1875" y1="128" x2="48.1875" y2="128" style="visibility: inherit;" fill="rgb(0, 0, 0)" stroke="rgb(204, 204, 204)" stroke-width="1px"></line><line x1="53.1875" y1="112" x2="48.1875" y2="112" style="visibility: inherit;" fill="rgb(0, 0, 0)" stroke="rgb(204, 204, 204)" stroke-width="1px"></line><line x1="53.1875" y1="96" x2="48.1875" y2="96" style="visibility: inherit;" fill="rgb(0, 0, 0)" stroke="rgb(204, 204, 204)" stroke-width="1px"></line><line x1="53.1875" y1="80" x2="48.1875" y2="80" style="visibility: inherit;" fill="rgb(0, 0, 0)" stroke="rgb(204, 204, 204)" stroke-width="1px"></line><line x1="53.1875" y1="64" x2="48.1875" y2="64" style="visibility: inherit;" fill="rgb(0, 0, 0)" stroke="rgb(204, 204, 204)" stroke-width="1px"></line><line x1="53.1875" y1="48" x2="48.1875" y2="48" style="visibility: inherit;" fill="rgb(0, 0, 0)" stroke="rgb(204, 204, 204)" stroke-width="1px"></line><line x1="53.1875" y1="31.999999999999993" x2="48.1875" y2="31.999999999999993" style="visibility: inherit;" fill="rgb(0, 0, 0)" stroke="rgb(204, 204, 204)" stroke-width="1px"></line><line x1="53.1875" y1="16.000000000000007" x2="48.1875" y2="16.000000000000007" style="visibility: inherit;" fill="rgb(0, 0, 0)" stroke="rgb(204, 204, 204)" stroke-width="1px"></line><line x1="53.1875" y1="0" x2="48.1875" y2="0" style="visibility: inherit;" fill="rgb(0, 0, 0)" stroke="rgb(204, 204, 204)" stroke-width="1px"></line></g><g transform="translate(43.1875, 0)"><text x="0" y="176" dx="0em" dy="0.3em" style="text-anchor: end; visibility: hidden; font-family: Roboto, sans-serif; font-size: 12px; font-weight: 200;" fill="rgb(33, 33, 33)" stroke="none" stroke-width="1px">-700</text><text x="0" y="160" dx="0em" dy="0.3em" style="text-anchor: end; visibility: inherit; font-family: Roboto, sans-serif; font-size: 12px; font-weight: 200;" fill="rgb(33, 33, 33)" stroke="none" stroke-width="1px">-600</text><text x="0" y="144" dx="0em" dy="0.3em" style="text-anchor: end; visibility: hidden; font-family: Roboto, sans-serif; font-size: 12px; font-weight: 200;" fill="rgb(33, 33, 33)" stroke="none" stroke-width="1px">-500</text><text x="0" y="128" dx="0em" dy="0.3em" style="text-anchor: end; visibility: inherit; font-family: Roboto, sans-serif; font-size: 12px; font-weight: 200;" fill="rgb(33, 33, 33)" stroke="none" stroke-width="1px">-400</text><text x="0" y="112" dx="0em" dy="0.3em" style="text-anchor: end; visibility: hidden; font-family: Roboto, sans-serif; font-size: 12px; font-weight: 200;" fill="rgb(33, 33, 33)" stroke="none" stroke-width="1px">-300</text><text x="0" y="96" dx="0em" dy="0.3em" style="text-anchor: end; visibility: inherit; font-family: Roboto, sans-serif; font-size: 12px; font-weight: 200;" fill="rgb(33, 33, 33)" stroke="none" stroke-width="1px">-200</text><text x="0" y="80" dx="0em" dy="0.3em" style="text-anchor: end; visibility: hidden; font-family: Roboto, sans-serif; font-size: 12px; font-weight: 200;" fill="rgb(33, 33, 33)" stroke="none" stroke-width="1px">-100</text><text x="0" y="64" dx="0em" dy="0.3em" style="text-anchor: end; visibility: inherit; font-family: Roboto, sans-serif; font-size: 12px; font-weight: 200;" fill="rgb(33, 33, 33)" stroke="none" stroke-width="1px">0</text><text x="0" y="48" dx="0em" dy="0.3em" style="text-anchor: end; visibility: hidden; font-family: Roboto, sans-serif; font-size: 12px; font-weight: 200;" fill="rgb(33, 33, 33)" stroke="none" stroke-width="1px">100</text><text x="0" y="31.999999999999993" dx="0em" dy="0.3em" style="text-anchor: end; visibility: inherit; font-family: Roboto, sans-serif; font-size: 12px; font-weight: 200;" fill="rgb(33, 33, 33)" stroke="none" stroke-width="1px">200</text><text x="0" y="16.000000000000007" dx="0em" dy="0.3em" style="text-anchor: end; visibility: hidden; font-family: Roboto, sans-serif; font-size: 12px; font-weight: 200;" fill="rgb(33, 33, 33)" stroke="none" stroke-width="1px">300</text><text x="0" y="0" dx="0em" dy="0.3em" style="text-anchor: end; visibility: hidden; font-family: Roboto, sans-serif; font-size: 12px; font-weight: 200;" fill="rgb(33, 33, 33)" stroke="none" stroke-width="1px">400</text></g><line x1="53.1875" y1="0" x2="53.1875" y2="176" fill="rgb(0, 0, 0)" stroke="rgb(204, 204, 204)" stroke-width="1px"></line></g></g><g transform="translate(53, 0)" clip-path="url(#clip_0)"><clipPath id="clip_0"><rect width="276" height="176"></rect></clipPath><g><g><g><line x1="0" y1="0" x2="0" y2="176" fill="rgb(0, 0, 0)" stroke="rgb(66, 66, 66)" stroke-width="1px" opacity="0.25"></line><line x1="19.772321428571427" y1="0" x2="19.772321428571427" y2="176" fill="rgb(0, 0, 0)" stroke="rgb(66, 66, 66)" stroke-width="1px" opacity="0.25"></line><line x1="39.544642857142854" y1="0" x2="39.544642857142854" y2="176" fill="rgb(0, 0, 0)" stroke="rgb(66, 66, 66)" stroke-width="1px" opacity="0.25"></line><line x1="59.316964285714285" y1="0" x2="59.316964285714285" y2="176" fill="rgb(0, 0, 0)" stroke="rgb(66, 66, 66)" stroke-width="1px" opacity="0.25"></line><line x1="79.08928571428571" y1="0" x2="79.08928571428571" y2="176" fill="rgb(0, 0, 0)" stroke="rgb(66, 66, 66)" stroke-width="1px" opacity="0.25"></line><line x1="98.86160714285714" y1="0" x2="98.86160714285714" y2="176" fill="rgb(0, 0, 0)" stroke="rgb(66, 66, 66)" stroke-width="1px" opacity="0.25"></line><line x1="118.63392857142857" y1="0" x2="118.63392857142857" y2="176" fill="rgb(0, 0, 0)" stroke="rgb(66, 66, 66)" stroke-width="1px" opacity="0.25"></line><line x1="138.40625" y1="0" x2="138.40625" y2="176" fill="rgb(0, 0, 0)" stroke="rgb(66, 66, 66)" stroke-width="1px" opacity="0.25"></line><line x1="158.17857142857142" y1="0" x2="158.17857142857142" y2="176" fill="rgb(0, 0, 0)" stroke="rgb(66, 66, 66)" stroke-width="1px" opacity="0.25"></line><line x1="177.95089285714286" y1="0" x2="177.95089285714286" y2="176" fill="rgb(0, 0, 0)" stroke="rgb(66, 66, 66)" stroke-width="1px" opacity="0.25"></line><line x1="197.72321428571428" y1="0" x2="197.72321428571428" y2="176" fill="rgb(0, 0, 0)" stroke="rgb(66, 66, 66)" stroke-width="1px" opacity="0.25"></line><line x1="217.49553571428572" y1="0" x2="217.49553571428572" y2="176" fill="rgb(0, 0, 0)" stroke="rgb(66, 66, 66)" stroke-width="1px" opacity="0.25"></line><line x1="237.26785714285714" y1="0" x2="237.26785714285714" y2="176" fill="rgb(0, 0, 0)" stroke="rgb(66, 66, 66)" stroke-width="1px" opacity="0.25"></line><line x1="257.04017857142856" y1="0" x2="257.04017857142856" y2="176" fill="rgb(0, 0, 0)" stroke="rgb(66, 66, 66)" stroke-width="1px" opacity="0.25"></line><line x1="276.8125" y1="0" x2="276.8125" y2="176" fill="rgb(0, 0, 0)" stroke="rgb(66, 66, 66)" stroke-width="1px" opacity="0.25"></line></g><g><line x1="0" y1="176" x2="276.8125" y2="176" fill="rgb(0, 0, 0)" stroke="rgb(66, 66, 66)" stroke-width="1px" opacity="0.25"></line><line x1="0" y1="160" x2="276.8125" y2="160" fill="rgb(0, 0, 0)" stroke="rgb(66, 66, 66)" stroke-width="1px" opacity="0.25"></line><line x1="0" y1="144" x2="276.8125" y2="144" fill="rgb(0, 0, 0)" stroke="rgb(66, 66, 66)" stroke-width="1px" opacity="0.25"></line><line x1="0" y1="128" x2="276.8125" y2="128" fill="rgb(0, 0, 0)" stroke="rgb(66, 66, 66)" stroke-width="1px" opacity="0.25"></line><line x1="0" y1="112" x2="276.8125" y2="112" fill="rgb(0, 0, 0)" stroke="rgb(66, 66, 66)" stroke-width="1px" opacity="0.25"></line><line x1="0" y1="96" x2="276.8125" y2="96" fill="rgb(0, 0, 0)" stroke="rgb(66, 66, 66)" stroke-width="1px" opacity="0.25"></line><line x1="0" y1="80" x2="276.8125" y2="80" fill="rgb(0, 0, 0)" stroke="rgb(66, 66, 66)" stroke-width="1px" opacity="0.25"></line><line x1="0" y1="64" x2="276.8125" y2="64" fill="rgb(0, 0, 0)" stroke="rgb(66, 66, 66)" stroke-width="1px" opacity="0.25"></line><line x1="0" y1="48" x2="276.8125" y2="48" fill="rgb(0, 0, 0)" stroke="rgb(66, 66, 66)" stroke-width="1px" opacity="0.25"></line><line x1="0" y1="31.999999999999993" x2="276.8125" y2="31.999999999999993" fill="rgb(0, 0, 0)" stroke="rgb(66, 66, 66)" stroke-width="1px" opacity="0.25"></line><line x1="0" y1="16.000000000000007" x2="276.8125" y2="16.000000000000007" fill="rgb(0, 0, 0)" stroke="rgb(66, 66, 66)" stroke-width="1px" opacity="0.25"></line><line x1="0" y1="0" x2="276.8125" y2="0" fill="rgb(0, 0, 0)" stroke="rgb(66, 66, 66)" stroke-width="1px" opacity="0.25"></line></g></g></g><g><g><line x1="0" y1="64" x2="276.8125" y2="64" fill="rgb(0, 0, 0)" stroke="rgb(153, 153, 153)" stroke-width="1.5px"></line></g></g><g><g><line x1="19.772321428571427" y1="0" x2="19.772321428571427" y2="176" fill="rgb(0, 0, 0)" stroke="rgb(153, 153, 153)" stroke-width="1.5px"></line></g></g><g><g><g><g><g><path stroke="rgb(0, 119, 187)" stroke-width="2px" d="M19.772321428571427,152.16L20.7609375,144.70658385093168L21.74955357142857,155.16691186115736L22.738169642857144,141.42051149776762L23.726785714285715,134.34054026194175L24.715401785714285,122.45708974020411L25.70401785714286,108.96933943506949L26.69263392857143,105.84826375210824L27.681250000000002,103.35103796561194L28.669866071428572,100.90347363234352L29.658482142857142,108.50901359968249L30.647098214285712,97.79886983669445L31.635714285714286,94.40862126967167L32.62433035714286,87.78431625937604L33.612946428571426,84.43441464676829L34.6015625,81.83043592824194L35.59017857142857,84.73641739464894L36.57879464285714,91.25170559628756L37.567410714285714,89.54659817476178L38.55602678571429,92.06355296389029L39.544642857142854,80.6816140086647L40.53325892857143,77.35812161625232L41.521875,69.71476590429742L42.510491071428575,71.41721919637266L43.49910714285714,65.71647920916541L44.487723214285715,57.683831258750956L45.47633928571429,64.01594719422235L46.464955357142856,60.70252455617151L47.45357142857143,61.42694041033993L48.442187499999996,60.80803342565011L49.43080357142857,58.30889983627817L50.41941964285714,50.41962783453596L51.40803571428572,53.78157325606405L52.39665178571428,46.909159340797984L53.38526785714286,45.52498715545078L54.37388392857143,41.74784209418708L55.362500000000004,50.675783779302755L56.35111607142857,49.445028096810105L57.339732142857144,44.82546711944476L58.32834821428571,40.01073493039421L59.316964285714285,34.764948299254684L60.30558035714286,39.17781846679716L61.294196428571425,36.31606926306431L62.2828125,44.86640225353469L63.27142857142857,44.216505374514036L64.26004464285714,56.61206828010719L65.24866071428572,64.67256165152132L66.23727678571429,59.730262607182674L67.22589285714285,60.085060190392184L68.21450892857143,63.85828671620892L69.203125,65.72315489690845L70.19174107142857,58.87352448706709L71.18035714285713,46.708049937059904L72.16897321428571,52.26631046162076L73.15758928571428,51.600849381587636L74.14620535714286,52.50531812276932L75.13482142857143,50.62344405488819L76.12343750000001,43.173100873479164L77.11205357142858,41.997991532822034L78.10066964285714,36.10197483502067L79.08928571428571,35.37580464936254L80.07790178571429,35.36964083611116L81.06651785714286,33.05708091002775L82.05513392857142,37.012819355117L83.04375,34.74581980662134L84.03236607142857,35.85895008203903L85.02098214285715,34.9155595500438L86.00959821428572,33.21689132552672L86.99821428571428,31.43190370857129L87.98683035714285,28.845461262228497L88.97544642857143,26.45653136995937L89.9640625,32.30008413567522L90.95267857142858,28.93825132276187L91.94129464285714,30.13233330688476L92.92991071428571,27.42872331719969L93.91852678571429,24.843521223491813L94.90714285714286,23.453747946330004L95.89575892857142,22.044386247261293L96.88437499999999,26.051875610829384L97.87299107142857,25.43884412260593L98.86160714285714,25.064894914789612L99.85022321428572,24.96158589802165L100.83883928571429,22.52736739779323L101.82745535714287,26.40889411265388L102.81607142857143,31.77182540871886L103.8046875,29.240013499318493L104.79330357142857,28.194808234584293L105.78191964285713,28.056433023096425L106.77053571428571,28.346424144088815L107.75915178571428,28.648118727894182L108.74776785714286,29.705752424015454L109.73638392857143,25.296508978649427L110.72500000000001,26.16367047697615L111.71361607142858,25.507038990955436L112.70223214285714,24.732093784482828L113.69084821428571,25.13297720853452L114.67946428571429,28.49751609720606L115.66808035714286,27.554684819295684L116.65669642857142,24.982757739770364L117.6453125,28.218682221259932L118.63392857142857,24.763796154968542L119.62254464285715,24.965115654530816L120.61116071428572,27.334320549263797L121.59977678571428,27.344335535050927L122.58839285714285,26.10244467638105L123.57700892857143,24.720891252592445L124.565625,26.498943664081388L125.55424107142858,24.96275563508963L126.54285714285714,26.27208093740468L127.53147321428571,24.44996937181686L128.52008928571428,22.402481316808306L129.50870535714284,25.771113603253042L130.49732142857144,26.328379297984355L131.4859375,25.233111371770455L132.47455357142857,24.003397936779983L133.46316964285714,26.061272741435783L134.4517857142857,23.385376372275832L135.44040178571427,24.249079587088254L136.42901785714287,21.843138548123818L137.41763392857143,22.24751451435554L138.40625,23.118183853756868L139.39486607142857,22.151692150791696L140.38348214285713,22.74773221198292L141.3720982142857,23.298516649309583L142.36071428571427,22.511295156078845L143.34933035714286,23.528690045208087L144.33794642857143,22.901300927576948L145.3265625,22.26899356582193L146.31517857142856,22.819286075151368L147.30379464285716,22.593364505842327L148.29241071428572,23.578752348563825L149.2810267857143,22.43263893262394L150.26964285714286,22.295109748900607L151.25825892857142,22.336016946829368L152.24687500000002,25.10657033756592L153.23549107142858,24.612607905915205L154.22410714285715,23.936890822608273L155.21272321428572,23.399903401791054L156.20133928571428,24.133141075092535L157.18995535714285,24.642816055806463L158.17857142857142,24.454517794041926L159.16718749999998,24.02765585436559L160.15580357142858,23.954470071163005L161.14441964285714,22.786626743409432L162.1330357142857,22.011842313479757L163.12165178571428,21.60162381122266L164.11026785714284,21.164190524845814L165.09888392857144,20.95975622015594L166.0875,20.89745129429514L167.07611607142857,20.547445289520038L168.06473214285714,23.516341626607232L169.05334821428573,22.269768392230404L170.0419642857143,21.134958719260545L171.03058035714287,20.56752481874893L172.01919642857143,20.221390139436842L173.0078125,21.071047985056467L173.99642857142857,20.840539270884435L174.98504464285713,20.824728955239507L175.9736607142857,22.187884662696113L176.96227678571427,23.081809644244625L177.95089285714286,21.692703882989218L178.93950892857143,21.282149368623433L179.928125,21.21891111486029L180.91674107142856,20.431535780064777L181.90535714285716,19.95123682583951L182.89397321428572,20.59425446376209L183.8825892857143,20.86169522289489L184.87120535714286,23.084034085965875L185.85982142857142,21.631660792439188L186.84843750000002,21.432113083387904L187.83705357142858,20.623988980866606L188.82566964285715,19.881433278328636L189.81428571428572,19.55327429978047L190.80290178571428,18.916297322866086L191.79151785714285,26.63974136694832L192.78013392857142,25.17344223383847L193.76874999999998,22.906199762641464L194.75736607142858,22.58398185521129L195.74598214285714,20.827428931678895L196.7345982142857,21.62793164832413L197.72321428571428,21.74183830547772L198.71183035714284,20.812921366341413L199.70044642857144,23.803082033468264L200.6890625,22.756680040415638L201.67767857142857,22.243174824653536L202.66629464285714,20.182736643038663L203.65491071428573,20.735469352253595L204.6435267857143,22.9446363048747L205.63214285714287,21.796228145973565L206.62075892857143,20.284499169043876L207.609375,20.173544493116772L208.59799107142857,21.91546214080123L209.58660714285713,21.418031905888743L210.5752232142857,20.864999462592124L211.56383928571427,25.020449672181208L212.55245535714286,29.98887430003053L213.54107142857143,24.34601332301864L214.5296875,21.96466812704137L215.51830357142856,22.072047557495225L216.50691964285716,21.700749010072087L217.49553571428572,21.411856896143973L218.4841517857143,20.299632706647827L219.47276785714286,21.49317595105517L220.46138392857142,22.97003733014364L221.45000000000002,21.374922771387624L222.43861607142858,20.963502890546465L223.42723214285715,19.402136763233337L224.41584821428572,21.25770342557233L225.40446428571428,20.080799089599125L226.39308035714285,21.42208744465547L227.38169642857142,20.68027334123984L228.37031249999998,20.976566738156293L229.35892857142858,20.096505710275345L230.34754464285714,20.308468483267973L231.3361607142857,20.87456577479344L232.32477678571428,19.223085122623992L233.31339285714284,19.713281924800658L234.30200892857144,20.26190197412839L235.290625,21.28296020421832L236.27924107142857,21.46900572457318L237.26785714285714,24.016093491989633L238.25647321428573,22.949017030113687L239.2450892857143,21.611700388369346L240.23370535714287,22.480737236905306L241.22232142857143,21.01404971451222L242.2109375,20.868170325852454L243.19955357142857,20.15518389877L244.18816964285713,20.3442621782497L245.1767857142857,22.01959992873231L246.16540178571427,22.72955595652671L247.15401785714286,20.22982913348129L248.14263392857143,19.26659577142359L249.13125,21.424623420568395L250.11986607142856,22.803420286546718L251.10848214285716,27.2636863747935L252.09709821428572,25.117248688624016L253.0857142857143,23.121521700060658L254.07433035714286,25.336128237037013L255.06294642857142,23.81663822459257L256.0515625,22.827349317001463L257.04017857142856,24.407883083370884L258.0287946428571,23.000808680856252L259.0174107142857,21.705693295322313L260.0060267857143,27.59247291014661L260.9946428571429,23.820208475189425L261.98325892857144,23.266327169865534L262.971875,21.618059573617998L263.9604910714286,27.41421633990697L264.94910714285714,26.457071967343246L265.9377232142857,23.814013900079395L266.9263392857143,24.635348479048425" style="fill: none;" fill="none"></path></g></g></g></g><g opacity="0.2"><g><g><g><path stroke="rgb(0, 119, 187)" stroke-width="2px" d="M19.772321428571427,152.16L20.7609375,140.16L21.74955357142857,165.44L22.738169642857144,124.8L23.726785714285715,124.8L24.715401785714285,105.44L25.70401785714286,88.95999999999998L26.69263392857143,101.11999999999999L27.681250000000002,99.52L28.669866071428572,97.11999999999999L29.658482142857142,120.32L30.647098214285712,81.12L31.635714285714286,89.12L32.62433035714286,77.44L33.612946428571426,79.19999999999999L34.6015625,77.75999999999999L35.59017857142857,89.28L36.57879464285714,101.44000000000001L37.567410714285714,86.88L38.55602678571429,96L39.544642857142854,62.88L40.53325892857143,72.16000000000001L41.521875,57.75999999999999L42.510491071428575,74.08L43.49910714285714,56.800000000000004L44.487723214285715,45.12L45.47633928571429,73.92L46.464955357142856,55.519999999999996L47.45357142857143,62.56L48.442187499999996,59.839999999999996L49.43080357142857,54.4L50.41941964285714,38.07999999999999L51.40803571428572,59.04L52.39665178571428,36.16L53.38526785714286,43.36L54.37388392857143,35.839999999999996L55.362500000000004,64.64L56.35111607142857,47.52L57.339732142857144,37.599999999999994L58.32834821428571,32.480000000000004L59.316964285714285,26.559999999999995L60.30558035714286,46.080000000000005L61.294196428571425,31.84L62.2828125,58.24L63.27142857142857,43.2L64.26004464285714,75.99999999999999L65.24866071428572,77.28L66.23727678571429,51.99999999999999L67.22589285714285,60.64000000000001L68.21450892857143,69.76L69.203125,68.64L70.19174107142857,48.16000000000001L71.18035714285713,27.679999999999993L72.16897321428571,60.959999999999994L73.15758928571428,50.559999999999995L74.14620535714286,53.92L75.13482142857143,47.67999999999999L76.12343750000001,31.519999999999996L77.11205357142858,40.16L78.10066964285714,26.879999999999995L79.08928571428571,34.24000000000001L80.07790178571429,35.36L81.06651785714286,29.439999999999994L82.05513392857142,43.2L83.04375,31.199999999999996L84.03236607142857,37.599999999999994L85.02098214285715,33.43999999999999L86.00959821428572,30.55999999999999L86.99821428571428,28.64L87.98683035714285,24.799999999999994L88.97544642857143,22.72000000000001L89.9640625,41.440000000000005L90.95267857142858,23.679999999999996L91.94129464285714,31.999999999999993L92.92991071428571,23.200000000000003L93.91852678571429,20.799999999999997L94.90714285714286,21.27999999999999L95.89575892857142,19.83999999999999L96.88437499999999,32.31999999999999L97.87299107142857,24.47999999999999L98.86160714285714,24.47999999999999L99.85022321428572,24.799999999999994L100.83883928571429,18.71999999999999L101.82745535714287,32.480000000000004L102.81607142857143,40.16L103.8046875,25.28000000000001L104.79330357142857,26.559999999999995L105.78191964285713,27.840000000000003L106.77053571428571,28.80000000000001L107.75915178571428,29.11999999999999L108.74776785714286,31.360000000000007L109.73638392857143,18.39999999999999L110.72500000000001,27.520000000000003L111.71361607142858,24.47999999999999L112.70223214285714,23.520000000000003L113.69084821428571,25.759999999999998L114.67946428571429,33.75999999999999L115.66808035714286,26.080000000000002L116.65669642857142,20.960000000000008L117.6453125,33.28L118.63392857142857,19.36L119.62254464285715,25.28000000000001L120.61116071428572,31.040000000000006L121.59977678571428,27.359999999999992L122.58839285714285,24.16000000000001L123.57700892857143,22.56L124.565625,29.28L125.55424107142858,22.56L126.54285714285714,28.319999999999997L127.53147321428571,21.599999999999994L128.52008928571428,19.200000000000006L129.50870535714284,31.040000000000006L130.49732142857144,27.2L131.4859375,23.520000000000003L132.47455357142857,22.080000000000005L133.46316964285714,29.28L134.4517857142857,19.200000000000006L135.44040178571427,25.60000000000001L136.42901785714287,18.08000000000001L137.41763392857143,22.880000000000003L138.40625,24.47999999999999L139.39486607142857,20.640000000000008L140.38348214285713,23.679999999999996L141.3720982142857,24.16000000000001L142.36071428571427,21.27999999999999L143.34933035714286,25.119999999999997L144.33794642857143,21.919999999999995L145.3265625,21.27999999999999L146.31517857142856,23.679999999999996L147.30379464285716,22.239999999999995L148.29241071428572,25.119999999999997L149.2810267857143,20.640000000000008L150.26964285714286,22.080000000000005L151.25825892857142,22.400000000000006L152.24687500000002,29.439999999999994L153.23549107142858,23.840000000000007L154.22410714285715,22.880000000000003L155.21272321428572,22.56L156.20133928571428,25.28000000000001L157.18995535714285,25.439999999999998L158.17857142857142,24.16000000000001L159.16718749999998,23.359999999999992L160.15580357142858,23.840000000000007L161.14441964285714,20.960000000000008L162.1330357142857,20.799999999999997L163.12165178571428,20.960000000000008L164.11026785714284,20.479999999999997L165.09888392857144,20.640000000000008L166.0875,20.799999999999997L167.07611607142857,20L168.06473214285714,28.160000000000004L169.05334821428573,20.320000000000004L170.0419642857143,19.36L171.03058035714287,19.68L172.01919642857143,19.68L173.0078125,22.400000000000006L173.99642857142857,20.479999999999997L174.98504464285713,20.799999999999997L175.9736607142857,24.32L176.96227678571427,24.47999999999999L177.95089285714286,19.52000000000001L178.93950892857143,20.640000000000008L179.928125,21.119999999999997L180.91674107142856,19.200000000000006L181.90535714285716,19.200000000000006L182.89397321428572,21.599999999999994L183.8825892857143,21.27999999999999L184.87120535714286,26.559999999999995L185.85982142857142,19.36L186.84843750000002,21.119999999999997L187.83705357142858,19.36L188.82566964285715,18.71999999999999L189.81428571428572,19.039999999999996L190.80290178571428,17.919999999999998L191.79151785714285,38.72L192.78013392857142,22.880000000000003L193.76874999999998,19.36L194.75736607142858,22.080000000000005L195.74598214285714,18.08000000000001L196.7345982142857,22.880000000000003L197.72321428571428,21.919999999999995L198.71183035714284,19.36L199.70044642857144,28.480000000000008L200.6890625,21.119999999999997L201.67767857142857,21.44L202.66629464285714,16.959999999999994L203.65491071428573,21.599999999999994L204.6435267857143,26.400000000000006L205.63214285714287,20L206.62075892857143,17.919999999999998L207.609375,20L208.59799107142857,24.64L209.58660714285713,20.640000000000008L210.5752232142857,20L211.56383928571427,31.519999999999996L212.55245535714286,37.760000000000005L213.54107142857143,15.519999999999992L214.5296875,18.240000000000002L215.51830357142856,22.239999999999995L216.50691964285716,21.119999999999997L217.49553571428572,20.960000000000008L218.4841517857143,18.560000000000002L219.47276785714286,23.359999999999992L220.46138392857142,25.28000000000001L221.45000000000002,18.880000000000003L222.43861607142858,20.320000000000004L223.42723214285715,16.959999999999994L224.41584821428572,24.16000000000001L225.40446428571428,18.240000000000002L226.39308035714285,23.520000000000003L227.38169642857142,19.52000000000001L228.37031249999998,21.44L229.35892857142858,18.71999999999999L230.34754464285714,20.640000000000008L231.3361607142857,21.760000000000005L232.32477678571428,16.640000000000008L233.31339285714284,20.479999999999997L234.30200892857144,21.119999999999997L235.290625,22.880000000000003L236.27924107142857,21.760000000000005L237.26785714285714,27.999999999999993L238.25647321428573,21.27999999999999L239.2450892857143,19.52000000000001L240.23370535714287,23.840000000000007L241.22232142857143,18.71999999999999L242.2109375,20.640000000000008L243.19955357142857,19.039999999999996L244.18816964285713,20.640000000000008L245.1767857142857,24.64L246.16540178571427,23.840000000000007L247.15401785714286,16.320000000000007L248.14263392857143,17.760000000000005L249.13125,24.799999999999994L250.11986607142856,24.960000000000004L251.10848214285716,34.24000000000001L252.09709821428572,21.760000000000005L253.0857142857143,20L254.07433035714286,28.80000000000001L255.06294642857142,21.44L256.0515625,21.27999999999999L257.04017857142856,26.879999999999995L258.0287946428571,20.799999999999997L259.0174107142857,19.68L260.0060267857143,36.800000000000004L260.9946428571429,17.919999999999998L261.98325892857144,22.400000000000006L262.971875,19.039999999999996L263.9604910714286,36.480000000000004L264.94910714285714,24.960000000000004L265.9377232142857,19.68L266.9263392857143,25.91999999999999" style="fill: none;" fill="none"></path></g></g></g></g></g></g><g transform="translate(53, 176)" clip-path="url(#clip_1)"><clipPath id="clip_1"><rect width="276" height="24"></rect></clipPath><g><g><line x1="0" y1="0" x2="0" y2="5" style="visibility: inherit;" fill="rgb(0, 0, 0)" stroke="rgb(204, 204, 204)" stroke-width="1px"></line><line x1="19.772321428571427" y1="0" x2="19.772321428571427" y2="5" style="visibility: inherit;" fill="rgb(0, 0, 0)" stroke="rgb(204, 204, 204)" stroke-width="1px"></line><line x1="39.544642857142854" y1="0" x2="39.544642857142854" y2="5" style="visibility: inherit;" fill="rgb(0, 0, 0)" stroke="rgb(204, 204, 204)" stroke-width="1px"></line><line x1="59.316964285714285" y1="0" x2="59.316964285714285" y2="5" style="visibility: inherit;" fill="rgb(0, 0, 0)" stroke="rgb(204, 204, 204)" stroke-width="1px"></line><line x1="79.08928571428571" y1="0" x2="79.08928571428571" y2="5" style="visibility: inherit;" fill="rgb(0, 0, 0)" stroke="rgb(204, 204, 204)" stroke-width="1px"></line><line x1="98.86160714285714" y1="0" x2="98.86160714285714" y2="5" style="visibility: inherit;" fill="rgb(0, 0, 0)" stroke="rgb(204, 204, 204)" stroke-width="1px"></line><line x1="118.63392857142857" y1="0" x2="118.63392857142857" y2="5" style="visibility: inherit;" fill="rgb(0, 0, 0)" stroke="rgb(204, 204, 204)" stroke-width="1px"></line><line x1="138.40625" y1="0" x2="138.40625" y2="5" style="visibility: inherit;" fill="rgb(0, 0, 0)" stroke="rgb(204, 204, 204)" stroke-width="1px"></line><line x1="158.17857142857142" y1="0" x2="158.17857142857142" y2="5" style="visibility: inherit;" fill="rgb(0, 0, 0)" stroke="rgb(204, 204, 204)" stroke-width="1px"></line><line x1="177.95089285714286" y1="0" x2="177.95089285714286" y2="5" style="visibility: inherit;" fill="rgb(0, 0, 0)" stroke="rgb(204, 204, 204)" stroke-width="1px"></line><line x1="197.72321428571428" y1="0" x2="197.72321428571428" y2="5" style="visibility: inherit;" fill="rgb(0, 0, 0)" stroke="rgb(204, 204, 204)" stroke-width="1px"></line><line x1="217.49553571428572" y1="0" x2="217.49553571428572" y2="5" style="visibility: inherit;" fill="rgb(0, 0, 0)" stroke="rgb(204, 204, 204)" stroke-width="1px"></line><line x1="237.26785714285714" y1="0" x2="237.26785714285714" y2="5" style="visibility: inherit;" fill="rgb(0, 0, 0)" stroke="rgb(204, 204, 204)" stroke-width="1px"></line><line x1="257.04017857142856" y1="0" x2="257.04017857142856" y2="5" style="visibility: inherit;" fill="rgb(0, 0, 0)" stroke="rgb(204, 204, 204)" stroke-width="1px"></line><line x1="276.8125" y1="0" x2="276.8125" y2="5" style="visibility: inherit;" fill="rgb(0, 0, 0)" stroke="rgb(204, 204, 204)" stroke-width="1px"></line></g><g transform="translate(0, 8)"><text x="0" y="0" dx="0em" dy="0.95em" style="text-anchor: middle; visibility: hidden; font-family: Roboto, sans-serif; font-size: 12px; font-weight: 200;" fill="rgb(33, 33, 33)" stroke="none" stroke-width="1px">-20k</text><text x="19.772321428571427" y="0" dx="0em" dy="0.95em" style="text-anchor: middle; visibility: inherit; font-family: Roboto, sans-serif; font-size: 12px; font-weight: 200;" fill="rgb(33, 33, 33)" stroke="none" stroke-width="1px">0</text><text x="39.544642857142854" y="0" dx="0em" dy="0.95em" style="text-anchor: middle; visibility: hidden; font-family: Roboto, sans-serif; font-size: 12px; font-weight: 200;" fill="rgb(33, 33, 33)" stroke="none" stroke-width="1px">20k</text><text x="59.316964285714285" y="0" dx="0em" dy="0.95em" style="text-anchor: middle; visibility: inherit; font-family: Roboto, sans-serif; font-size: 12px; font-weight: 200;" fill="rgb(33, 33, 33)" stroke="none" stroke-width="1px">40k</text><text x="79.08928571428571" y="0" dx="0em" dy="0.95em" style="text-anchor: middle; visibility: hidden; font-family: Roboto, sans-serif; font-size: 12px; font-weight: 200;" fill="rgb(33, 33, 33)" stroke="none" stroke-width="1px">60k</text><text x="98.86160714285714" y="0" dx="0em" dy="0.95em" style="text-anchor: middle; visibility: inherit; font-family: Roboto, sans-serif; font-size: 12px; font-weight: 200;" fill="rgb(33, 33, 33)" stroke="none" stroke-width="1px">80k</text><text x="118.63392857142857" y="0" dx="0em" dy="0.95em" style="text-anchor: middle; visibility: hidden; font-family: Roboto, sans-serif; font-size: 12px; font-weight: 200;" fill="rgb(33, 33, 33)" stroke="none" stroke-width="1px">100k</text><text x="138.40625" y="0" dx="0em" dy="0.95em" style="text-anchor: middle; visibility: inherit; font-family: Roboto, sans-serif; font-size: 12px; font-weight: 200;" fill="rgb(33, 33, 33)" stroke="none" stroke-width="1px">120k</text><text x="158.17857142857142" y="0" dx="0em" dy="0.95em" style="text-anchor: middle; visibility: hidden; font-family: Roboto, sans-serif; font-size: 12px; font-weight: 200;" fill="rgb(33, 33, 33)" stroke="none" stroke-width="1px">140k</text><text x="177.95089285714286" y="0" dx="0em" dy="0.95em" style="text-anchor: middle; visibility: inherit; font-family: Roboto, sans-serif; font-size: 12px; font-weight: 200;" fill="rgb(33, 33, 33)" stroke="none" stroke-width="1px">160k</text><text x="197.72321428571428" y="0" dx="0em" dy="0.95em" style="text-anchor: middle; visibility: hidden; font-family: Roboto, sans-serif; font-size: 12px; font-weight: 200;" fill="rgb(33, 33, 33)" stroke="none" stroke-width="1px">180k</text><text x="217.49553571428572" y="0" dx="0em" dy="0.95em" style="text-anchor: middle; visibility: inherit; font-family: Roboto, sans-serif; font-size: 12px; font-weight: 200;" fill="rgb(33, 33, 33)" stroke="none" stroke-width="1px">200k</text><text x="237.26785714285714" y="0" dx="0em" dy="0.95em" style="text-anchor: middle; visibility: hidden; font-family: Roboto, sans-serif; font-size: 12px; font-weight: 200;" fill="rgb(33, 33, 33)" stroke="none" stroke-width="1px">220k</text><text x="257.04017857142856" y="0" dx="0em" dy="0.95em" style="text-anchor: middle; visibility: inherit; font-family: Roboto, sans-serif; font-size: 12px; font-weight: 200;" fill="rgb(33, 33, 33)" stroke="none" stroke-width="1px">240k</text><text x="276.8125" y="0" dx="0em" dy="0.95em" style="text-anchor: middle; visibility: hidden; font-family: Roboto, sans-serif; font-size: 12px; font-weight: 200;" fill="rgb(33, 33, 33)" stroke="none" stroke-width="1px">260k</text></g><line x1="0" y1="0" x2="276.8125" y2="0" fill="rgb(0, 0, 0)" stroke="rgb(204, 204, 204)" stroke-width="1px"></line></g></g></g></g></svg>