<svg viewBox="0 0 330 200" xmlns="http://www.w3.org/2000/svg"><g><g><g><g><g><line x1="51.5625" y1="177" x2="46.5625" y2="177" style="visibility: inherit;" fill="rgb(0, 0, 0)" stroke="rgb(204, 204, 204)" stroke-width="1px"></line><line x1="51.5625" y1="162.25" x2="46.5625" y2="162.25" style="visibility: inherit;" fill="rgb(0, 0, 0)" stroke="rgb(204, 204, 204)" stroke-width="1px"></line><line x1="51.5625" y1="147.5" x2="46.5625" y2="147.5" style="visibility: inherit;" fill="rgb(0, 0, 0)" stroke="rgb(204, 204, 204)" stroke-width="1px"></line><line x1="51.5625" y1="132.75" x2="46.5625" y2="132.75" style="visibility: inherit;" fill="rgb(0, 0, 0)" stroke="rgb(204, 204, 204)" stroke-width="1px"></line><line x1="51.5625" y1="118.00000000000001" x2="46.5625" y2="118.00000000000001" style="visibility: inherit;" fill="rgb(0, 0, 0)" stroke="rgb(204, 204, 204)" stroke-width="1px"></line><line x1="51.5625" y1="103.24999999999999" x2="46.5625" y2="103.24999999999999" style="visibility: inherit;" fill="rgb(0, 0, 0)" stroke="rgb(204, 204, 204)" stroke-width="1px"></line><line x1="51.5625" y1="88.5" x2="46.5625" y2="88.5" style="visibility: inherit;" fill="rgb(0, 0, 0)" stroke="rgb(204, 204, 204)" stroke-width="1px"></line><line x1="51.5625" y1="73.75" x2="46.5625" y2="73.75" style="visibility: inherit;" fill="rgb(0, 0, 0)" stroke="rgb(204, 204, 204)" stroke-width="1px"></line><line x1="51.5625" y1="59.00000000000001" x2="46.5625" y2="59.00000000000001" style="visibility: inherit;" fill="rgb(0, 0, 0)" stroke="rgb(204, 204, 204)" stroke-width="1px"></line><line x1="51.5625" y1="44.25" x2="46.5625" y2="44.25" style="visibility: inherit;" fill="rgb(0, 0, 0)" stroke="rgb(204, 204, 204)" stroke-width="1px"></line><line x1="51.5625" y1="29.499999999999993" x2="46.5625" y2="29.499999999999993" style="visibility: inherit;" fill="rgb(0, 0, 0)" stroke="rgb(204, 204, 204)" stroke-width="1px"></line><line x1="51.5625" y1="14.750000000000007" x2="46.5625" y2="14.750000000000007" style="visibility: inherit;" fill="rgb(0, 0, 0)" stroke="rgb(204, 204, 204)" stroke-width="1px"></line><line x1="51.5625" y1="0" x2="46.5625" y2="0" style="visibility: inherit;" fill="rgb(0, 0, 0)" stroke="rgb(204, 204, 204)" stroke-width="1px"></line></g><g transform="translate(41.5625, 0)"><text x="0" y="177" dx="0em" dy="0.3em" style="text-anchor: end; visibility: hidden; font-family: Roboto, sans-serif; font-size: 12px; font-weight: 200;" fill="rgb(33, 33, 33)" stroke="none" stroke-width="1px">-800</text><text x="0" y="162.25" dx="0em" dy="0.3em" style="text-anchor: end; visibility: inherit; font-family: Roboto, sans-serif; font-size: 12px; font-weight: 200;" fill="rgb(33, 33, 33)" stroke="none" stroke-width="1px">-700</text><text x="0" y="147.5" dx="0em" dy="0.3em" style="text-anchor: end; visibility: hidden; font-family: Roboto, sans-serif; font-size: 12px; font-weight: 200;" fill="rgb(33, 33, 33)" stroke="none" stroke-width="1px">-600</text><text x="0" y="132.75" dx="0em" dy="0.3em" style="text-anchor: end; visibility: inherit; font-family: Roboto, sans-serif; font-size: 12px; font-weight: 200;" fill="rgb(33, 33, 33)" stroke="none" stroke-width="1px">-500</text><text x="0" y="118.00000000000001" dx="0em" dy="0.3em" style="text-anchor: end; visibility: hidden; font-family: Roboto, sans-serif; font-size: 12px; font-weight: 200;" fill="rgb(33, 33, 33)" stroke="none" stroke-width="1px">-400</text><text x="0" y="103.24999999999999" dx="0em" dy="0.3em" style="text-anchor: end; visibility: inherit; font-family: Roboto, sans-serif; font-size: 12px; font-weight: 200;" fill="rgb(33, 33, 33)" stroke="none" stroke-width="1px">-300</text><text x="0" y="88.5" dx="0em" dy="0.3em" style="text-anchor: end; visibility: hidden; font-family: Roboto, sans-serif; font-size: 12px; font-weight: 200;" fill="rgb(33, 33, 33)" stroke="none" stroke-width="1px">-200</text><text x="0" y="73.75" dx="0em" dy="0.3em" style="text-anchor: end; visibility: inherit; font-family: Roboto, sans-serif; font-size: 12px; font-weight: 200;" fill="rgb(33, 33, 33)" stroke="none" stroke-width="1px">-100</text><text x="0" y="59.00000000000001" dx="0em" dy="0.3em" style="text-anchor: end; visibility: hidden; font-family: Roboto, sans-serif; font-size: 12px; font-weight: 200;" fill="rgb(33, 33, 33)" stroke="none" stroke-width="1px">0</text><text x="0" y="44.25" dx="0em" dy="0.3em" style="text-anchor: end; visibility: inherit; font-family: Roboto, sans-serif; font-size: 12px; font-weight: 200;" fill="rgb(33, 33, 33)" stroke="none" stroke-width="1px">100</text><text x="0" y="29.499999999999993" dx="0em" dy="0.3em" style="text-anchor: end; visibility: hidden; font-family: Roboto, sans-serif; font-size: 12px; font-weight: 200;" fill="rgb(33, 33, 33)" stroke="none" stroke-width="1px">200</text><text x="0" y="14.750000000000007" dx="0em" dy="0.3em" style="text-anchor: end; visibility: inherit; font-family: Roboto, sans-serif; font-size: 12px; font-weight: 200;" fill="rgb(33, 33, 33)" stroke="none" stroke-width="1px">300</text><text x="0" y="0" dx="0em" dy="0.3em" style="text-anchor: end; visibility: hidden; font-family: Roboto, sans-serif; font-size: 12px; font-weight: 200;" fill="rgb(33, 33, 33)" stroke="none" stroke-width="1px">400</text></g><line x1="51.5625" y1="0" x2="51.5625" y2="177" fill="rgb(0, 0, 0)" stroke="rgb(204, 204, 204)" stroke-width="1px"></line></g></g><g transform="translate(51, 0)" clip-path="url(#clip_0)"><clipPath id="clip_0"><rect width="278" height="177"></rect></clipPath><g><g><g><line x1="0" y1="0" x2="0" y2="177" fill="rgb(0, 0, 0)" stroke="rgb(66, 66, 66)" stroke-width="1px" opacity="0.25"></line><line x1="34.80468750000001" y1="0" x2="34.80468750000001" y2="177" fill="rgb(0, 0, 0)" stroke="rgb(66, 66, 66)" stroke-width="1px" opacity="0.25"></line><line x1="69.60937500000001" y1="0" x2="69.60937500000001" y2="177" fill="rgb(0, 0, 0)" stroke="rgb(66, 66, 66)" stroke-width="1px" opacity="0.25"></line><line x1="104.41406250000003" y1="0" x2="104.41406250000003" y2="177" fill="rgb(0, 0, 0)" stroke="rgb(66, 66, 66)" stroke-width="1px" opacity="0.25"></line><line x1="139.21875000000003" y1="0" x2="139.21875000000003" y2="177" fill="rgb(0, 0, 0)" stroke="rgb(66, 66, 66)" stroke-width="1px" opacity="0.25"></line><line x1="174.0234375" y1="0" x2="174.0234375" y2="177" fill="rgb(0, 0, 0)" stroke="rgb(66, 66, 66)" stroke-width="1px" opacity="0.25"></line><line x1="208.828125" y1="0" x2="208.828125" y2="177" fill="rgb(0, 0, 0)" stroke="rgb(66, 66, 66)" stroke-width="1px" opacity="0.25"></line><line x1="243.6328125" y1="0" x2="243.6328125" y2="177" fill="rgb(0, 0, 0)" stroke="rgb(66, 66, 66)" stroke-width="1px" opacity="0.25"></line><line x1="278.4375" y1="0" x2="278.4375" y2="177" fill="rgb(0, 0, 0)" stroke="rgb(66, 66, 66)" stroke-width="1px" opacity="0.25"></line></g><g><line x1="0" y1="177" x2="278.4375" y2="177" fill="rgb(0, 0, 0)" stroke="rgb(66, 66, 66)" stroke-width="1px" opacity="0.25"></line><line x1="0" y1="162.25" x2="278.4375" y2="162.25" fill="rgb(0, 0, 0)" stroke="rgb(66, 66, 66)" stroke-width="1px" opacity="0.25"></line><line x1="0" y1="147.5" x2="278.4375" y2="147.5" fill="rgb(0, 0, 0)" stroke="rgb(66, 66, 66)" stroke-width="1px" opacity="0.25"></line><line x1="0" y1="132.75" x2="278.4375" y2="132.75" fill="rgb(0, 0, 0)" stroke="rgb(66, 66, 66)" stroke-width="1px" opacity="0.25"></line><line x1="0" y1="118.00000000000001" x2="278.4375" y2="118.00000000000001" fill="rgb(0, 0, 0)" stroke="rgb(66, 66, 66)" stroke-width="1px" opacity="0.25"></line><line x1="0" y1="103.24999999999999" x2="278.4375" y2="103.24999999999999" fill="rgb(0, 0, 0)" stroke="rgb(66, 66, 66)" stroke-width="1px" opacity="0.25"></line><line x1="0" y1="88.5" x2="278.4375" y2="88.5" fill="rgb(0, 0, 0)" stroke="rgb(66, 66, 66)" stroke-width="1px" opacity="0.25"></line><line x1="0" y1="73.75" x2="278.4375" y2="73.75" fill="rgb(0, 0, 0)" stroke="rgb(66, 66, 66)" stroke-width="1px" opacity="0.25"></line><line x1="0" y1="59.00000000000001" x2="278.4375" y2="59.00000000000001" fill="rgb(0, 0, 0)" stroke="rgb(66, 66, 66)" stroke-width="1px" opacity="0.25"></line><line x1="0" y1="44.25" x2="278.4375" y2="44.25" fill="rgb(0, 0, 0)" stroke="rgb(66, 66, 66)" stroke-width="1px" opacity="0.25"></line><line x1="0" y1="29.499999999999993" x2="278.4375" y2="29.499999999999993" fill="rgb(0, 0, 0)" stroke="rgb(66, 66, 66)" stroke-width="1px" opacity="0.25"></line><line x1="0" y1="14.750000000000007" x2="278.4375" y2="14.750000000000007" fill="rgb(0, 0, 0)" stroke="rgb(66, 66, 66)" stroke-width="1px" opacity="0.25"></line><line x1="0" y1="0" x2="278.4375" y2="0" fill="rgb(0, 0, 0)" stroke="rgb(66, 66, 66)" stroke-width="1px" opacity="0.25"></line></g></g></g><g><g><line x1="0" y1="59.00000000000001" x2="278.4375" y2="59.00000000000001" fill="rgb(0, 0, 0)" stroke="rgb(153, 153, 153)" stroke-width="1.5px"></line></g></g><g><g><line x1="34.80468750000001" y1="0" x2="34.80468750000001" y2="177" fill="rgb(0, 0, 0)" stroke="rgb(153, 153, 153)" stroke-width="1.5px"></line></g></g><g><g><g><g><g><path stroke="rgb(0, 119, 187)" stroke-width="2px" d="M34.80468750000001,151.925L34.833691406250004,158.378125L35.90789941406251,125.73622448979592L37.764632812500004,99.06631433823527L39.64369921875001,89.10955065926439L41.46243750000001,75.98121475563909L43.2998349609375,68.32541547051541L45.193403320312505,71.67246689353857L46.95191015625,60.23420884877849L48.81444433593751,64.07072324473636L50.57101757812501,66.89066461109991L52.373513671875,64.96921619168103L54.273849609375006,62.57840715247743L55.99378125,66.63722495012577L57.73681933593751,73.5565883508493L59.65049707031251,79.24055652040127L61.33649414062501,80.82060136105002L63.1346396484375,70.02626454425062L65.0030712890625,57.23697939900328L66.91500878906251,53.04503437525019L68.9278798828125,49.23193697742072L70.9815498046875,51.36919031734505L72.89522753906252,43.03444836843084L74.77593750000001,48.8306964858924L76.65848437500001,48.00141553386582L78.53851757812501,48.62485038378543L80.49724804687501,51.29991296817205L82.41730664062501,47.889945686862035L84.27723046875002,44.663966223483996L86.3342841796875,41.78437909748881L88.26265722656251,46.1926280432226L90.09580078125,49.958577125652695L91.91966308593751,49.26814624242218L93.95419042968751,49.97488776570229L95.8444716796875,50.5169326687395L97.6993681640625,42.99515952366094L99.6445634765625,43.851095719493664L101.43526464843752,43.89265743185053L103.36895507812501,39.02059444825576L105.282826171875,40.10935667040887L107.27810156250001,41.29361400319514L109.24369628906253,41.41416840197512L111.11319140625002,44.731501042142916L112.95948339843753,44.89290062531371L114.75936914062503,42.92474037498363L116.6611552734375,49.70884422541329L118.70718750000002,45.81430653510223L120.76984863281253,47.31258392109497L122.7425009765625,44.43555035261823L124.67996191406252,45.65933021158082L126.564345703125,37.89759812691086L128.45617382812503,36.42655887614225L130.26601757812503,31.885935325677426L132.1026416015625,31.108561195405628L134.11628613281252,27.397136717241043L136.11078808593751,29.89028203034556L137.91560449218753,31.150169218207644L139.93205273437502,28.897101530924264L141.85249804687498,29.25626091855458L143.6822578125,30.88775655113284L145.54827246093754,27.6776539306796L147.51135351562502,27.75759235840777L149.3978642578125,26.802555415044655L151.35224414062503,31.716533249026824L153.189158203125,31.537919949416086L155.00915332031252,31.312751969649657L156.9357861328125,27.814651181789777L158.80499121093752,26.069790709073885L160.829560546875,24.963874425444317L162.71104394531253,25.657324655266603L164.61002636718752,24.480394793159967L166.558412109375,29.08423687589596L168.469189453125,34.38354212553758L170.3179951171875,28.418125275322552L172.1122734375,25.782875165193534L173.986119140625,24.43772509911611L176.0458798828125,32.42163505946966L177.96033105468754,29.777981035681808L179.7960849609375,34.15078862140908L181.624201171875,28.51447317284543L183.423603515625,31.681683903707274L185.40959765625004,35.47001034222437L187.25637304687504,30.132006205334616L189.023677734375,26.752203723200786L190.87760742187504,30.80132223392046L192.75609375000002,30.044793340352268L194.63854394531253,26.699876004211376L196.46250292968753,25.518925602526814L198.46522265625003,24.6333553615161L200.36478515625,23.45301321690966L202.30824023437503,22.036807930145805L204.150955078125,23.42908475808748L206.05051757812504,25.975450854852483L208.03979882812502,23.01927051291149L209.928533203125,21.422562307746873L211.6882001953125,20.641537384648142L213.40078417968752,21.529922430788872L215.233734375,20.82395345847332L217.19981250000004,23.645372075084012L219.0613798828125,25.279223245050378L220.84009277343748,22.660533947030256L222.80974804687503,20.558320368218133L224.6291630859375,20.71299222093089L226.398884765625,22.87079533255851L228.18803906250002,21.746477199535118L230.25505078125,20.95388631972109L232.032216796875,21.245331791832644L233.90393554687503,21.184199075099592L235.8169365234375,21.383519445059743L237.67260644531254,20.264111667035845L239.6939853515625,20.241467000221505L241.612787109375,19.696880200132913L243.46410644531252,21.553128120079737L245.412685546875,24.55487687204786L247.3660986328125,22.8749261232287L249.295921875,23.754955673937218L251.18678320312497,30.12397340436235L253.063142578125,25.5083840426174L254.8995732421875,23.152030425570423L256.73368359375,22.269218255342274L258.51752050781255,20.67753095320537L260.51849999999996,22.141518571923207L262.38074414062504,20.24691114315392L264.224619140625,19.287146685892356L266.03842675781254,18.062288011535436L267.816849609375,21.044372806921263" style="fill: none;" fill="none"></path></g><g><path stroke="rgb(204, 51, 17)" stroke-width="2px" d="M34.80468750000001,140.2725L34.84451953125001,133.3584375L34.8904423828125,143.132193877551L34.9637255859375,130.2267738970588L35.270200195312505,123.64420367800139L35.612156250000005,112.54990668635877L35.937966796875,99.98212660328161L36.24144433593751,97.23106875416599L36.573345703125,95.01430134444168L36.878176757812504,92.80824160703013L37.17914062500001,100.07932423794237L37.458351562500006,89.93852021970568L37.744426757812505,86.82204179471178L38.05737890625,80.64438400694098L38.336203125000004,77.59019437005726L38.621698242187506,75.22745006589784L38.941611328125006,78.05894931777425L39.2590107421875,84.24199754077418L39.605220703125006,82.58209737683126L39.943116210937504,84.94934497642167L40.284782226562506,74.15637022089854L40.626351562500005,71.1027819406899L40.981552734375,63.960612760545324L41.334723632812505,65.69337586681957L41.67996679687501,60.36101036002302L42.02627343750001,52.85459341143806L42.372290039062506,58.970762306702795L42.734162109375006,55.85545547092976L43.104058593750004,56.582273550358714L43.4736650390625,56.01536400488632L43.823162109375005,53.66921809172879L44.14742578125001,46.24353026405195L44.51364843750001,49.51711831475143L44.8548310546875,43.04427080339615L45.2040380859375,41.81556246091533L45.519890625,38.30533744034324L45.851695312500006,46.81920251689531L46.152755859375006,45.61452150566398L46.4927783203125,41.23371289363832L46.814528320312505,36.717227730145574L47.13376464843751,31.82433663416301L47.461025390625004,36.086601982548935L47.78267871093751,33.392961188751606L48.097564453125,41.51177671465747L48.435363281250005,40.83706602872437L48.78882421875001,52.5272396179637L49.116955078125,60.01334377105836L49.44663281250001,55.18300626252657L49.80995507812501,55.47080375751981L50.13354199218751,59.006482254540465L50.479558593750006,60.71488935273257L50.8039189453125,54.187933611620544L51.11861132812501,42.7197601669523L51.47448925781251,48.11085610017703L51.80590722656252,47.51051366010584L52.13297460937501,48.389308196063844L52.49871386718751,46.61558491763791L52.84163671875001,39.59235095058179L53.18997363281251,38.564410570349L53.507856445312505,33.05064634220911L53.85754687500001,32.456387805325456L54.193508789062506,32.512832683195285L54.51786914062501,30.36369960991715L54.880901367187505,34.14821976595031L55.21618652343751,31.993931859570168L55.528848632812505,33.06135911574211L55.87573535156252,32.167815469445266L56.19700195312501,30.569689281667152L56.52725976562501,28.90281356900029L56.84214550781251,26.486688141400176L57.16041503906251,24.270012884840103L57.51348925781251,29.843007730904063L57.823927734375005,26.63780463854243L58.16636718750001,27.78268278312546L58.48521679687501,25.224609669875285L58.80097265625001,22.804765801925164L59.1040634765625,21.529859481155118L59.426973632812505,20.233915688693067L59.751333984375,24.058349413215833L60.07240722656251,23.462009647929495L60.37926855468751,23.104205788757714L60.70295214843751,23.007523473254615L61.0163876953125,20.70751408395277L61.36124414062502,24.40150845037167L61.721182617187516,29.449905070222993L62.03104101562501,26.99194304213379L62.37473730468751,25.989165825280285L62.6951337890625,25.859499495168173L63.00441210937501,26.135699697100904L63.34279101562501,26.41941981826054L63.67179199218751,27.415651890956322L64.004853515625,23.23439113457381L64.30997460937502,24.088634680744292L64.62650390625001,23.480180808446544L64.9454501953125,22.761108485067947L65.2662333984375,23.155665091040767L65.56632714843751,26.34239905462446L65.88450000000002,25.422439432774674L66.189427734375,22.9824636596648L66.5358310546875,26.06147819579888L66.84907324218752,22.77588691747931L67.166859375,22.987532150487603L67.496150390625,25.238519290292558L67.83182226562502,25.23211157417554L68.13897363281251,24.048266944505293L68.45579296875,22.7479601667032L68.77502929687502,24.445776100021938L69.09349218750002,22.98646566001314L69.422396484375,24.23487939600787L69.733318359375,22.505927637604735L70.03379882812501,20.583556582562824L70.37072753906251,23.7961339495377L70.6984716796875,24.30768036972262L71.00745996093751,23.257608221833557L71.30881054687502,22.096564933100147L71.643322265625,24.054938959860085L71.944189453125,21.512963375916048L72.28276171875002,22.34777802554965L72.58565917968751,20.0756668153298L72.90325195312501,20.482400089197867L73.2067294921875,21.31644005351873L73.52074511718752,20.40086403211122L73.82209570312502,20.97251841926672L74.13040722656251,21.49251105156003L74.44422949218752,20.74250663093603L74.754474609375,21.708503978561627L75.06936035156251,21.10810238713694L75.37457812500001,20.511861432282164L75.69207421875001,21.03911685936932L75.98714062500001,20.82447011562157L76.30105957031252,21.757682069372954L76.6115947265625,20.665609241623756L76.91768261718752,20.541365544974262L77.23334179687501,20.584819326984558L77.5557685546875,23.206891596190733L77.8696875,22.715134957714422L78.18302636718751,22.06608097462867L78.4970419921875,21.558648584777195L78.80216308593751,22.257189150866317L79.12439648437501,22.735313490519772L79.422169921875,22.550188094311896L79.7300947265625,22.14411285658713L80.05532519531252,22.077467713952267L80.36982421875,20.97548062837136L80.68006933593752,20.255288377022833L80.982193359375,19.882173026213696L81.300462890625,19.481303815728225L81.5809306640625,19.299782289436926L81.87599707031251,19.249869373662154L82.15617480468751,18.924921624197278L82.468546875,21.738952974518398L82.74659765625002,20.536371784711033L83.0299658203125,19.460823070826613L83.31923144531251,18.933493842495967L83.600859375,18.61709630549756L83.8939921875,19.430257783298565L84.17358984375002,19.21015466997912L84.46072851562501,19.19609280198746L84.744966796875,20.485655681192473L85.02746484375001,21.31839340871549L85.3208876953125,19.989036045229305L85.60193554687501,19.60442162713758L85.89439160156252,19.550652976282535L86.17195898437501,18.810391785769525L86.45919433593751,18.366235071461713L86.74855664062501,18.98474104287705L87.03269824218751,19.23784462572622L87.32563769531251,21.336706775435722L87.60726562500001,19.94102406526144L87.906392578125,19.752614439156872L88.18579687500001,18.99056866349412L88.47283886718749,18.297341198096486L88.7561103515625,17.999404718857868L89.0380283203125,17.407642831314732L89.32603710937501,24.72258569878883L89.60418457031251,23.270551419273296L89.8932568359375,21.101330851563976L90.17710839843751,20.802798510938388L90.46511718750001,19.14867910656304L90.75428613281251,19.926207463937814L91.037654296875,20.038724478362667L91.3289501953125,19.16223468701761L91.6346513671875,21.99934081221059L91.92411035156249,20.98760448732633L92.2048681640625,20.498562692395797L92.51666015625003,18.553137615437482L92.79712792968749,19.096882569262476L93.1036025390625,21.193129541557482L93.40659667968751,20.090877724934487L93.70311328125,18.662526634960717L93.98822167968751,18.572515980976423L94.28425488281252,20.22950958858586L94.57313378906251,19.748705753151484L94.87042382812503,19.22422345189091L95.1722578125,23.15753407113455L95.46732421875001,27.818520442680715L95.76741796875,22.414112265608413L96.05736035156251,20.174467359365053L96.34372558593752,20.305680415619044L96.6420791015625,19.971408249371432L96.93173144531251,19.711844949622883L97.23636914062502,18.67110696977372L97.52621484375001,19.816664181864223L97.82389160156252,21.21199850911855L98.11277050781251,19.68919910547113L98.4163447265625,19.30651946328266L98.71682519531251,17.837911677969597L99.00773437500001,19.611747006781755L99.30502441406252,18.493048204069048L99.5956435546875,19.76882892244144L99.88780957031251,19.059297353464856L100.18152246093752,19.34157841207892L100.47958593750002,18.50794704724733L100.77204199218751,18.715768228348406L101.05695703125002,19.25346093700905L101.35357031250001,17.688076562205442L101.6388720703125,18.164845937323246L101.93683886718752,18.68690756239393L102.22320410156252,19.649144537436346L102.52213769531251,19.813486722461814L102.8282255859375,22.213092033477093L103.1232919921875,21.17485522008625L103.41845507812502,19.902913132051744L103.71593847656251,20.732747879231056L103.99872656250001,19.342648727538617L104.2981435546875,19.216589236523202L104.58412207031252,18.55095354191393L104.88392578125001,18.741572125148316L105.19842480468753,20.330943275089016L105.50944335937503,20.989565965053412L105.81533789062502,18.611739579032037L106.101896484375,17.716043747419207L106.43611816406252,19.77462624845155L106.74839355468751,21.068775749070927L107.08880273437501,25.267265449442565L107.40175488281251,23.184359269665528L107.70890625000001,21.285615561799315L108.03945410156251,23.39136933707957L108.35124609375,21.94082160224775L108.65008300781251,21.01149296134864L108.96864257812501,22.518895776809178L109.27763085937501,21.181337466085523L109.5708603515625,19.96580247965131L109.88835644531251,25.5494814877908L110.1915439453125,21.937688892674466L110.5090400390625,21.422613335604673L110.81899511718751,19.874568001362825L111.1235361328125,25.3767408008177L111.44422265625003,24.430044480490633L111.7473134765625,21.91502668829438L112.08868945312501,22.707016012976606" style="fill: none;" fill="none"></path></g></g></g></g><g opacity="0.2"><g><g><g><path stroke="rgb(0, 119, 187)" stroke-width="2px" d="M34.80468750000001,151.925L34.833691406250004,162.25L35.90789941406251,94.4L37.764632812500004,67.70249999999999L39.64369921875001,76.11000000000001L41.46243750000001,57.82L43.2998349609375,57.37750000000001L45.193403320312505,76.5525L46.95191015625,43.365L48.81444433593751,69.7675L50.57101757812501,71.09499999999998L52.373513671875,62.0975L54.273849609375006,59.00000000000001L55.99378125,72.71750000000002L57.73681933593751,83.9275L59.65049707031251,87.7625L61.33649414062501,83.19L63.1346396484375,53.837500000000006L65.0030712890625,38.05499999999999L66.91500878906251,46.7575L68.9278798828125,43.5125L70.9815498046875,54.575L72.89522753906252,30.5325L74.77593750000001,57.52499999999999L76.65848437500001,46.7575L78.53851757812501,49.56L80.49724804687501,55.3125L82.41730664062501,42.775000000000006L84.27723046875002,39.824999999999996L86.3342841796875,37.465L88.26265722656251,52.805L90.09580078125,55.60750000000001L91.91966308593751,48.232499999999995L93.95419042968751,51.035L95.8444716796875,51.330000000000005L97.6993681640625,31.712500000000006L99.6445634765625,45.135L101.43526464843752,43.95499999999999L103.36895507812501,31.712500000000006L105.282826171875,41.7425L107.27810156250001,43.06999999999999L109.24369628906253,41.595L111.11319140625002,49.70750000000001L112.95948339843753,45.135L114.75936914062503,39.9725L116.6611552734375,59.885000000000005L118.70718750000002,39.9725L120.76984863281253,49.56L122.7425009765625,40.120000000000005L124.67996191406252,47.495L126.564345703125,26.254999999999995L128.45617382812503,34.220000000000006L130.26601757812503,25.07500000000001L132.1026416015625,29.942500000000003L134.11628613281252,21.829999999999995L136.11078808593751,33.62999999999999L137.91560449218753,33.04L139.93205273437502,25.5175L141.85249804687498,29.795L143.6822578125,33.335L145.54827246093754,22.862499999999997L147.51135351562502,27.877499999999994L149.3978642578125,25.369999999999997L151.35224414062503,39.0875L153.189158203125,31.269999999999996L155.00915332031252,30.97500000000001L156.9357861328125,22.567499999999992L158.80499121093752,23.45249999999999L160.829560546875,23.305000000000007L162.71104394531253,26.69750000000001L164.61002636718752,22.714999999999993L166.558412109375,35.99000000000001L168.469189453125,42.332499999999996L170.3179951171875,19.47L172.1122734375,21.829999999999995L173.986119140625,22.420000000000005L176.0458798828125,44.3975L177.96033105468754,25.812500000000007L179.7960849609375,40.709999999999994L181.624201171875,20.05999999999999L183.423603515625,36.4325L185.40959765625004,41.15250000000001L187.25637304687504,22.125L189.023677734375,21.682500000000008L190.87760742187504,36.87500000000001L192.75609375000002,28.91L194.63854394531253,21.682500000000008L196.46250292968753,23.7475L198.46522265625003,23.305000000000007L200.36478515625,21.682500000000008L202.30824023437503,19.91250000000001L204.150955078125,25.5175L206.05051757812504,29.795L208.03979882812502,18.584999999999997L209.928533203125,19.027500000000007L211.6882001953125,19.47L213.40078417968752,22.862499999999997L215.233734375,19.765000000000004L217.19981250000004,27.877499999999994L219.0613798828125,27.729999999999993L220.84009277343748,18.7325L222.80974804687503,17.40500000000001L224.6291630859375,20.944999999999993L226.398884765625,26.107499999999995L228.18803906250002,20.05999999999999L230.25505078125,19.765000000000004L232.032216796875,21.682500000000008L233.90393554687503,21.092499999999994L235.8169365234375,21.682500000000008L237.67260644531254,18.584999999999997L239.6939853515625,20.207499999999996L241.612787109375,18.880000000000003L243.46410644531252,24.33749999999999L245.412685546875,29.057500000000005L247.3660986328125,20.354999999999997L249.295921875,25.07500000000001L251.18678320312497,39.677499999999995L253.063142578125,18.584999999999997L254.8995732421875,19.6175L256.73368359375,20.944999999999993L258.51752050781255,18.29000000000001L260.51849999999996,24.33749999999999L262.38074414062504,17.40500000000001L264.224619140625,17.8475L266.03842675781254,16.225L267.816849609375,25.5175" style="fill: none;" fill="none"></path></g><g><path stroke="rgb(204, 51, 17)" stroke-width="2px" d="M34.80468750000001,140.2725L34.84451953125001,129.21L34.8904423828125,152.51500000000001L34.9637255859375,115.05L35.270200195312505,115.05L35.612156250000005,97.2025L35.937966796875,82.01L36.24144433593751,93.21999999999998L36.573345703125,91.74499999999999L36.878176757812504,89.5325L37.17914062500001,110.92L37.458351562500006,74.7825L37.744426757812505,82.15749999999998L38.05737890625,71.39L38.336203125000004,73.0125L38.621698242187506,71.685L38.941611328125006,82.30499999999999L39.2590107421875,93.515L39.605220703125006,80.0925L39.943116210937504,88.5L40.284782226562506,57.9675L40.626351562500005,66.52250000000001L40.981552734375,53.24749999999999L41.334723632812505,68.2925L41.67996679687501,52.36249999999999L42.02627343750001,41.595L42.372290039062506,68.145L42.734162109375006,51.182500000000005L43.104058593750004,57.67249999999999L43.4736650390625,55.165L43.823162109375005,50.15L44.14742578125001,35.105000000000004L44.51364843750001,54.4275L44.8548310546875,33.335L45.2040380859375,39.9725L45.519890625,33.04L45.851695312500006,59.59L46.152755859375006,43.80750000000001L46.4927783203125,34.662499999999994L46.814528320312505,29.942500000000003L47.13376464843751,24.484999999999996L47.461025390625004,42.48L47.78267871093751,29.35250000000001L48.097564453125,53.690000000000005L48.435363281250005,39.824999999999996L48.78882421875001,70.0625L49.116955078125,71.24249999999999L49.44663281250001,47.93750000000001L49.80995507812501,55.902499999999996L50.13354199218751,64.30999999999999L50.479558593750006,63.27750000000001L50.8039189453125,44.3975L51.11861132812501,25.5175L51.47448925781251,56.1975L51.80590722656252,46.60999999999999L52.13297460937501,49.70750000000001L52.49871386718751,43.95499999999999L52.84163671875001,29.057500000000005L53.18997363281251,37.022499999999994L53.507856445312505,24.78L53.85754687500001,31.565L54.193508789062506,32.597500000000004L54.51786914062501,27.139999999999997L54.880901367187505,39.824999999999996L55.21618652343751,28.762499999999996L55.528848632812505,34.662499999999994L55.87573535156252,30.827500000000004L56.19700195312501,28.172500000000003L56.52725976562501,26.4025L56.84214550781251,22.862499999999997L57.16041503906251,20.944999999999993L57.51348925781251,38.2025L57.823927734375005,21.829999999999995L58.16636718750001,29.499999999999993L58.48521679687501,21.387500000000003L58.80097265625001,19.17499999999999L59.1040634765625,19.6175L59.426973632812505,18.29000000000001L59.751333984375,29.795L60.07240722656251,22.567499999999992L60.37926855468751,22.567499999999992L60.70295214843751,22.862499999999997L61.0163876953125,17.257500000000004L61.36124414062502,29.942500000000003L61.721182617187516,37.022499999999994L62.03104101562501,23.305000000000007L62.37473730468751,24.484999999999996L62.6951337890625,25.665000000000003L63.00441210937501,26.550000000000004L63.34279101562501,26.84499999999999L63.67179199218751,28.91L64.004853515625,16.9625L64.30997460937502,25.369999999999997L64.62650390625001,22.567499999999992L64.9454501953125,21.682500000000008L65.2662333984375,23.7475L65.56632714843751,31.12249999999999L65.88450000000002,24.042500000000004L66.189427734375,19.322499999999994L66.5358310546875,30.68L66.84907324218752,17.8475L67.166859375,23.305000000000007L67.496150390625,28.61499999999999L67.83182226562502,25.222499999999993L68.13897363281251,22.272500000000004L68.45579296875,20.79750000000001L68.77502929687502,26.992499999999996L69.09349218750002,20.79750000000001L69.422396484375,26.107499999999995L69.733318359375,19.91250000000001L70.03379882812501,17.699999999999996L70.37072753906251,28.61499999999999L70.6984716796875,25.07500000000001L71.00745996093751,21.682500000000008L71.30881054687502,20.354999999999997L71.643322265625,26.992499999999996L71.944189453125,17.699999999999996L72.28276171875002,23.599999999999994L72.58565917968751,16.667499999999993L72.90325195312501,21.092499999999994L73.2067294921875,22.567499999999992L73.52074511718752,19.027500000000007L73.82209570312502,21.829999999999995L74.13040722656251,22.272500000000004L74.44422949218752,19.6175L74.754474609375,23.157500000000006L75.06936035156251,20.207499999999996L75.37457812500001,19.6175L75.69207421875001,21.829999999999995L75.98714062500001,20.5025L76.30105957031252,23.157500000000006L76.6115947265625,19.027500000000007L76.91768261718752,20.354999999999997L77.23334179687501,20.650000000000006L77.5557685546875,27.139999999999997L77.8696875,21.977499999999996L78.18302636718751,21.092499999999994L78.4970419921875,20.79750000000001L78.80216308593751,23.305000000000007L79.12439648437501,23.45249999999999L79.422169921875,22.272500000000004L79.7300947265625,21.535000000000007L80.05532519531252,21.977499999999996L80.36982421875,19.322499999999994L80.68006933593752,19.17499999999999L80.982193359375,19.322499999999994L81.300462890625,18.880000000000003L81.5809306640625,19.027500000000007L81.87599707031251,19.17499999999999L82.15617480468751,18.437499999999993L82.468546875,25.95999999999999L82.74659765625002,18.7325L83.0299658203125,17.8475L83.31923144531251,18.142500000000005L83.600859375,18.142500000000005L83.8939921875,20.650000000000006L84.17358984375002,18.880000000000003L84.46072851562501,19.17499999999999L84.744966796875,22.420000000000005L85.02746484375001,22.567499999999992L85.3208876953125,17.995000000000005L85.60193554687501,19.027500000000007L85.89439160156252,19.47L86.17195898437501,17.699999999999996L86.45919433593751,17.699999999999996L86.74855664062501,19.91250000000001L87.03269824218751,19.6175L87.32563769531251,24.484999999999996L87.60726562500001,17.8475L87.906392578125,19.47L88.18579687500001,17.8475L88.47283886718749,17.257500000000004L88.7561103515625,17.55249999999999L89.0380283203125,16.520000000000007L89.32603710937501,35.695L89.60418457031251,21.092499999999994L89.8932568359375,17.8475L90.17710839843751,20.354999999999997L90.46511718750001,16.667499999999993L90.75428613281251,21.092499999999994L91.037654296875,20.207499999999996L91.3289501953125,17.8475L91.6346513671875,26.254999999999995L91.92411035156249,19.47L92.2048681640625,19.765000000000004L92.51666015625003,15.635000000000007L92.79712792968749,19.91250000000001L93.1036025390625,24.33749999999999L93.40659667968751,18.437499999999993L93.70311328125,16.520000000000007L93.98822167968751,18.437499999999993L94.28425488281252,22.714999999999993L94.57313378906251,19.027500000000007L94.87042382812503,18.437499999999993L95.1722578125,29.057500000000005L95.46732421875001,34.809999999999995L95.76741796875,14.307499999999996L96.05736035156251,16.814999999999994L96.34372558593752,20.5025L96.6420791015625,19.47L96.93173144531251,19.322499999999994L97.23636914062502,17.110000000000003L97.52621484375001,21.535000000000007L97.82389160156252,23.305000000000007L98.11277050781251,17.40500000000001L98.4163447265625,18.7325L98.71682519531251,15.635000000000007L99.00773437500001,22.272500000000004L99.30502441406252,16.814999999999994L99.5956435546875,21.682500000000008L99.88780957031251,17.995000000000005L100.18152246093752,19.765000000000004L100.47958593750002,17.257500000000004L100.77204199218751,19.027500000000007L101.05695703125002,20.05999999999999L101.35357031250001,15.34L101.6388720703125,18.880000000000003L101.93683886718752,19.47L102.22320410156252,21.092499999999994L102.52213769531251,20.05999999999999L102.8282255859375,25.812500000000007L103.1232919921875,19.6175L103.41845507812502,17.995000000000005L103.71593847656251,21.977499999999996L103.99872656250001,17.257500000000004L104.2981435546875,19.027500000000007L104.58412207031252,17.55249999999999L104.88392578125001,19.027500000000007L105.19842480468753,22.714999999999993L105.50944335937503,21.977499999999996L105.81533789062502,15.044999999999995L106.101896484375,16.372500000000006L106.43611816406252,22.862499999999997L106.74839355468751,23.01L107.08880273437501,31.565L107.40175488281251,20.05999999999999L107.70890625000001,18.437499999999993L108.03945410156251,26.550000000000004L108.35124609375,19.765000000000004L108.65008300781251,19.6175L108.96864257812501,24.78L109.27763085937501,19.17499999999999L109.5708603515625,18.142500000000005L109.88835644531251,33.925L110.1915439453125,16.520000000000007L110.5090400390625,20.650000000000006L110.81899511718751,17.55249999999999L111.1235361328125,33.62999999999999L111.44422265625003,23.01L111.7473134765625,18.142500000000005L112.08868945312501,23.895000000000003" style="fill: none;" fill="none"></path></g></g></g></g></g></g><g transform="translate(51, 177)" clip-path="url(#clip_1)"><clipPath id="clip_1"><rect width="278" height="23"></rect></clipPath><g><g><line x1="0" y1="0" x2="0" y2="5" style="visibility: inherit;" fill="rgb(0, 0, 0)" stroke="rgb(204, 204, 204)" stroke-width="1px"></line><line x1="34.80468750000001" y1="0" x2="34.80468750000001" y2="5" style="visibility: inherit;" fill="rgb(0, 0, 0)" stroke="rgb(204, 204, 204)" stroke-width="1px"></line><line x1="69.60937500000001" y1="0" x2="69.60937500000001" y2="5" style="visibility: inherit;" fill="rgb(0, 0, 0)" stroke="rgb(204, 204, 204)" stroke-width="1px"></line><line x1="104.41406250000003" y1="0" x2="104.41406250000003" y2="5" style="visibility: inherit;" fill="rgb(0, 0, 0)" stroke="rgb(204, 204, 204)" stroke-width="1px"></line><line x1="139.21875000000003" y1="0" x2="139.21875000000003" y2="5" style="visibility: inherit;" fill="rgb(0, 0, 0)" stroke="rgb(204, 204, 204)" stroke-width="1px"></line><line x1="174.0234375" y1="0" x2="174.0234375" y2="5" style="visibility: inherit;" fill="rgb(0, 0, 0)" stroke="rgb(204, 204, 204)" stroke-width="1px"></line><line x1="208.828125" y1="0" x2="208.828125" y2="5" style="visibility: inherit;" fill="rgb(0, 0, 0)" stroke="rgb(204, 204, 204)" stroke-width="1px"></line><line x1="243.6328125" y1="0" x2="243.6328125" y2="5" style="visibility: inherit;" fill="rgb(0, 0, 0)" stroke="rgb(204, 204, 204)" stroke-width="1px"></line><line x1="278.4375" y1="0" x2="278.4375" y2="5" style="visibility: inherit;" fill="rgb(0, 0, 0)" stroke="rgb(204, 204, 204)" stroke-width="1px"></line></g><g transform="translate(0, 8)"><text x="0" y="0" dx="0em" dy="0.95em" style="text-anchor: middle; visibility: hidden; font-family: Roboto, sans-serif; font-size: 12px; font-weight: 200;" fill="rgb(33, 33, 33)" stroke="none" stroke-width="1px">-0.1</text><text x="34.80468750000001" y="0" dx="0em" dy="0.95em" style="text-anchor: middle; visibility: inherit; font-family: Roboto, sans-serif; font-size: 12px; font-weight: 200;" fill="rgb(33, 33, 33)" stroke="none" stroke-width="1px">0</text><text x="69.60937500000001" y="0" dx="0em" dy="0.95em" style="text-anchor: middle; visibility: inherit; font-family: Roboto, sans-serif; font-size: 12px; font-weight: 200;" fill="rgb(33, 33, 33)" stroke="none" stroke-width="1px">0.1</text><text x="104.41406250000003" y="0" dx="0em" dy="0.95em" style="text-anchor: middle; visibility: inherit; font-family: Roboto, sans-serif; font-size: 12px; font-weight: 200;" fill="rgb(33, 33, 33)" stroke="none" stroke-width="1px">0.2</text><text x="139.21875000000003" y="0" dx="0em" dy="0.95em" style="text-anchor: middle; visibility: inherit; font-family: Roboto, sans-serif; font-size: 12px; font-weight: 200;" fill="rgb(33, 33, 33)" stroke="none" stroke-width="1px">0.3</text><text x="174.0234375" y="0" dx="0em" dy="0.95em" style="text-anchor: middle; visibility: inherit; font-family: Roboto, sans-serif; font-size: 12px; font-weight: 200;" fill="rgb(33, 33, 33)" stroke="none" stroke-width="1px">0.4</text><text x="208.828125" y="0" dx="0em" dy="0.95em" style="text-anchor: middle; visibility: inherit; font-family: Roboto, sans-serif; font-size: 12px; font-weight: 200;" fill="rgb(33, 33, 33)" stroke="none" stroke-width="1px">0.5</text><text x="243.6328125" y="0" dx="0em" dy="0.95em" style="text-anchor: middle; visibility: inherit; font-family: Roboto, sans-serif; font-size: 12px; font-weight: 200;" fill="rgb(33, 33, 33)" stroke="none" stroke-width="1px">0.6</text><text x="278.4375" y="0" dx="0em" dy="0.95em" style="text-anchor: middle; visibility: hidden; font-family: Roboto, sans-serif; font-size: 12px; font-weight: 200;" fill="rgb(33, 33, 33)" stroke="none" stroke-width="1px">0.7</text></g><line x1="0" y1="0" x2="278.4375" y2="0" fill="rgb(0, 0, 0)" stroke="rgb(204, 204, 204)" stroke-width="1px"></line></g></g></g></g></svg>