<svg viewBox="0 0 330 200" xmlns="http://www.w3.org/2000/svg"><g><g><g><g><g><line x1="50" y1="177" x2="45" y2="177" style="visibility: inherit;" fill="rgb(0, 0, 0)" stroke="rgb(204, 204, 204)" stroke-width="1px"></line><line x1="50" y1="163.3846153846154" x2="45" y2="163.3846153846154" style="visibility: inherit;" fill="rgb(0, 0, 0)" stroke="rgb(204, 204, 204)" stroke-width="1px"></line><line x1="50" y1="149.76923076923077" x2="45" y2="149.76923076923077" style="visibility: inherit;" fill="rgb(0, 0, 0)" stroke="rgb(204, 204, 204)" stroke-width="1px"></line><line x1="50" y1="136.15384615384613" x2="45" y2="136.15384615384613" style="visibility: inherit;" fill="rgb(0, 0, 0)" stroke="rgb(204, 204, 204)" stroke-width="1px"></line><line x1="50" y1="122.53846153846153" x2="45" y2="122.53846153846153" style="visibility: inherit;" fill="rgb(0, 0, 0)" stroke="rgb(204, 204, 204)" stroke-width="1px"></line><line x1="50" y1="108.92307692307693" x2="45" y2="108.92307692307693" style="visibility: inherit;" fill="rgb(0, 0, 0)" stroke="rgb(204, 204, 204)" stroke-width="1px"></line><line x1="50" y1="95.3076923076923" x2="45" y2="95.3076923076923" style="visibility: inherit;" fill="rgb(0, 0, 0)" stroke="rgb(204, 204, 204)" stroke-width="1px"></line><line x1="50" y1="81.6923076923077" x2="45" y2="81.6923076923077" style="visibility: inherit;" fill="rgb(0, 0, 0)" stroke="rgb(204, 204, 204)" stroke-width="1px"></line><line x1="50" y1="68.07692307692307" x2="45" y2="68.07692307692307" style="visibility: inherit;" fill="rgb(0, 0, 0)" stroke="rgb(204, 204, 204)" stroke-width="1px"></line><line x1="50" y1="54.46153846153847" x2="45" y2="54.46153846153847" style="visibility: inherit;" fill="rgb(0, 0, 0)" stroke="rgb(204, 204, 204)" stroke-width="1px"></line><line x1="50" y1="40.84615384615384" x2="45" y2="40.84615384615384" style="visibility: inherit;" fill="rgb(0, 0, 0)" stroke="rgb(204, 204, 204)" stroke-width="1px"></line><line x1="50" y1="27.230769230769234" x2="45" y2="27.230769230769234" style="visibility: inherit;" fill="rgb(0, 0, 0)" stroke="rgb(204, 204, 204)" stroke-width="1px"></line><line x1="50" y1="13.615384615384606" x2="45" y2="13.615384615384606" style="visibility: inherit;" fill="rgb(0, 0, 0)" stroke="rgb(204, 204, 204)" stroke-width="1px"></line><line x1="50" y1="0" x2="45" y2="0" style="visibility: inherit;" fill="rgb(0, 0, 0)" stroke="rgb(204, 204, 204)" stroke-width="1px"></line></g><g transform="translate(40, 0)"><text x="0" y="177" dx="0em" dy="0.3em" style="text-anchor: end; visibility: hidden; font-family: Roboto, sans-serif; font-size: 12px; font-weight: 200;" fill="rgb(33, 33, 33)" stroke="none" stroke-width="1px">-350</text><text x="0" y="163.3846153846154" dx="0em" dy="0.3em" style="text-anchor: end; visibility: inherit; font-family: Roboto, sans-serif; font-size: 12px; font-weight: 200;" fill="rgb(33, 33, 33)" stroke="none" stroke-width="1px">-300</text><text x="0" y="149.76923076923077" dx="0em" dy="0.3em" style="text-anchor: end; visibility: hidden; font-family: Roboto, sans-serif; font-size: 12px; font-weight: 200;" fill="rgb(33, 33, 33)" stroke="none" stroke-width="1px">-250</text><text x="0" y="136.15384615384613" dx="0em" dy="0.3em" style="text-anchor: end; visibility: inherit; font-family: Roboto, sans-serif; font-size: 12px; font-weight: 200;" fill="rgb(33, 33, 33)" stroke="none" stroke-width="1px">-200</text><text x="0" y="122.53846153846153" dx="0em" dy="0.3em" style="text-anchor: end; visibility: hidden; font-family: Roboto, sans-serif; font-size: 12px; font-weight: 200;" fill="rgb(33, 33, 33)" stroke="none" stroke-width="1px">-150</text><text x="0" y="108.92307692307693" dx="0em" dy="0.3em" style="text-anchor: end; visibility: inherit; font-family: Roboto, sans-serif; font-size: 12px; font-weight: 200;" fill="rgb(33, 33, 33)" stroke="none" stroke-width="1px">-100</text><text x="0" y="95.3076923076923" dx="0em" dy="0.3em" style="text-anchor: end; visibility: hidden; font-family: Roboto, sans-serif; font-size: 12px; font-weight: 200;" fill="rgb(33, 33, 33)" stroke="none" stroke-width="1px">-50</text><text x="0" y="81.6923076923077" dx="0em" dy="0.3em" style="text-anchor: end; visibility: inherit; font-family: Roboto, sans-serif; font-size: 12px; font-weight: 200;" fill="rgb(33, 33, 33)" stroke="none" stroke-width="1px">0</text><text x="0" y="68.07692307692307" dx="0em" dy="0.3em" style="text-anchor: end; visibility: hidden; font-family: Roboto, sans-serif; font-size: 12px; font-weight: 200;" fill="rgb(33, 33, 33)" stroke="none" stroke-width="1px">50</text><text x="0" y="54.46153846153847" dx="0em" dy="0.3em" style="text-anchor: end; visibility: inherit; font-family: Roboto, sans-serif; font-size: 12px; font-weight: 200;" fill="rgb(33, 33, 33)" stroke="none" stroke-width="1px">100</text><text x="0" y="40.84615384615384" dx="0em" dy="0.3em" style="text-anchor: end; visibility: hidden; font-family: Roboto, sans-serif; font-size: 12px; font-weight: 200;" fill="rgb(33, 33, 33)" stroke="none" stroke-width="1px">150</text><text x="0" y="27.230769230769234" dx="0em" dy="0.3em" style="text-anchor: end; visibility: inherit; font-family: Roboto, sans-serif; font-size: 12px; font-weight: 200;" fill="rgb(33, 33, 33)" stroke="none" stroke-width="1px">200</text><text x="0" y="13.615384615384606" dx="0em" dy="0.3em" style="text-anchor: end; visibility: hidden; font-family: Roboto, sans-serif; font-size: 12px; font-weight: 200;" fill="rgb(33, 33, 33)" stroke="none" stroke-width="1px">250</text><text x="0" y="0" dx="0em" dy="0.3em" style="text-anchor: end; visibility: hidden; font-family: Roboto, sans-serif; font-size: 12px; font-weight: 200;" fill="rgb(33, 33, 33)" stroke="none" stroke-width="1px">300</text></g><line x1="50" y1="0" x2="50" y2="177" fill="rgb(0, 0, 0)" stroke="rgb(204, 204, 204)" stroke-width="1px"></line></g></g><g transform="translate(50, 0)" clip-path="url(#clip_0)"><clipPath id="clip_0"><rect width="280" height="177"></rect></clipPath><g><g><g><line x1="0" y1="0" x2="0" y2="177" fill="rgb(0, 0, 0)" stroke="rgb(66, 66, 66)" stroke-width="1px" opacity="0.25"></line><line x1="28" y1="0" x2="28" y2="177" fill="rgb(0, 0, 0)" stroke="rgb(66, 66, 66)" stroke-width="1px" opacity="0.25"></line><line x1="56" y1="0" x2="56" y2="177" fill="rgb(0, 0, 0)" stroke="rgb(66, 66, 66)" stroke-width="1px" opacity="0.25"></line><line x1="84" y1="0" x2="84" y2="177" fill="rgb(0, 0, 0)" stroke="rgb(66, 66, 66)" stroke-width="1px" opacity="0.25"></line><line x1="112" y1="0" x2="112" y2="177" fill="rgb(0, 0, 0)" stroke="rgb(66, 66, 66)" stroke-width="1px" opacity="0.25"></line><line x1="140" y1="0" x2="140" y2="177" fill="rgb(0, 0, 0)" stroke="rgb(66, 66, 66)" stroke-width="1px" opacity="0.25"></line><line x1="168" y1="0" x2="168" y2="177" fill="rgb(0, 0, 0)" stroke="rgb(66, 66, 66)" stroke-width="1px" opacity="0.25"></line><line x1="196" y1="0" x2="196" y2="177" fill="rgb(0, 0, 0)" stroke="rgb(66, 66, 66)" stroke-width="1px" opacity="0.25"></line><line x1="224" y1="0" x2="224" y2="177" fill="rgb(0, 0, 0)" stroke="rgb(66, 66, 66)" stroke-width="1px" opacity="0.25"></line><line x1="252" y1="0" x2="252" y2="177" fill="rgb(0, 0, 0)" stroke="rgb(66, 66, 66)" stroke-width="1px" opacity="0.25"></line><line x1="280" y1="0" x2="280" y2="177" fill="rgb(0, 0, 0)" stroke="rgb(66, 66, 66)" stroke-width="1px" opacity="0.25"></line></g><g><line x1="0" y1="177" x2="280" y2="177" fill="rgb(0, 0, 0)" stroke="rgb(66, 66, 66)" stroke-width="1px" opacity="0.25"></line><line x1="0" y1="163.3846153846154" x2="280" y2="163.3846153846154" fill="rgb(0, 0, 0)" stroke="rgb(66, 66, 66)" stroke-width="1px" opacity="0.25"></line><line x1="0" y1="149.76923076923077" x2="280" y2="149.76923076923077" fill="rgb(0, 0, 0)" stroke="rgb(66, 66, 66)" stroke-width="1px" opacity="0.25"></line><line x1="0" y1="136.15384615384613" x2="280" y2="136.15384615384613" fill="rgb(0, 0, 0)" stroke="rgb(66, 66, 66)" stroke-width="1px" opacity="0.25"></line><line x1="0" y1="122.53846153846153" x2="280" y2="122.53846153846153" fill="rgb(0, 0, 0)" stroke="rgb(66, 66, 66)" stroke-width="1px" opacity="0.25"></line><line x1="0" y1="108.92307692307693" x2="280" y2="108.92307692307693" fill="rgb(0, 0, 0)" stroke="rgb(66, 66, 66)" stroke-width="1px" opacity="0.25"></line><line x1="0" y1="95.3076923076923" x2="280" y2="95.3076923076923" fill="rgb(0, 0, 0)" stroke="rgb(66, 66, 66)" stroke-width="1px" opacity="0.25"></line><line x1="0" y1="81.6923076923077" x2="280" y2="81.6923076923077" fill="rgb(0, 0, 0)" stroke="rgb(66, 66, 66)" stroke-width="1px" opacity="0.25"></line><line x1="0" y1="68.07692307692307" x2="280" y2="68.07692307692307" fill="rgb(0, 0, 0)" stroke="rgb(66, 66, 66)" stroke-width="1px" opacity="0.25"></line><line x1="0" y1="54.46153846153847" x2="280" y2="54.46153846153847" fill="rgb(0, 0, 0)" stroke="rgb(66, 66, 66)" stroke-width="1px" opacity="0.25"></line><line x1="0" y1="40.84615384615384" x2="280" y2="40.84615384615384" fill="rgb(0, 0, 0)" stroke="rgb(66, 66, 66)" stroke-width="1px" opacity="0.25"></line><line x1="0" y1="27.230769230769234" x2="280" y2="27.230769230769234" fill="rgb(0, 0, 0)" stroke="rgb(66, 66, 66)" stroke-width="1px" opacity="0.25"></line><line x1="0" y1="13.615384615384606" x2="280" y2="13.615384615384606" fill="rgb(0, 0, 0)" stroke="rgb(66, 66, 66)" stroke-width="1px" opacity="0.25"></line><line x1="0" y1="0" x2="280" y2="0" fill="rgb(0, 0, 0)" stroke="rgb(66, 66, 66)" stroke-width="1px" opacity="0.25"></line></g></g></g><g><g><line x1="0" y1="81.6923076923077" x2="280" y2="81.6923076923077" fill="rgb(0, 0, 0)" stroke="rgb(153, 153, 153)" stroke-width="1.5px"></line></g></g><g><g><line x1="28" y1="0" x2="28" y2="177" fill="rgb(0, 0, 0)" stroke="rgb(153, 153, 153)" stroke-width="1.5px"></line></g></g><g><g><g><g><g><path stroke="rgb(204, 51, 17)" stroke-width="2px" d="M28,159.8446153846154L29.119999999999997,135.66344587539157L30.24,128.36451273977778L31.36,127.16369042410811L32.480000000000004,123.63039846183517L33.6,127.28593762899735L34.72,121.47886353566402L35.84,111.48051985665582L36.96,99.82180039493899L38.080000000000005,105.63327356368308L39.2,106.50761872498308L40.32,111.64334688176426L41.44,112.03573907870823L42.56,111.6839163923983L43.68,122.55921980537056L44.800000000000004,119.47683452265328L45.92,112.6557009346191L47.040000000000006,108.14980535923043L48.16,109.02997380972818L49.279999999999994,102.21065673997366L50.4,100.09548781457534L51.519999999999996,92.39132278366196L52.64,91.23316087694342L53.76,91.92698066114195L54.88,95.24283581818554L56,92.34878863352353L57.12,93.98419840228861L58.239999999999995,94.79715346107349L59.36,93.65154814293324L60.48,84.619355567228L61.6,85.89907491337901L62.72,88.14553154461977L63.84,86.77450845472967L64.96000000000001,87.61715682743845L66.08,89.27517143990302L67.2,87.89489632675853L68.32,86.26627624454235L69.44,82.99383300061575L70.56,87.93560314973084L71.68,85.8553507361791L72.8,91.08081665846247L73.92,83.53265927153798L75.04,81.21040884915978L76.16000000000001,73.4883919255777L77.28,72.99103231722975L78.4,75.4519690099934L79.52,67.23386010640448L80.64,65.47100825191873L81.75999999999999,58.684044109002336L82.88,48.796675238896256L84,40.192375871887464L85.12,39.08054345391976L86.24,32.41451639026773L87.36,28.49534298324901L88.48,32.30836376125759L89.60000000000001,28.287467992986123L90.72,31.011557752887764L91.84,29.818537625010038L92.96000000000001,31.808366469645534L94.08000000000001,29.04062815934347L95.2,28.304863890059455L96.32,27.866147741014352L97.44,24.812672051287556L98.55999999999999,22.909830509323964L99.67999999999999,21.8275005621233L100.8,25.22902206253856L101.92,23.671815065400846L103.03999999999999,26.6454555563162L104.16,29.624140673121044L105.28,26.79456462561111L106.4,27.969745640995455L107.52,27.92465388280246L108.64,26.121112635812935L109.76,23.725186804122508L110.88000000000001,24.348955774832785L112,25.52293957580881L113.12,26.6772606728627L114.24,27.31107773594476L115.36,30.135338472916278L116.47999999999999,30.47228456281154L117.6,30.28883146722119L118.72,31.53779795193802L119.84,28.26425344147303L120.96,25.56064510395547L122.08,25.632236978312235L123.2,23.34973030672025L124.32000000000001,23.428851337108004L125.44,21.84705628830831L126.56,20.758588460121803L127.68,20.933451321997335L128.8,20.941395230678864L129.92000000000002,19.115409998647987L131.04000000000002,28.705570263786182L132.16,29.374222577983574L133.28,28.687415247574883L134.4,27.338667217816496L135.51999999999998,25.60789950019301L136.64,27.690140662314192L137.76,23.22446495171427L138.88,20.426579852137703L140,21.562924095675537L141.12,26.60521185933521L142.24,32.246599631055105L143.36,26.976526978182473L144.48000000000002,28.046317334629748L145.6,27.162180943764252L146.72,26.735865734041504L147.84,23.123335652973118L148.96,19.59080793532839L150.08,17.067352802023912L151.20000000000002,23.658016182724825L152.32000000000002,21.012248736024603L153.44,20.686034721574547L154.56,18.224363896938257L155.68,17.913185319002423L156.8,15.336710940378333L157.92,15.000538617595168L159.04,15.816339812159272L160.16,18.65401359112301L161.28,17.86410397644398L162.39999999999998,16.372998007755122L163.51999999999998,15.354179393032814L164.64,24.490262081541605L165.76,22.030465894008564L166.88,19.95181626813703L168,18.292237970852298L169.12,18.597066453922267L170.24,17.69401780584308L171.35999999999999,18.516685674887487L172.48,16.495128444467436L173.6,16.458781722274075L174.72,15.862288978091097L175.84,20.015985627481676L176.96,18.59422157729052L178.08,19.33439294058988L179.20000000000002,16.30184762452689L180.32,14.920483591021279L181.44,14.49134985944281L182.56,18.52087669205208L183.68,16.94057483795754L184.8,15.663727629397547L185.92000000000002,20.432068973223448L187.04000000000002,20.05093050989718L188.16000000000003,17.673428477754847L189.28,19.00627614783882L190.4,19.082272389232532L191.52,18.63523442569978L192.64,16.270296962014367L193.76,18.4340742206732L194.88,16.55803361686163L196,20.42396674082666L197.11999999999998,18.781200303108726L198.23999999999998,16.69827567894133L199.35999999999999,14.845888029119271L200.48,19.67761739097899L201.6,17.95530246396414L202.72,19.096404600016776L203.84,16.940352578966756L204.96,16.86388924218494L206.07999999999998,14.657202322613394L207.2,14.478675999151722L208.32,13.457112398117745L209.44,13.241130014062124L210.56,14.149237081568938L211.68,13.519980232491077L212.8,20.870458664707L213.92000000000002,21.20889379295653L215.04,18.752270432990603L216.16,17.68686369253678L217.28,15.099720546637469L218.4,14.37630230289452L219.52,19.885554014776847L220.64000000000001,20.389311637194776L221.76000000000002,23.998142106596344L222.88000000000002,23.990006984019836L224,22.909777671419548L225.12,19.995373867034832L226.24,18.009813283728906L227.36,17.116656601903802L228.48,17.757395347185174L229.6,17.68090424202284L230.72,16.54817753479662L231.83999999999997,14.351560346723799L232.95999999999998,13.35948757705312L234.07999999999998,14.871889536099882L235.2,13.695925009878556L236.32,12.982310407586732L237.44,11.549799008411258L238.56,11.018208715382906L239.68,10.546771985721762L240.79999999999998,12.838074731188174L241.92,11.691727547398639L243.04,11.000859064094476L244.16,10.21757053045533L245.28,10.563635705851215L246.4,11.334816837478362L247.52,10.853102408106443L248.64000000000001,13.262862649425772L249.76,12.649718514758987L250.88,12.115648434719516L252,10.947377997864614" style="fill: none;" fill="none"></path></g></g></g></g><g opacity="0.2"><g><g><g><path stroke="rgb(204, 51, 17)" stroke-width="2px" d="M28,159.8446153846154L29.119999999999997,117.09230769230768L30.24,118.45384615384617L31.36,124.98923076923077L32.480000000000004,116.00307692307693L33.6,136.15384615384613L34.72,106.2L35.84,83.59846153846154L36.96,65.89846153846155L38.080000000000005,123.08307692307692L39.2,109.19538461538461L40.32,127.71230769230768L41.44,113.28L42.56,110.55692307692307L43.68,157.66615384615383L44.800000000000004,109.46769230769229L45.92,90.40615384615384L47.040000000000006,93.40153846153846L48.16,111.91846153846153L49.279999999999994,79.78615384615385L50.4,93.12923076923077L51.519999999999996,66.98769230769231L52.64,87.41076923076923L53.76,94.21846153846155L54.88,106.2L56,82.78153846153847L57.12,99.3923076923077L58.239999999999995,97.48615384615385L59.36,89.86153846153846L60.48,54.733846153846144L61.6,90.13384615384614L62.72,95.58000000000001L63.84,82.23692307692308L64.96000000000001,90.40615384615384L66.08,94.76307692307692L67.2,83.32615384615384L68.32,80.8753846153846L69.44,72.16153846153846L70.56,104.29384615384615L71.68,78.96923076923076L72.8,108.37846153846154L73.92,58.54615384615386L75.04,73.52307692307691L76.16000000000001,47.926153846153845L77.28,71.3446153846154L78.4,83.59846153846154L79.52,40.02923076923077L80.64,59.63538461538461L81.75999999999999,36.21692307692308L82.88,16.066153846153856L84,11.709230769230762L85.12,35.39999999999999L86.24,10.347692307692306L87.36,15.52153846153847L88.48,44.93076923076923L89.60000000000001,14.976923076923082L90.72,40.02923076923077L91.84,25.869230769230775L92.96000000000001,38.39538461538461L94.08000000000001,19.878461538461544L95.2,25.869230769230775L96.32,26.413846153846162L97.44,14.70461538461538L98.55999999999999,16.610769230769222L99.67999999999999,18.244615384615383L100.8,36.489230769230765L101.92,18.516923076923085L103.03999999999999,36.489230769230765L104.16,39.48461538461538L105.28,17.42769230769231L106.4,31.86000000000001L107.52,27.77538461538462L108.64,20.150769230769225L109.76,15.793846153846152L110.88000000000001,26.413846153846162L112,29.409230769230778L113.12,30.498461538461534L114.24,29.409230769230778L115.36,39.48461538461538L116.47999999999999,31.587692307692304L117.6,29.681538461538462L118.72,35.6723076923077L119.84,17.42769230769231L120.96,16.610769230769222L122.08,25.869230769230775L123.2,15.793846153846152L124.32000000000001,23.69076923076923L125.44,16.610769230769222L126.56,17.15538461538461L127.68,21.512307692307683L128.8,20.967692307692317L129.92000000000002,13.070769230769239L131.04000000000002,60.4523076923077L132.16,31.587692307692304L133.28,26.413846153846162L134.4,22.87384615384616L135.51999999999998,19.878461538461544L136.64,34.58307692307692L137.76,8.441538461538464L138.88,11.164615384615377L140,25.324615384615388L141.12,43.29692307692307L142.24,50.92153846153846L143.36,9.530769230769236L144.48000000000002,31.587692307692304L145.6,24.235384615384614L146.72,25.324615384615388L147.84,11.164615384615377L148.96,7.896923076923076L150.08,8.713846153846147L151.20000000000002,45.47538461538461L152.32000000000002,12.25384615384615L153.44,19.606153846153838L154.56,10.075384615384623L155.68,16.883076923076928L156.8,6.807692307692303L157.92,13.88769230769231L159.04,18.516923076923085L160.16,28.0476923076923L161.28,15.249230769230767L162.39999999999998,11.43692307692308L163.51999999999998,11.981538461538467L164.64,54.733846153846144L165.76,13.88769230769231L166.88,13.070769230769239L168,12.798461538461536L169.12,19.606153846153838L170.24,14.70461538461538L171.35999999999999,21.24L172.48,9.803076923076919L173.6,16.33846153846154L174.72,13.88769230769231L175.84,33.766153846153856L176.96,13.88769230769231L178.08,21.784615384615385L179.20000000000002,6.263076923076916L180.32,10.347692307692306L181.44,13.070769230769239L182.56,31.86000000000001L183.68,11.709230769230762L184.8,11.43692307692308L185.92000000000002,36.21692307692308L187.04000000000002,18.78923076923077L188.16000000000003,9.803076923076919L189.28,23.418461538461546L190.4,19.333846153846157L191.52,17.15538461538461L192.64,8.441538461538464L193.76,25.596923076923073L194.88,10.347692307692306L196,33.221538461538465L197.11999999999998,13.343076923076923L198.23999999999998,9.803076923076919L199.35999999999999,8.713846153846147L200.48,35.6723076923077L201.6,12.25384615384615L202.72,22.87384615384616L203.84,9.803076923076919L204.96,16.610769230769222L206.07999999999998,7.35230769230769L207.2,13.88769230769231L208.32,10.075384615384623L209.44,12.526153846153854L210.56,17.15538461538461L211.68,11.43692307692308L212.8,45.20307692307693L213.92000000000002,22.329230769230772L215.04,10.62000000000001L216.16,14.159999999999993L217.28,6.535384615384619L218.4,11.981538461538467L219.52,38.12307692307692L220.64000000000001,22.05692307692307L221.76000000000002,35.94461538461538L222.88000000000002,23.963076923076933L224,19.333846153846157L225.12,10.347692307692306L226.24,11.43692307692308L227.36,14.159999999999993L228.48,19.878461538461544L229.6,17.42769230769231L230.72,12.798461538461536L231.83999999999997,7.080000000000006L232.95999999999998,10.075384615384623L234.07999999999998,19.878461538461544L235.2,9.803076923076919L236.32,10.62000000000001L237.44,6.807692307692303L238.56,9.258461538461534L239.68,8.986153846153849L240.79999999999998,20.42307692307693L241.92,7.896923076923076L243.04,8.713846153846147L244.16,7.624615384615393L245.28,11.709230769230762L246.4,13.88769230769231L247.52,9.258461538461534L248.64000000000001,21.24L249.76,10.62000000000001L250.88,10.347692307692306L252,7.080000000000006" style="fill: none;" fill="none"></path></g></g></g></g></g></g><g transform="translate(50, 177)" clip-path="url(#clip_1)"><clipPath id="clip_1"><rect width="280" height="23"></rect></clipPath><g><g><line x1="0" y1="0" x2="0" y2="5" style="visibility: inherit;" fill="rgb(0, 0, 0)" stroke="rgb(204, 204, 204)" stroke-width="1px"></line><line x1="28" y1="0" x2="28" y2="5" style="visibility: inherit;" fill="rgb(0, 0, 0)" stroke="rgb(204, 204, 204)" stroke-width="1px"></line><line x1="56" y1="0" x2="56" y2="5" style="visibility: inherit;" fill="rgb(0, 0, 0)" stroke="rgb(204, 204, 204)" stroke-width="1px"></line><line x1="84" y1="0" x2="84" y2="5" style="visibility: inherit;" fill="rgb(0, 0, 0)" stroke="rgb(204, 204, 204)" stroke-width="1px"></line><line x1="112" y1="0" x2="112" y2="5" style="visibility: inherit;" fill="rgb(0, 0, 0)" stroke="rgb(204, 204, 204)" stroke-width="1px"></line><line x1="140" y1="0" x2="140" y2="5" style="visibility: inherit;" fill="rgb(0, 0, 0)" stroke="rgb(204, 204, 204)" stroke-width="1px"></line><line x1="168" y1="0" x2="168" y2="5" style="visibility: inherit;" fill="rgb(0, 0, 0)" stroke="rgb(204, 204, 204)" stroke-width="1px"></line><line x1="196" y1="0" x2="196" y2="5" style="visibility: inherit;" fill="rgb(0, 0, 0)" stroke="rgb(204, 204, 204)" stroke-width="1px"></line><line x1="224" y1="0" x2="224" y2="5" style="visibility: inherit;" fill="rgb(0, 0, 0)" stroke="rgb(204, 204, 204)" stroke-width="1px"></line><line x1="252" y1="0" x2="252" y2="5" style="visibility: inherit;" fill="rgb(0, 0, 0)" stroke="rgb(204, 204, 204)" stroke-width="1px"></line><line x1="280" y1="0" x2="280" y2="5" style="visibility: inherit;" fill="rgb(0, 0, 0)" stroke="rgb(204, 204, 204)" stroke-width="1px"></line></g><g transform="translate(0, 8)"><text x="0" y="0" dx="0em" dy="0.95em" style="text-anchor: middle; visibility: hidden; font-family: Roboto, sans-serif; font-size: 12px; font-weight: 200;" fill="rgb(33, 33, 33)" stroke="none" stroke-width="1px">-50k</text><text x="28" y="0" dx="0em" dy="0.95em" style="text-anchor: middle; visibility: inherit; font-family: Roboto, sans-serif; font-size: 12px; font-weight: 200;" fill="rgb(33, 33, 33)" stroke="none" stroke-width="1px">0</text><text x="56" y="0" dx="0em" dy="0.95em" style="text-anchor: middle; visibility: hidden; font-family: Roboto, sans-serif; font-size: 12px; font-weight: 200;" fill="rgb(33, 33, 33)" stroke="none" stroke-width="1px">50k</text><text x="84" y="0" dx="0em" dy="0.95em" style="text-anchor: middle; visibility: inherit; font-family: Roboto, sans-serif; font-size: 12px; font-weight: 200;" fill="rgb(33, 33, 33)" stroke="none" stroke-width="1px">100k</text><text x="112" y="0" dx="0em" dy="0.95em" style="text-anchor: middle; visibility: hidden; font-family: Roboto, sans-serif; font-size: 12px; font-weight: 200;" fill="rgb(33, 33, 33)" stroke="none" stroke-width="1px">150k</text><text x="140" y="0" dx="0em" dy="0.95em" style="text-anchor: middle; visibility: inherit; font-family: Roboto, sans-serif; font-size: 12px; font-weight: 200;" fill="rgb(33, 33, 33)" stroke="none" stroke-width="1px">200k</text><text x="168" y="0" dx="0em" dy="0.95em" style="text-anchor: middle; visibility: hidden; font-family: Roboto, sans-serif; font-size: 12px; font-weight: 200;" fill="rgb(33, 33, 33)" stroke="none" stroke-width="1px">250k</text><text x="196" y="0" dx="0em" dy="0.95em" style="text-anchor: middle; visibility: inherit; font-family: Roboto, sans-serif; font-size: 12px; font-weight: 200;" fill="rgb(33, 33, 33)" stroke="none" stroke-width="1px">300k</text><text x="224" y="0" dx="0em" dy="0.95em" style="text-anchor: middle; visibility: hidden; font-family: Roboto, sans-serif; font-size: 12px; font-weight: 200;" fill="rgb(33, 33, 33)" stroke="none" stroke-width="1px">350k</text><text x="252" y="0" dx="0em" dy="0.95em" style="text-anchor: middle; visibility: inherit; font-family: Roboto, sans-serif; font-size: 12px; font-weight: 200;" fill="rgb(33, 33, 33)" stroke="none" stroke-width="1px">400k</text><text x="280" y="0" dx="0em" dy="0.95em" style="text-anchor: middle; visibility: hidden; font-family: Roboto, sans-serif; font-size: 12px; font-weight: 200;" fill="rgb(33, 33, 33)" stroke="none" stroke-width="1px">450k</text></g><line x1="0" y1="0" x2="280" y2="0" fill="rgb(0, 0, 0)" stroke="rgb(204, 204, 204)" stroke-width="1px"></line></g></g></g></g></svg>