<svg viewBox="0 0 330 200" xmlns="http://www.w3.org/2000/svg"><g><g><g><g><g><line x1="53.1875" y1="176" x2="48.1875" y2="176" style="visibility: inherit;" fill="rgb(0, 0, 0)" stroke="rgb(204, 204, 204)" stroke-width="1px"></line><line x1="53.1875" y1="160" x2="48.1875" y2="160" style="visibility: inherit;" fill="rgb(0, 0, 0)" stroke="rgb(204, 204, 204)" stroke-width="1px"></line><line x1="53.1875" y1="144" x2="48.1875" y2="144" style="visibility: inherit;" fill="rgb(0, 0, 0)" stroke="rgb(204, 204, 204)" stroke-width="1px"></line><line x1="53.1875" y1="128" x2="48.1875" y2="128" style="visibility: inherit;" fill="rgb(0, 0, 0)" stroke="rgb(204, 204, 204)" stroke-width="1px"></line><line x1="53.1875" y1="112" x2="48.1875" y2="112" style="visibility: inherit;" fill="rgb(0, 0, 0)" stroke="rgb(204, 204, 204)" stroke-width="1px"></line><line x1="53.1875" y1="96" x2="48.1875" y2="96" style="visibility: inherit;" fill="rgb(0, 0, 0)" stroke="rgb(204, 204, 204)" stroke-width="1px"></line><line x1="53.1875" y1="80" x2="48.1875" y2="80" style="visibility: inherit;" fill="rgb(0, 0, 0)" stroke="rgb(204, 204, 204)" stroke-width="1px"></line><line x1="53.1875" y1="64" x2="48.1875" y2="64" style="visibility: inherit;" fill="rgb(0, 0, 0)" stroke="rgb(204, 204, 204)" stroke-width="1px"></line><line x1="53.1875" y1="48" x2="48.1875" y2="48" style="visibility: inherit;" fill="rgb(0, 0, 0)" stroke="rgb(204, 204, 204)" stroke-width="1px"></line><line x1="53.1875" y1="31.999999999999993" x2="48.1875" y2="31.999999999999993" style="visibility: inherit;" fill="rgb(0, 0, 0)" stroke="rgb(204, 204, 204)" stroke-width="1px"></line><line x1="53.1875" y1="16.000000000000007" x2="48.1875" y2="16.000000000000007" style="visibility: inherit;" fill="rgb(0, 0, 0)" stroke="rgb(204, 204, 204)" stroke-width="1px"></line><line x1="53.1875" y1="0" x2="48.1875" y2="0" style="visibility: inherit;" fill="rgb(0, 0, 0)" stroke="rgb(204, 204, 204)" stroke-width="1px"></line></g><g transform="translate(43.1875, 0)"><text x="0" y="176" dx="0em" dy="0.3em" style="text-anchor: end; visibility: hidden; font-family: Roboto, sans-serif; font-size: 12px; font-weight: 200;" fill="rgb(33, 33, 33)" stroke="none" stroke-width="1px">-700</text><text x="0" y="160" dx="0em" dy="0.3em" style="text-anchor: end; visibility: inherit; font-family: Roboto, sans-serif; font-size: 12px; font-weight: 200;" fill="rgb(33, 33, 33)" stroke="none" stroke-width="1px">-600</text><text x="0" y="144" dx="0em" dy="0.3em" style="text-anchor: end; visibility: hidden; font-family: Roboto, sans-serif; font-size: 12px; font-weight: 200;" fill="rgb(33, 33, 33)" stroke="none" stroke-width="1px">-500</text><text x="0" y="128" dx="0em" dy="0.3em" style="text-anchor: end; visibility: inherit; font-family: Roboto, sans-serif; font-size: 12px; font-weight: 200;" fill="rgb(33, 33, 33)" stroke="none" stroke-width="1px">-400</text><text x="0" y="112" dx="0em" dy="0.3em" style="text-anchor: end; visibility: hidden; font-family: Roboto, sans-serif; font-size: 12px; font-weight: 200;" fill="rgb(33, 33, 33)" stroke="none" stroke-width="1px">-300</text><text x="0" y="96" dx="0em" dy="0.3em" style="text-anchor: end; visibility: inherit; font-family: Roboto, sans-serif; font-size: 12px; font-weight: 200;" fill="rgb(33, 33, 33)" stroke="none" stroke-width="1px">-200</text><text x="0" y="80" dx="0em" dy="0.3em" style="text-anchor: end; visibility: hidden; font-family: Roboto, sans-serif; font-size: 12px; font-weight: 200;" fill="rgb(33, 33, 33)" stroke="none" stroke-width="1px">-100</text><text x="0" y="64" dx="0em" dy="0.3em" style="text-anchor: end; visibility: inherit; font-family: Roboto, sans-serif; font-size: 12px; font-weight: 200;" fill="rgb(33, 33, 33)" stroke="none" stroke-width="1px">0</text><text x="0" y="48" dx="0em" dy="0.3em" style="text-anchor: end; visibility: hidden; font-family: Roboto, sans-serif; font-size: 12px; font-weight: 200;" fill="rgb(33, 33, 33)" stroke="none" stroke-width="1px">100</text><text x="0" y="31.999999999999993" dx="0em" dy="0.3em" style="text-anchor: end; visibility: inherit; font-family: Roboto, sans-serif; font-size: 12px; font-weight: 200;" fill="rgb(33, 33, 33)" stroke="none" stroke-width="1px">200</text><text x="0" y="16.000000000000007" dx="0em" dy="0.3em" style="text-anchor: end; visibility: hidden; font-family: Roboto, sans-serif; font-size: 12px; font-weight: 200;" fill="rgb(33, 33, 33)" stroke="none" stroke-width="1px">300</text><text x="0" y="0" dx="0em" dy="0.3em" style="text-anchor: end; visibility: hidden; font-family: Roboto, sans-serif; font-size: 12px; font-weight: 200;" fill="rgb(33, 33, 33)" stroke="none" stroke-width="1px">400</text></g><line x1="53.1875" y1="0" x2="53.1875" y2="176" fill="rgb(0, 0, 0)" stroke="rgb(204, 204, 204)" stroke-width="1px"></line></g></g><g transform="translate(53, 0)" clip-path="url(#clip_0)"><clipPath id="clip_0"><rect width="276" height="176"></rect></clipPath><g><g><g><line x1="0" y1="0" x2="0" y2="176" fill="rgb(0, 0, 0)" stroke="rgb(66, 66, 66)" stroke-width="1px" opacity="0.25"></line><line x1="19.772321428571427" y1="0" x2="19.772321428571427" y2="176" fill="rgb(0, 0, 0)" stroke="rgb(66, 66, 66)" stroke-width="1px" opacity="0.25"></line><line x1="39.544642857142854" y1="0" x2="39.544642857142854" y2="176" fill="rgb(0, 0, 0)" stroke="rgb(66, 66, 66)" stroke-width="1px" opacity="0.25"></line><line x1="59.316964285714285" y1="0" x2="59.316964285714285" y2="176" fill="rgb(0, 0, 0)" stroke="rgb(66, 66, 66)" stroke-width="1px" opacity="0.25"></line><line x1="79.08928571428571" y1="0" x2="79.08928571428571" y2="176" fill="rgb(0, 0, 0)" stroke="rgb(66, 66, 66)" stroke-width="1px" opacity="0.25"></line><line x1="98.86160714285714" y1="0" x2="98.86160714285714" y2="176" fill="rgb(0, 0, 0)" stroke="rgb(66, 66, 66)" stroke-width="1px" opacity="0.25"></line><line x1="118.63392857142857" y1="0" x2="118.63392857142857" y2="176" fill="rgb(0, 0, 0)" stroke="rgb(66, 66, 66)" stroke-width="1px" opacity="0.25"></line><line x1="138.40625" y1="0" x2="138.40625" y2="176" fill="rgb(0, 0, 0)" stroke="rgb(66, 66, 66)" stroke-width="1px" opacity="0.25"></line><line x1="158.17857142857142" y1="0" x2="158.17857142857142" y2="176" fill="rgb(0, 0, 0)" stroke="rgb(66, 66, 66)" stroke-width="1px" opacity="0.25"></line><line x1="177.95089285714286" y1="0" x2="177.95089285714286" y2="176" fill="rgb(0, 0, 0)" stroke="rgb(66, 66, 66)" stroke-width="1px" opacity="0.25"></line><line x1="197.72321428571428" y1="0" x2="197.72321428571428" y2="176" fill="rgb(0, 0, 0)" stroke="rgb(66, 66, 66)" stroke-width="1px" opacity="0.25"></line><line x1="217.49553571428572" y1="0" x2="217.49553571428572" y2="176" fill="rgb(0, 0, 0)" stroke="rgb(66, 66, 66)" stroke-width="1px" opacity="0.25"></line><line x1="237.26785714285714" y1="0" x2="237.26785714285714" y2="176" fill="rgb(0, 0, 0)" stroke="rgb(66, 66, 66)" stroke-width="1px" opacity="0.25"></line><line x1="257.04017857142856" y1="0" x2="257.04017857142856" y2="176" fill="rgb(0, 0, 0)" stroke="rgb(66, 66, 66)" stroke-width="1px" opacity="0.25"></line><line x1="276.8125" y1="0" x2="276.8125" y2="176" fill="rgb(0, 0, 0)" stroke="rgb(66, 66, 66)" stroke-width="1px" opacity="0.25"></line></g><g><line x1="0" y1="176" x2="276.8125" y2="176" fill="rgb(0, 0, 0)" stroke="rgb(66, 66, 66)" stroke-width="1px" opacity="0.25"></line><line x1="0" y1="160" x2="276.8125" y2="160" fill="rgb(0, 0, 0)" stroke="rgb(66, 66, 66)" stroke-width="1px" opacity="0.25"></line><line x1="0" y1="144" x2="276.8125" y2="144" fill="rgb(0, 0, 0)" stroke="rgb(66, 66, 66)" stroke-width="1px" opacity="0.25"></line><line x1="0" y1="128" x2="276.8125" y2="128" fill="rgb(0, 0, 0)" stroke="rgb(66, 66, 66)" stroke-width="1px" opacity="0.25"></line><line x1="0" y1="112" x2="276.8125" y2="112" fill="rgb(0, 0, 0)" stroke="rgb(66, 66, 66)" stroke-width="1px" opacity="0.25"></line><line x1="0" y1="96" x2="276.8125" y2="96" fill="rgb(0, 0, 0)" stroke="rgb(66, 66, 66)" stroke-width="1px" opacity="0.25"></line><line x1="0" y1="80" x2="276.8125" y2="80" fill="rgb(0, 0, 0)" stroke="rgb(66, 66, 66)" stroke-width="1px" opacity="0.25"></line><line x1="0" y1="64" x2="276.8125" y2="64" fill="rgb(0, 0, 0)" stroke="rgb(66, 66, 66)" stroke-width="1px" opacity="0.25"></line><line x1="0" y1="48" x2="276.8125" y2="48" fill="rgb(0, 0, 0)" stroke="rgb(66, 66, 66)" stroke-width="1px" opacity="0.25"></line><line x1="0" y1="31.999999999999993" x2="276.8125" y2="31.999999999999993" fill="rgb(0, 0, 0)" stroke="rgb(66, 66, 66)" stroke-width="1px" opacity="0.25"></line><line x1="0" y1="16.000000000000007" x2="276.8125" y2="16.000000000000007" fill="rgb(0, 0, 0)" stroke="rgb(66, 66, 66)" stroke-width="1px" opacity="0.25"></line><line x1="0" y1="0" x2="276.8125" y2="0" fill="rgb(0, 0, 0)" stroke="rgb(66, 66, 66)" stroke-width="1px" opacity="0.25"></line></g></g></g><g><g><line x1="0" y1="64" x2="276.8125" y2="64" fill="rgb(0, 0, 0)" stroke="rgb(153, 153, 153)" stroke-width="1.5px"></line></g></g><g><g><line x1="19.772321428571427" y1="0" x2="19.772321428571427" y2="176" fill="rgb(0, 0, 0)" stroke="rgb(153, 153, 153)" stroke-width="1.5px"></line></g></g><g><g><g><g><g><path stroke="rgb(0, 153, 136)" stroke-width="2px" d="M19.772321428571427,145.12L21.74955357142857,154.47260842237586L23.726785714285715,111.30741306027322L25.70401785714286,98.43773638050143L27.681250000000002,91.9328150631947L29.658482142857142,74.6683105496046L31.635714285714286,63.14353996208237L33.612946428571426,57.18839985611379L35.59017857142857,50.095958901627725L37.567410714285714,55.943992486687186L39.544642857142854,54.91670342913454L41.521875,54.31163308603545L43.49910714285714,55.39597875730049L45.47633928571429,60.94718400773142L47.45357142857143,66.38598427019505L49.43080357142857,55.068089640148756L51.40803571428572,62.190493402017694L53.38526785714286,61.948962913289954L55.362500000000004,50.15737790107304L57.339732142857144,45.806572763380075L59.316964285714285,43.235323437262934L61.294196428571425,40.34148883660606L63.27142857142857,35.03203028398637L65.24866071428572,32.67944214169941L67.22589285714285,37.113238944731116L69.203125,32.73151917066308L71.18035714285713,30.141926067506397L73.15758928571428,37.90396142784008L75.13482142857143,33.72236020986912L77.11205357142858,31.44735456443253L79.08928571428571,29.448426381617455L81.06651785714286,28.267059933568497L83.04375,27.43799239669664L85.02098214285715,27.66785351038721L86.99821428571428,25.90594140679263L88.97544642857143,28.20209138515959L90.95267857142858,28.70839601042055L92.92991071428571,31.363462047709916L94.90714285714286,33.19436607245899L96.88437499999999,28.975790345742467L98.86160714285714,28.969332094330998L100.83883928571429,33.41543526888372L102.81607142857143,32.18212224372435L104.79330357142857,28.57387424571962L106.77053571428571,26.44139967910801L108.74776785714286,25.181107210313616L110.72500000000001,25.745074361305726L112.70223214285714,23.918858947511833L114.67946428571429,23.95204563797972L116.65669642857142,22.728298972041365L118.63392857142857,23.7719446924788L120.61116071428572,23.014499313253953L122.58839285714285,22.959489094133065L124.565625,22.599778054632488L126.54285714285714,25.85550883028867L128.52008928571428,25.096605718700488L130.49732142857144,23.731933979751858L132.47455357142857,24.365092982033392L134.4517857142857,24.019449952381713L136.42901785714287,24.404134921857597L138.40625,24.566043738817854L140.38348214285713,26.166851849641358L142.36071428571427,25.607809443138027L144.33794642857143,24.164935380894583L146.31517857142856,24.359236810108705L148.29241071428572,26.437268954774243L150.26964285714286,25.571305952271587L152.24687500000002,22.7036818177925L154.22410714285715,22.121395954315368L156.20133928571428,40.42766500900038L158.17857142857142,37.30795002031923L160.15580357142858,31.734118462008666L162.1330357142857,28.112784011047122L164.11026785714284,28.393855350528842L166.0875,26.989408512162555L168.06473214285714,25.439540430688062L170.0419642857143,23.411088394536634L172.01919642857143,24.24091324117115L173.99642857142857,24.207819725532158L175.9736607142857,23.2066614577895L177.95089285714286,22.091456921553604L179.928125,35.567411040638184L181.90535714285716,31.49073992501717L183.8825892857143,28.09982729568513L185.85982142857142,24.983317931749916L187.83705357142858,22.55250089766421L189.81428571428572,20.985008030519552L191.79151785714285,20.05861974603706L193.76874999999998,20.296404269907907L195.74598214285714,20.240614923515572L197.72321428571428,19.618683419797705L199.70044642857144,20.10184190110044L201.67767857142857,20.51826856355035L203.65491071428573,22.793016721058272L205.63214285714287,24.988112882145426L207.609375,23.471494713347944L209.58660714285713,20.939173375588624L211.56383928571427,20.293291464972874L213.54107142857143,20.50053525579896L215.51830357142856,19.31421633617719L217.49553571428572,19.136621854680715L219.47276785714286,19.22798351611629L221.45000000000002,21.048858258024733L223.42723214285715,20.947075230492636L225.40446428571428,19.970761461221144L227.38169642857142,19.45920002358169L229.35892857142858,18.633347213936787L231.3361607142857,21.155508203436646L233.31339285714284,20.290265348231053L235.290625,20.040666820804574L237.26785714285714,19.4350740910955L239.2450892857143,20.90948878783744L241.22232142857143,26.361667873611914L243.19955357142857,24.086945713304644L245.1767857142857,23.200664916563042L247.15401785714286,21.89159296568875L249.13125,22.361291442722063L251.10848214285716,25.84544324264872L253.0857142857143,23.0620169564054L255.06294642857142,23.576532021235593L257.04017857142856,23.095330424550234L259.0174107142857,22.81094028090919L260.9946428571429,22.839185706017354L262.971875,22.463238752256245L264.94910714285714,21.39033410258343L266.9263392857143,21.672407454626807" style="fill: none;" fill="none"></path></g></g></g></g><g opacity="0.2"><g><g><g><path stroke="rgb(0, 153, 136)" stroke-width="2px" d="M19.772321428571427,145.12L21.74955357142857,160L23.726785714285715,70.72L25.70401785714286,83.68L27.681250000000002,83.68L29.658482142857142,51.519999999999996L31.635714285714286,47.2L33.612946428571426,48.79999999999999L35.59017857142857,40L37.567410714285714,64.32000000000001L39.544642857142854,53.43999999999999L41.521875,53.43999999999999L43.49910714285714,56.959999999999994L45.47633928571429,68.96000000000001L47.45357142857143,74.24000000000001L49.43080357142857,38.72L51.40803571428572,72.48L53.38526785714286,61.599999999999994L55.362500000000004,33.120000000000005L57.339732142857144,39.51999999999999L59.316964285714285,39.51999999999999L61.294196428571425,36.16L63.27142857142857,27.359999999999992L65.24866071428572,29.28L67.22589285714285,43.52000000000001L69.203125,26.400000000000006L71.18035714285713,26.400000000000006L73.15758928571428,49.11999999999999L75.13482142857143,27.679999999999993L77.11205357142858,28.160000000000004L79.08928571428571,26.559999999999995L81.06651785714286,26.559999999999995L83.04375,26.239999999999995L85.02098214285715,27.999999999999993L86.99821428571428,23.359999999999992L88.97544642857143,31.519999999999996L90.95267857142858,29.439999999999994L92.92991071428571,35.19999999999999L94.90714285714286,35.839999999999996L96.88437499999999,22.880000000000003L98.86160714285714,28.96L100.83883928571429,39.83999999999999L102.81607142857143,30.4L104.79330357142857,23.359999999999992L106.77053571428571,23.359999999999992L108.74776785714286,23.359999999999992L110.72500000000001,26.559999999999995L112.70223214285714,21.27999999999999L114.67946428571429,24L116.65669642857142,20.960000000000008L118.63392857142857,25.28000000000001L120.61116071428572,21.919999999999995L122.58839285714285,22.880000000000003L124.565625,22.080000000000005L126.54285714285714,30.55999999999999L128.52008928571428,24L130.49732142857144,21.760000000000005L132.47455357142857,25.28000000000001L134.4517857142857,23.520000000000003L136.42901785714287,24.960000000000004L138.40625,24.799999999999994L140.38348214285713,28.480000000000008L142.36071428571427,24.799999999999994L144.33794642857143,22.080000000000005L146.31517857142856,24.64L148.29241071428572,29.439999999999994L150.26964285714286,24.32L152.24687500000002,18.560000000000002L154.22410714285715,21.27999999999999L156.20133928571428,66.88L158.17857142857142,32.800000000000004L160.15580357142858,23.679999999999996L162.1330357142857,22.880000000000003L164.11026785714284,28.80000000000001L166.0875,24.960000000000004L168.06473214285714,23.200000000000003L170.0419642857143,20.479999999999997L172.01919642857143,25.439999999999998L173.99642857142857,24.16000000000001L175.9736607142857,21.760000000000005L177.95089285714286,20.479999999999997L179.928125,55.040000000000006L181.90535714285716,25.60000000000001L183.8825892857143,23.200000000000003L185.85982142857142,20.479999999999997L187.83705357142858,19.039999999999996L189.81428571428572,18.71999999999999L191.79151785714285,18.71999999999999L193.76874999999998,20.640000000000008L195.74598214285714,20.159999999999993L197.72321428571428,18.71999999999999L199.70044642857144,20.799999999999997L201.67767857142857,21.119999999999997L203.65491071428573,26.080000000000002L205.63214285714287,28.160000000000004L207.609375,21.27999999999999L209.58660714285713,17.279999999999994L211.56383928571427,19.36L213.54107142857143,20.799999999999997L215.51830357142856,17.599999999999994L217.49553571428572,18.880000000000003L219.47276785714286,19.36L221.45000000000002,23.679999999999996L223.42723214285715,20.799999999999997L225.40446428571428,18.560000000000002L227.38169642857142,18.71999999999999L229.35892857142858,17.440000000000005L231.3361607142857,24.799999999999994L233.31339285714284,19.039999999999996L235.290625,19.68L237.26785714285714,18.560000000000002L239.2450892857143,23.039999999999992L241.22232142857143,34.24000000000001L243.19955357142857,20.799999999999997L245.1767857142857,21.919999999999995L247.15401785714286,20L249.13125,23.039999999999992L251.10848214285716,30.879999999999995L253.0857142857143,19.039999999999996L255.06294642857142,24.32L257.04017857142856,22.400000000000006L259.0174107142857,22.400000000000006L260.9946428571429,22.880000000000003L262.971875,21.919999999999995L264.94910714285714,19.83999999999999L266.9263392857143,22.080000000000005" style="fill: none;" fill="none"></path></g></g></g></g></g></g><g transform="translate(53, 176)" clip-path="url(#clip_1)"><clipPath id="clip_1"><rect width="276" height="24"></rect></clipPath><g><g><line x1="0" y1="0" x2="0" y2="5" style="visibility: inherit;" fill="rgb(0, 0, 0)" stroke="rgb(204, 204, 204)" stroke-width="1px"></line><line x1="19.772321428571427" y1="0" x2="19.772321428571427" y2="5" style="visibility: inherit;" fill="rgb(0, 0, 0)" stroke="rgb(204, 204, 204)" stroke-width="1px"></line><line x1="39.544642857142854" y1="0" x2="39.544642857142854" y2="5" style="visibility: inherit;" fill="rgb(0, 0, 0)" stroke="rgb(204, 204, 204)" stroke-width="1px"></line><line x1="59.316964285714285" y1="0" x2="59.316964285714285" y2="5" style="visibility: inherit;" fill="rgb(0, 0, 0)" stroke="rgb(204, 204, 204)" stroke-width="1px"></line><line x1="79.08928571428571" y1="0" x2="79.08928571428571" y2="5" style="visibility: inherit;" fill="rgb(0, 0, 0)" stroke="rgb(204, 204, 204)" stroke-width="1px"></line><line x1="98.86160714285714" y1="0" x2="98.86160714285714" y2="5" style="visibility: inherit;" fill="rgb(0, 0, 0)" stroke="rgb(204, 204, 204)" stroke-width="1px"></line><line x1="118.63392857142857" y1="0" x2="118.63392857142857" y2="5" style="visibility: inherit;" fill="rgb(0, 0, 0)" stroke="rgb(204, 204, 204)" stroke-width="1px"></line><line x1="138.40625" y1="0" x2="138.40625" y2="5" style="visibility: inherit;" fill="rgb(0, 0, 0)" stroke="rgb(204, 204, 204)" stroke-width="1px"></line><line x1="158.17857142857142" y1="0" x2="158.17857142857142" y2="5" style="visibility: inherit;" fill="rgb(0, 0, 0)" stroke="rgb(204, 204, 204)" stroke-width="1px"></line><line x1="177.95089285714286" y1="0" x2="177.95089285714286" y2="5" style="visibility: inherit;" fill="rgb(0, 0, 0)" stroke="rgb(204, 204, 204)" stroke-width="1px"></line><line x1="197.72321428571428" y1="0" x2="197.72321428571428" y2="5" style="visibility: inherit;" fill="rgb(0, 0, 0)" stroke="rgb(204, 204, 204)" stroke-width="1px"></line><line x1="217.49553571428572" y1="0" x2="217.49553571428572" y2="5" style="visibility: inherit;" fill="rgb(0, 0, 0)" stroke="rgb(204, 204, 204)" stroke-width="1px"></line><line x1="237.26785714285714" y1="0" x2="237.26785714285714" y2="5" style="visibility: inherit;" fill="rgb(0, 0, 0)" stroke="rgb(204, 204, 204)" stroke-width="1px"></line><line x1="257.04017857142856" y1="0" x2="257.04017857142856" y2="5" style="visibility: inherit;" fill="rgb(0, 0, 0)" stroke="rgb(204, 204, 204)" stroke-width="1px"></line><line x1="276.8125" y1="0" x2="276.8125" y2="5" style="visibility: inherit;" fill="rgb(0, 0, 0)" stroke="rgb(204, 204, 204)" stroke-width="1px"></line></g><g transform="translate(0, 8)"><text x="0" y="0" dx="0em" dy="0.95em" style="text-anchor: middle; visibility: hidden; font-family: Roboto, sans-serif; font-size: 12px; font-weight: 200;" fill="rgb(33, 33, 33)" stroke="none" stroke-width="1px">-20k</text><text x="19.772321428571427" y="0" dx="0em" dy="0.95em" style="text-anchor: middle; visibility: inherit; font-family: Roboto, sans-serif; font-size: 12px; font-weight: 200;" fill="rgb(33, 33, 33)" stroke="none" stroke-width="1px">0</text><text x="39.544642857142854" y="0" dx="0em" dy="0.95em" style="text-anchor: middle; visibility: hidden; font-family: Roboto, sans-serif; font-size: 12px; font-weight: 200;" fill="rgb(33, 33, 33)" stroke="none" stroke-width="1px">20k</text><text x="59.316964285714285" y="0" dx="0em" dy="0.95em" style="text-anchor: middle; visibility: inherit; font-family: Roboto, sans-serif; font-size: 12px; font-weight: 200;" fill="rgb(33, 33, 33)" stroke="none" stroke-width="1px">40k</text><text x="79.08928571428571" y="0" dx="0em" dy="0.95em" style="text-anchor: middle; visibility: hidden; font-family: Roboto, sans-serif; font-size: 12px; font-weight: 200;" fill="rgb(33, 33, 33)" stroke="none" stroke-width="1px">60k</text><text x="98.86160714285714" y="0" dx="0em" dy="0.95em" style="text-anchor: middle; visibility: inherit; font-family: Roboto, sans-serif; font-size: 12px; font-weight: 200;" fill="rgb(33, 33, 33)" stroke="none" stroke-width="1px">80k</text><text x="118.63392857142857" y="0" dx="0em" dy="0.95em" style="text-anchor: middle; visibility: hidden; font-family: Roboto, sans-serif; font-size: 12px; font-weight: 200;" fill="rgb(33, 33, 33)" stroke="none" stroke-width="1px">100k</text><text x="138.40625" y="0" dx="0em" dy="0.95em" style="text-anchor: middle; visibility: inherit; font-family: Roboto, sans-serif; font-size: 12px; font-weight: 200;" fill="rgb(33, 33, 33)" stroke="none" stroke-width="1px">120k</text><text x="158.17857142857142" y="0" dx="0em" dy="0.95em" style="text-anchor: middle; visibility: hidden; font-family: Roboto, sans-serif; font-size: 12px; font-weight: 200;" fill="rgb(33, 33, 33)" stroke="none" stroke-width="1px">140k</text><text x="177.95089285714286" y="0" dx="0em" dy="0.95em" style="text-anchor: middle; visibility: inherit; font-family: Roboto, sans-serif; font-size: 12px; font-weight: 200;" fill="rgb(33, 33, 33)" stroke="none" stroke-width="1px">160k</text><text x="197.72321428571428" y="0" dx="0em" dy="0.95em" style="text-anchor: middle; visibility: hidden; font-family: Roboto, sans-serif; font-size: 12px; font-weight: 200;" fill="rgb(33, 33, 33)" stroke="none" stroke-width="1px">180k</text><text x="217.49553571428572" y="0" dx="0em" dy="0.95em" style="text-anchor: middle; visibility: inherit; font-family: Roboto, sans-serif; font-size: 12px; font-weight: 200;" fill="rgb(33, 33, 33)" stroke="none" stroke-width="1px">200k</text><text x="237.26785714285714" y="0" dx="0em" dy="0.95em" style="text-anchor: middle; visibility: hidden; font-family: Roboto, sans-serif; font-size: 12px; font-weight: 200;" fill="rgb(33, 33, 33)" stroke="none" stroke-width="1px">220k</text><text x="257.04017857142856" y="0" dx="0em" dy="0.95em" style="text-anchor: middle; visibility: inherit; font-family: Roboto, sans-serif; font-size: 12px; font-weight: 200;" fill="rgb(33, 33, 33)" stroke="none" stroke-width="1px">240k</text><text x="276.8125" y="0" dx="0em" dy="0.95em" style="text-anchor: middle; visibility: hidden; font-family: Roboto, sans-serif; font-size: 12px; font-weight: 200;" fill="rgb(33, 33, 33)" stroke="none" stroke-width="1px">260k</text></g><line x1="0" y1="0" x2="276.8125" y2="0" fill="rgb(0, 0, 0)" stroke="rgb(204, 204, 204)" stroke-width="1px"></line></g></g></g></g></svg>