<svg viewBox="0 0 330 200.00001525878906" xmlns="http://www.w3.org/2000/svg"><g><g><g><g><g><line x1="53.1875" y1="177" x2="48.1875" y2="177" style="visibility: inherit;" fill="rgb(0, 0, 0)" stroke="rgb(204, 204, 204)" stroke-width="1px"></line><line x1="53.1875" y1="162.25" x2="48.1875" y2="162.25" style="visibility: inherit;" fill="rgb(0, 0, 0)" stroke="rgb(204, 204, 204)" stroke-width="1px"></line><line x1="53.1875" y1="147.5" x2="48.1875" y2="147.5" style="visibility: inherit;" fill="rgb(0, 0, 0)" stroke="rgb(204, 204, 204)" stroke-width="1px"></line><line x1="53.1875" y1="132.75" x2="48.1875" y2="132.75" style="visibility: inherit;" fill="rgb(0, 0, 0)" stroke="rgb(204, 204, 204)" stroke-width="1px"></line><line x1="53.1875" y1="118.00000000000001" x2="48.1875" y2="118.00000000000001" style="visibility: inherit;" fill="rgb(0, 0, 0)" stroke="rgb(204, 204, 204)" stroke-width="1px"></line><line x1="53.1875" y1="103.24999999999999" x2="48.1875" y2="103.24999999999999" style="visibility: inherit;" fill="rgb(0, 0, 0)" stroke="rgb(204, 204, 204)" stroke-width="1px"></line><line x1="53.1875" y1="88.5" x2="48.1875" y2="88.5" style="visibility: inherit;" fill="rgb(0, 0, 0)" stroke="rgb(204, 204, 204)" stroke-width="1px"></line><line x1="53.1875" y1="73.75" x2="48.1875" y2="73.75" style="visibility: inherit;" fill="rgb(0, 0, 0)" stroke="rgb(204, 204, 204)" stroke-width="1px"></line><line x1="53.1875" y1="59.00000000000001" x2="48.1875" y2="59.00000000000001" style="visibility: inherit;" fill="rgb(0, 0, 0)" stroke="rgb(204, 204, 204)" stroke-width="1px"></line><line x1="53.1875" y1="44.25" x2="48.1875" y2="44.25" style="visibility: inherit;" fill="rgb(0, 0, 0)" stroke="rgb(204, 204, 204)" stroke-width="1px"></line><line x1="53.1875" y1="29.499999999999993" x2="48.1875" y2="29.499999999999993" style="visibility: inherit;" fill="rgb(0, 0, 0)" stroke="rgb(204, 204, 204)" stroke-width="1px"></line><line x1="53.1875" y1="14.750000000000007" x2="48.1875" y2="14.750000000000007" style="visibility: inherit;" fill="rgb(0, 0, 0)" stroke="rgb(204, 204, 204)" stroke-width="1px"></line><line x1="53.1875" y1="0" x2="48.1875" y2="0" style="visibility: inherit;" fill="rgb(0, 0, 0)" stroke="rgb(204, 204, 204)" stroke-width="1px"></line></g><g transform="translate(43.1875, 0)"><text x="0" y="177" dx="0em" dy="0.3em" style="text-anchor: end; visibility: hidden; font-family: Roboto, sans-serif; font-size: 12px; font-weight: 200;" fill="rgb(50, 49, 63)" stroke="none" stroke-width="1px">-800</text><text x="0" y="162.25" dx="0em" dy="0.3em" style="text-anchor: end; visibility: inherit; font-family: Roboto, sans-serif; font-size: 12px; font-weight: 200;" fill="rgb(50, 49, 63)" stroke="none" stroke-width="1px">-700</text><text x="0" y="147.5" dx="0em" dy="0.3em" style="text-anchor: end; visibility: hidden; font-family: Roboto, sans-serif; font-size: 12px; font-weight: 200;" fill="rgb(50, 49, 63)" stroke="none" stroke-width="1px">-600</text><text x="0" y="132.75" dx="0em" dy="0.3em" style="text-anchor: end; visibility: inherit; font-family: Roboto, sans-serif; font-size: 12px; font-weight: 200;" fill="rgb(50, 49, 63)" stroke="none" stroke-width="1px">-500</text><text x="0" y="118.00000000000001" dx="0em" dy="0.3em" style="text-anchor: end; visibility: hidden; font-family: Roboto, sans-serif; font-size: 12px; font-weight: 200;" fill="rgb(50, 49, 63)" stroke="none" stroke-width="1px">-400</text><text x="0" y="103.24999999999999" dx="0em" dy="0.3em" style="text-anchor: end; visibility: inherit; font-family: Roboto, sans-serif; font-size: 12px; font-weight: 200;" fill="rgb(50, 49, 63)" stroke="none" stroke-width="1px">-300</text><text x="0" y="88.5" dx="0em" dy="0.3em" style="text-anchor: end; visibility: hidden; font-family: Roboto, sans-serif; font-size: 12px; font-weight: 200;" fill="rgb(50, 49, 63)" stroke="none" stroke-width="1px">-200</text><text x="0" y="73.75" dx="0em" dy="0.3em" style="text-anchor: end; visibility: inherit; font-family: Roboto, sans-serif; font-size: 12px; font-weight: 200;" fill="rgb(50, 49, 63)" stroke="none" stroke-width="1px">-100</text><text x="0" y="59.00000000000001" dx="0em" dy="0.3em" style="text-anchor: end; visibility: hidden; font-family: Roboto, sans-serif; font-size: 12px; font-weight: 200;" fill="rgb(50, 49, 63)" stroke="none" stroke-width="1px">0</text><text x="0" y="44.25" dx="0em" dy="0.3em" style="text-anchor: end; visibility: inherit; font-family: Roboto, sans-serif; font-size: 12px; font-weight: 200;" fill="rgb(50, 49, 63)" stroke="none" stroke-width="1px">100</text><text x="0" y="29.499999999999993" dx="0em" dy="0.3em" style="text-anchor: end; visibility: hidden; font-family: Roboto, sans-serif; font-size: 12px; font-weight: 200;" fill="rgb(50, 49, 63)" stroke="none" stroke-width="1px">200</text><text x="0" y="14.750000000000007" dx="0em" dy="0.3em" style="text-anchor: end; visibility: inherit; font-family: Roboto, sans-serif; font-size: 12px; font-weight: 200;" fill="rgb(50, 49, 63)" stroke="none" stroke-width="1px">300</text><text x="0" y="0" dx="0em" dy="0.3em" style="text-anchor: end; visibility: hidden; font-family: Roboto, sans-serif; font-size: 12px; font-weight: 200;" fill="rgb(50, 49, 63)" stroke="none" stroke-width="1px">400</text></g><line x1="53.1875" y1="0" x2="53.1875" y2="177" fill="rgb(0, 0, 0)" stroke="rgb(204, 204, 204)" stroke-width="1px"></line></g></g><g transform="translate(53, 0)" clip-path="url(#clip_0)"><clipPath id="clip_0"><rect width="276" height="177"></rect></clipPath><g><g><g><line x1="0" y1="0" x2="0" y2="177" fill="rgb(0, 0, 0)" stroke="rgb(60, 60, 60)" stroke-width="1px" opacity="0.25"></line><line x1="39.544642857142854" y1="0" x2="39.544642857142854" y2="177" fill="rgb(0, 0, 0)" stroke="rgb(60, 60, 60)" stroke-width="1px" opacity="0.25"></line><line x1="79.08928571428571" y1="0" x2="79.08928571428571" y2="177" fill="rgb(0, 0, 0)" stroke="rgb(60, 60, 60)" stroke-width="1px" opacity="0.25"></line><line x1="118.63392857142857" y1="0" x2="118.63392857142857" y2="177" fill="rgb(0, 0, 0)" stroke="rgb(60, 60, 60)" stroke-width="1px" opacity="0.25"></line><line x1="158.17857142857142" y1="0" x2="158.17857142857142" y2="177" fill="rgb(0, 0, 0)" stroke="rgb(60, 60, 60)" stroke-width="1px" opacity="0.25"></line><line x1="197.72321428571428" y1="0" x2="197.72321428571428" y2="177" fill="rgb(0, 0, 0)" stroke="rgb(60, 60, 60)" stroke-width="1px" opacity="0.25"></line><line x1="237.26785714285714" y1="0" x2="237.26785714285714" y2="177" fill="rgb(0, 0, 0)" stroke="rgb(60, 60, 60)" stroke-width="1px" opacity="0.25"></line><line x1="276.8125" y1="0" x2="276.8125" y2="177" fill="rgb(0, 0, 0)" stroke="rgb(60, 60, 60)" stroke-width="1px" opacity="0.25"></line></g><g><line x1="0" y1="177" x2="276.8125" y2="177" fill="rgb(0, 0, 0)" stroke="rgb(60, 60, 60)" stroke-width="1px" opacity="0.25"></line><line x1="0" y1="162.25" x2="276.8125" y2="162.25" fill="rgb(0, 0, 0)" stroke="rgb(60, 60, 60)" stroke-width="1px" opacity="0.25"></line><line x1="0" y1="147.5" x2="276.8125" y2="147.5" fill="rgb(0, 0, 0)" stroke="rgb(60, 60, 60)" stroke-width="1px" opacity="0.25"></line><line x1="0" y1="132.75" x2="276.8125" y2="132.75" fill="rgb(0, 0, 0)" stroke="rgb(60, 60, 60)" stroke-width="1px" opacity="0.25"></line><line x1="0" y1="118.00000000000001" x2="276.8125" y2="118.00000000000001" fill="rgb(0, 0, 0)" stroke="rgb(60, 60, 60)" stroke-width="1px" opacity="0.25"></line><line x1="0" y1="103.24999999999999" x2="276.8125" y2="103.24999999999999" fill="rgb(0, 0, 0)" stroke="rgb(60, 60, 60)" stroke-width="1px" opacity="0.25"></line><line x1="0" y1="88.5" x2="276.8125" y2="88.5" fill="rgb(0, 0, 0)" stroke="rgb(60, 60, 60)" stroke-width="1px" opacity="0.25"></line><line x1="0" y1="73.75" x2="276.8125" y2="73.75" fill="rgb(0, 0, 0)" stroke="rgb(60, 60, 60)" stroke-width="1px" opacity="0.25"></line><line x1="0" y1="59.00000000000001" x2="276.8125" y2="59.00000000000001" fill="rgb(0, 0, 0)" stroke="rgb(60, 60, 60)" stroke-width="1px" opacity="0.25"></line><line x1="0" y1="44.25" x2="276.8125" y2="44.25" fill="rgb(0, 0, 0)" stroke="rgb(60, 60, 60)" stroke-width="1px" opacity="0.25"></line><line x1="0" y1="29.499999999999993" x2="276.8125" y2="29.499999999999993" fill="rgb(0, 0, 0)" stroke="rgb(60, 60, 60)" stroke-width="1px" opacity="0.25"></line><line x1="0" y1="14.750000000000007" x2="276.8125" y2="14.750000000000007" fill="rgb(0, 0, 0)" stroke="rgb(60, 60, 60)" stroke-width="1px" opacity="0.25"></line><line x1="0" y1="0" x2="276.8125" y2="0" fill="rgb(0, 0, 0)" stroke="rgb(60, 60, 60)" stroke-width="1px" opacity="0.25"></line></g></g></g><g><g><line x1="0" y1="59.00000000000001" x2="276.8125" y2="59.00000000000001" fill="rgb(0, 0, 0)" stroke="rgb(153, 153, 153)" stroke-width="1.5px"></line></g></g><g><g><line x1="39.544642857142854" y1="0" x2="39.544642857142854" y2="177" fill="rgb(0, 0, 0)" stroke="rgb(153, 153, 153)" stroke-width="1.5px"></line></g></g><g><g><g><g><g><path stroke="rgb(51, 187, 238)" stroke-width="2px" d="M39.544642857142854,140.8625L40.33553571428571,147.60921240708979L41.126428571428576,139.64418883909573L41.917321428571434,136.68681714554168L42.708214285714284,127.01352979927397L43.49910714285714,126.91872213251139L44.29,112.86219261091568L45.08089285714286,102.2122947306155L45.871785714285714,94.7757072784581L46.66267857142857,88.24692911042943L47.45357142857143,81.90058116810994L48.24446428571429,78.37505061803856L49.03535714285714,77.64130077137656L49.82625,75.62979920888412L50.61714285714286,72.4131938490616L51.40803571428572,72.45294215985976L52.198928571428574,72.03498235525596L52.989821428571425,70.64369172105724L53.78071428571428,69.45628759463116L54.57160714285715,67.5292367362324L55.362500000000004,69.50245927534417L56.153392857142855,65.26703786724141L56.94428571428571,57.946025407924644L57.73517857142857,51.688532184425064L58.526071428571434,48.81976505688303L59.316964285714285,50.96892817421202L60.10785714285714,46.578041780970906L60.89875,46.80826870600044L61.68964285714286,41.129782476483165L62.48053571428571,45.35677482197165L63.27142857142857,51.04032723401036L64.06232142857142,47.262331451586896L64.85321428571429,42.91474032138161L65.64410714285715,44.65683957148411L66.435,41.4817269219713L67.22589285714285,45.286568725465884L68.01678571428572,41.250003387233484L68.80767857142857,45.187004444507245L69.59857142857143,40.99035541020811L70.38946428571428,37.624951616666365L71.18035714285713,35.77068801972416L71.97125,33.97460072030442L72.76214285714285,31.814837287351917L73.55303571428573,31.04869832939305L74.34392857142858,33.288577582636485L75.13482142857143,33.55938756525138L75.92571428571429,31.244690868008828L76.71660714285714,34.24986879804092L77.50750000000001,34.24237172442989L78.29839285714286,37.087490428868755L79.08928571428571,41.143654440712446L79.88017857142857,38.59132141753025L80.67107142857142,36.3093992337612L81.46196428571427,36.74754509913995L82.25285714285715,39.11195407452803L83.04375,35.9589033068957L83.83464285714287,35.30030353072407L84.62553571428572,40.32336510809321L85.41642857142857,39.71698294212909L86.20732142857143,45.22342538575364L86.99821428571428,42.165385546502435L87.78910714285713,38.43103621265837L88.58,36.48552609921602L89.37089285714285,40.433624084891164L90.16178571428571,43.242659459076336L90.95267857142858,38.497464410184705L91.74357142857143,38.608540843660755L92.5344642857143,42.09780710207604L93.32535714285714,43.23036752192845L94.11625000000001,46.92938777997521L94.90714285714286,43.73933144329297L95.69803571428571,42.90492425026071L96.48892857142857,44.797483264746106L97.27982142857142,46.103942465967414L98.07071428571427,44.63899540644471L98.86160714285714,39.43225255792332L99.6525,43.01094716665873L100.44339285714287,38.73115942713394L101.23428571428572,42.226670911347526L102.02517857142857,38.77311901228538L102.81607142857143,35.96427364001052L103.60696428571428,33.63831345624927L104.39785714285715,30.970606778628806L105.18875,33.637329477269276L105.97964285714285,30.969869778417543L106.77053571428571,28.971942464002666L107.56142857142856,30.363249905554714L108.35232142857141,29.739326679254876L109.1432142857143,28.605603182754244L109.93410714285714,27.719421783878467L110.72500000000001,27.611009416124563L111.51589285714286,28.38132605267949L112.30678571428571,32.105205713464834L113.09767857142857,30.00742157938183L113.88857142857142,30.43539626295749L114.67946428571429,28.46055430095341L115.47035714285714,31.276007671415982L116.26124999999999,29.460397245889663L117.05214285714287,31.987867537172317L117.84303571428572,30.548917785341644L118.63392857142857,30.61884192122091L119.42482142857143,29.78267509899434L120.21571428571428,30.52621864914685L121.00660714285715,31.638470268211083L121.7975,30.324241730890016L122.58839285714285,28.56241205643654L123.37928571428571,29.09392663027098L124.17017857142856,29.492031046072974L124.96107142857142,29.716166253508664L125.7519642857143,32.06837102387803L126.54285714285714,35.64427489688468L127.33375000000001,34.76846689776662L128.12464285714285,37.18535420642722L128.9155357142857,33.516272800613955L129.70642857142857,33.840998327659875L130.49732142857144,32.19607024741723L131.2882142857143,32.222784115315505L132.07910714285714,32.53897280237133L132.87,31.035740628976136L133.66089285714287,30.983472231103104L134.4517857142857,28.61190570109623L135.24267857142857,30.27869487012108L136.03357142857143,28.454252457720692L136.82446428571427,31.826625090832803L137.61535714285714,30.83539469303376L138.40625,37.645553125082294L139.19714285714286,37.26703179068663L139.9880357142857,34.20683181122429L140.77892857142857,32.69221452660699L141.56982142857143,34.07529618042865L142.36071428571427,31.66813183914105L143.15160714285713,29.013648247516656L143.9425,27.80291253738998L144.73339285714286,29.746803990505082L145.5242857142857,34.053511188888315L146.31517857142856,34.65063738047734L147.10607142857145,31.506702397977527L147.8969642857143,31.07706509608516L148.68785714285715,29.200321756967803L149.47875000000002,28.64615849596887L150.26964285714286,32.26654271348068L151.06053571428572,32.20152299239704L151.85142857142858,37.59513072130538L152.64232142857142,33.82319541025773L153.43321428571429,31.03503836228304L154.22410714285715,29.20586623334999L155.01500000000001,27.576658808779143L155.80589285714285,26.541494947775586L156.59678571428572,26.1734047158839L157.38767857142858,25.52748013219704L158.17857142857142,27.190987619015583L158.96946428571428,30.73234972664266L159.76035714285715,31.34859244525536L160.55124999999998,31.625045741496255L161.34214285714285,37.274416760380696L162.1330357142857,36.174555653525154L162.92392857142855,34.94351218449034L163.7148214285714,32.09629062618326L164.5057142857143,30.445014179011256L165.29660714285717,30.726130620079427L166.0875,30.9366868344395L166.87839285714287,27.7253459389952L167.66928571428573,27.023086608307402L168.46017857142857,29.12569186962223L169.25107142857144,29.44177821034705L170.0419642857143,27.790379379549947L170.83285714285714,26.14623415528292L171.62375,27.321231882306904L172.41464285714287,29.460070179847882L173.2055357142857,32.28380256470606L173.99642857142857,36.50906062096483L174.78732142857143,33.67613390510265L175.57821428571427,31.887474294921887L176.36910714285713,29.289003246896506L177.16,27.453815931925483L177.95089285714286,29.07808313301219L178.7417857142857,29.665276766626118L179.53267857142856,33.47413229820297L180.32357142857143,33.40218759135403L181.11446428571426,32.20060350592417L181.90535714285716,29.8567395259372L182.69625000000002,30.76680540492696L183.48714285714286,31.5595122482903L184.27803571428572,31.67195717396942L185.0689285714286,33.31112342330311L185.85982142857142,34.427791444054016L186.6507142857143,36.11569329159647L187.44160714285715,32.529984275405745L188.23250000000002,32.10266072227889L189.02339285714285,33.85585538098689L189.81428571428572,35.46517818035918L190.60517857142858,32.894265957089026L191.39607142857142,30.41331520185968L192.18696428571428,29.406600586192884L192.97785714285715,30.65178633905847L193.76874999999998,28.65965296795481L194.55964285714285,26.57518507299815L195.3505357142857,25.05094111967563L196.14142857142855,24.05737239863703L196.9323214285714,25.05324692657912L197.72321428571428,25.799156948007777L198.51410714285717,24.728853554057835L199.305,23.149723811989308L200.09589285714287,22.670383135180014L200.88678571428574,22.163266968249797L201.67767857142857,22.1166394592191L202.46857142857144,22.414917954955122L203.2594642857143,25.74821854826138L204.05035714285714,28.059748192647756L204.84125,25.866698896293194L205.63214285714287,24.853487473323597L206.4230357142857,29.092629617519385L207.21392857142857,26.64032708352202L208.00482142857143,24.988664985557996L208.7957142857143,24.12179507418293L209.58660714285713,23.250374510563034L210.3775,23.041950508411695L211.16839285714286,22.515615930800376L211.9592857142857,21.492008832169464L212.75017857142856,24.168419615294923L213.54107142857143,28.986761291855895L214.33196428571426,27.819796707600084L215.12285714285713,25.501862733992464L215.91375,24.35809018776037L216.70464285714283,22.612864550632498L217.49553571428572,21.63889304842374L218.2864285714286,26.166583393269395L219.07732142857145,24.930010961558764L219.8682142857143,23.81870571020754L220.65910714285715,23.28251807694542L221.45000000000002,22.806868539632138L222.24089285714285,27.300554536184475L223.03178571428572,28.14879534760216L223.82267857142858,26.673845215354017L224.61357142857142,26.457647566300167L225.40446428571428,25.07397302715884L226.19535714285715,24.000578297341956L226.98624999999998,25.56604564470911L227.77714285714285,25.294703187887155L228.5680357142857,24.758265187727478L229.35892857142858,23.986248125607872L230.1498214285714,22.963737346080297L230.94071428571428,22.086809272214147L231.73160714285714,22.281507644888407L232.52249999999998,24.50059672602143L233.31339285714284,24.718816947790046L234.10428571428574,24.326926393894723L234.89517857142857,26.32879536902715L235.68607142857144,28.901847731401336L236.4769642857143,26.5714764508196L237.26785714285714,24.45580336166388L238.05875,25.166559217886252L238.84964285714287,23.181385354196813L239.64053571428573,24.026907630293394L240.43142857142857,22.84610131508974L241.22232142857143,22.368924885002237L242.0132142857143,21.45618223886669L242.80410714285713,21.14276299691113L243.595,21.24121448468644L244.38589285714286,21.61113464903015L245.1767857142857,21.406912352123594L245.96767857142856,21.661197351740554L246.75857142857143,20.481824316453675L247.54946428571427,20.449991413023817L248.34035714285713,24.57266856835484L249.13125,23.92128125769779L249.92214285714283,22.989122162015626L250.7130357142857,21.291327499349702L251.5039285714286,20.945241797012905L252.29482142857145,20.093663605962675L253.0857142857143,21.751226540866035L253.87660714285715,21.21566117910868L254.66750000000002,20.592387723152388L255.45839285714285,20.125555904641146L256.2492857142857,20.109101372576202L257.04017857142856,19.72655192805957" style="fill: none;" fill="none"></path></g><g><path stroke="rgb(204, 51, 17)" stroke-width="2px" d="M39.544642857142854,140.8625L40.33553571428571,147.60921240708979L41.126428571428576,139.64418883909573L41.917321428571434,165.21229655701703L42.708214285714284,139.14675710828877L43.49910714285714,135.26359464107617L44.29,115.16680781620289L45.08089285714286,100.75180813277522L45.871785714285714,96.51042511476714L46.66267857142857,85.67893849393006L47.45357142857143,79.42569362781443L48.24446428571429,74.74530158677138L49.03535714285714,69.37198312039952L49.82625,64.87588411768705L50.61714285714286,62.93129567810478L51.40803571428572,62.27126748884784L52.198928571428574,66.55373096699299L52.989821428571425,64.08884041494555L53.78071428571428,57.5644726441772L54.57160714285715,58.6315122181111L55.362500000000004,62.917457230634824L56.153392857142855,64.08350029463386L56.94428571428571,63.10244888138439L57.73517857142857,65.62934977941819L58.526071428571434,63.96417097446677L59.316964285714285,58.716873421554446L60.10785714285714,62.78803055987611L60.89875,61.022199831892216L61.68964285714286,64.8841673441467L62.48053571428571,56.77882316466222L63.27142857142857,58.66939150694805L64.06232142857142,59.715059888324774L64.85321428571429,60.83144784138807L65.64410714285715,61.926758578350906L66.435,58.859600624329936L67.22589285714285,58.857818313631206L68.01678571428572,56.70912966397717L68.80767857142857,58.839119316484826L69.59857142857143,59.36079950846236L70.38946428571428,59.159169409507754L71.18035714285713,53.75091676779L71.97125,53.43944499315127L72.76214285714285,48.06000524947661L73.55303571428573,42.883113398366966L74.34392857142858,39.375854053136415L75.13482142857143,35.97144645513228L75.92571428571429,33.12536730656383L76.71660714285714,36.62108091374986L77.50750000000001,40.0908870586231L78.29839285714286,43.39319865638852L79.08928571428571,42.60864798232454L79.88017857142857,41.095456889034786L80.67107142857142,42.62769755097259L81.46196428571427,41.33186024962133L82.25285714285715,44.58184373283093L83.04375,42.20315573339587L83.83464285714287,37.23758329643072L84.62553571428572,37.738934915334625L85.41642857142857,35.04157964557109L86.20732142857143,31.466315549283944L86.99821428571428,31.82428785430664L87.78910714285713,29.722969068172862L88.58,27.92694630984547L89.37089285714285,28.28476028938931L90.16178571428571,29.73748296683354L90.95267857142858,31.38090975070013L91.74357142857143,32.9080164092194L92.5344642857143,38.235361806039016L93.32535714285714,42.74385850256962L94.11625000000001,45.15813752237389L94.90714285714286,44.44890250338908L95.69803571428571,46.50926047692918L96.48892857142857,44.202128595634164L97.27982142857142,41.25234431661138L98.07071428571427,43.078408393846054L98.86160714285714,42.18775788673345L99.6525,39.66953565661863L100.44339285714287,42.67035720729356L101.23428571428572,43.4740950483604L102.02517857142857,43.113509691189186L102.81607142857143,43.99112875876044L103.60696428571428,39.72447294009401L104.39785714285715,38.453917732081884L105.18875,39.09423938134764L105.97964285714285,40.79558279666584L106.77053571428571,38.84893151467149L107.56142857142856,42.7961747045364L108.35232142857141,40.68057735367871L109.1432142857143,39.83644493789966L109.93410714285714,40.31486475848924L110.72500000000001,43.82011370412172L111.51589285714286,42.002845164382016L112.30678571428571,37.05052852811163L113.09767857142857,37.450740867556235L113.88857142857142,39.786737409802406L114.67946428571429,39.94443131994213L115.47035714285714,34.99046155863335L116.26124999999999,36.8333132074173L117.05214285714287,34.99265159235488L117.84303571428572,33.31781604267333L118.63392857142857,43.35522671596442L119.42482142857143,40.543969810256925L120.21571428571428,38.03109088788213L121.00660714285715,43.294287075024194L121.7975,42.31242851919304L122.58839285714285,38.319036460875395L123.37928571428571,35.21691830919556L124.17017857142856,37.965514313587555L124.96107142857142,38.76544772087709L125.7519642857143,34.07038034293685L126.54285714285714,33.3304623768597L127.33375000000001,32.3319938202679L128.12464285714285,36.36004337138069L128.9155357142857,33.15727248516411L129.70642857142857,37.12626709138795L130.49732142857144,37.87769405144956L131.2882142857143,35.182532844535714L132.07910714285714,32.38638460055725L132.87,35.84544456581738L133.66089285714287,32.179477979797205L134.4517857142857,32.321424006868114L135.24267857142857,32.90903408114422L136.03357142857143,32.497636526777015L136.82446428571427,34.595962258555986L137.61535714285714,32.46535823165844L138.40625,29.75886081551217L139.19714285714286,30.54540425081861L139.9880357142857,30.727277783863137L140.77892857142857,28.60512856011351L141.56982142857143,27.348841291525005L142.36071428571427,29.554794627352237L143.15160714285713,27.76396117588681L143.9425,27.12605442073923L144.73339285714286,26.42612726113369L145.5242857142857,26.494241818589128L146.31517857142856,26.138012122123254L147.10607142857145,24.131138579470324L147.8969642857143,25.034452796023274L148.68785714285715,24.56333764422143L149.47875000000002,23.76620239552184L150.26964285714286,26.834375594245852L151.06053571428572,25.05996232009017L151.85142857142858,27.211041777747525L152.64232142857142,26.0084902915329L153.43321428571429,27.77339922835814L154.22410714285715,25.985426022040258L155.01500000000001,25.60881909050815L155.80589285714285,28.99196799879059L156.59678571428572,27.897741531094155L157.38767857142858,27.152210906789513L158.17857142857142,26.519763469185364L158.96946428571428,25.305610338419836L159.76035714285715,25.617952143476447L160.55124999999998,24.445041155463848L161.34214285714285,25.380633325442435L162.1330357142857,25.748189360756403L162.92392857142855,27.06011883120653L163.7148214285714,25.85842650457368L164.5057142857143,24.736223951925684L165.29660714285717,24.228896739992358L166.0875,25.107673658254274L166.87839285714287,24.062842570032426L167.66928571428573,23.31728658495432L168.46017857142857,22.166505152130764L169.25107142857144,22.08204235894595L170.0419642857143,21.75962222685051L170.83285714285714,23.33223204791102L171.62375,22.807081803885357L172.41464285714287,22.376721771110137L173.2055357142857,25.423429606561466L173.99642857142857,23.63293877531457L174.78732142857143,22.6620861427106L175.57821428571427,22.78643502089024L176.36910714285713,21.954009830646797L177.16,21.626703363154462L177.95089285714286,21.23346081900268L178.7417857142857,21.56830465343304L179.53267857142856,21.52292268542133L180.32357142857143,21.192751591380567L181.11446428571426,20.76034094194406L181.90535714285716,20.436465365516092L182.69625000000002,20.490062558771537L183.48714285714286,22.71453435651989L184.27803571428572,22.788696233033374L185.0689285714286,22.548063478542023L185.85982142857142,21.849514545427972L186.6507142857143,22.325908894525554L187.44160714285715,21.349918261999647L188.23250000000002,22.54407127823773L189.02339285714285,24.06787438740006L189.81428571428572,22.839762916162645L190.60517857142858,22.475244924205807L191.39607142857142,22.054130948230164L192.18696428571428,22.8123690802244L192.97785714285715,21.973434441088077L193.76874999999998,22.122544896374983L194.55964285714285,21.71591362738485L195.3505357142857,21.115166806911237L196.14142857142855,20.776274938376528L196.9323214285714,20.55946742884402L197.72321428571428,20.32303360420419L198.51410714285717,20.59021466954892L199.305,20.23499578749215L200.09589285714287,20.080004344831618L200.88678571428574,21.740995754278874L201.67767857142857,21.393110819954888L202.46857142857144,21.206590004146204L203.2594642857143,20.659638413105494L204.05035714285714,22.32323167141604L204.84125,21.384935521890608L205.63214285714287,20.71917420589609L206.4230357142857,22.145688980216153L207.21392857142857,21.918361046181897L208.00482142857143,21.04466492359022L208.7957142857143,21.167739027769077L209.58660714285713,20.33435903179904L210.3775,19.78420241481748L211.16839285714286,19.853427608698293L211.9592857142857,19.942299778915018L212.75017857142856,19.157347534407375L213.54107142857143,19.383913303271125L214.33196428571426,19.553611064150058L215.12285714285713,19.49560218704838L215.91375,19.859401038099243L216.70464285714283,19.391436377536337L217.49553571428572,19.189020846774714L218.2864285714286,19.592749114234273L219.07732142857145,19.673006586561446L219.8682142857143,19.696096933334506L220.65910714285715,19.898504103067566L221.45000000000002,20.161174573197574L222.24089285714285,19.50639725532502L223.03178571428572,20.05259904423843L223.82267857142858,19.351029184134568L224.61357142857142,18.825553358916796L225.40446428571428,19.431579465828683L226.19535714285715,19.33015551990571L226.98624999999998,19.84654898440939L227.77714285714285,19.863102689322616L228.5680357142857,19.653366414302646L229.35892857142858,20.051611444312663L230.1498214285714,21.164391971790188L230.94071428571428,21.997864586870854L231.73160714285714,21.659550575566247L232.52249999999998,22.072558381099128L233.31339285714284,21.826563727443258L234.10428571428574,21.346133731854973L234.89517857142857,21.726741665159373L235.68607142857144,22.826312007204383L236.4769642857143,22.42814769339609L237.26785714285714,21.20436012235366L238.05875,21.36139573164292L238.84964285714287,20.997722903000536L239.64053571428573,20.762354454347406L240.43142857142857,23.029548486306197L241.22232142857143,22.284191816243368L242.0132142857143,22.947662170366264L242.80410714285713,22.81521896560434L243.595,22.271749005237638L244.38589285714286,22.938342504922996L245.1767857142857,23.622733536187333L245.96767857142856,22.95062241860433L246.75857142857143,22.076986191534637L247.54946428571427,21.08943015745944L248.34035714285713,20.97913318793713L249.13125,23.00680325776489L249.92214285714283,22.822493140065887L250.7130357142857,22.573377361909344L251.5039285714286,23.238307144070134L252.29482142857145,22.070327050908517L253.0857142857143,21.602757461130462L253.87660714285715,25.436090338386723L254.66750000000002,24.16073666345168L255.45839285714285,23.908924260925303L256.2492857142857,22.49857427143303L257.04017857142856,21.59031212930336L257.8310714285714,21.76154128484821L258.6219642857143,21.815746922351316L259.41285714285715,20.70864944484114L260.20375,20.619883434186008L260.9946428571429,20.775532692205314L261.78553571428574,20.48486648646178L262.5764285714286,21.08165249835989L263.3673214285714,20.899262721271548L264.1582142857143,20.2443377782324L264.94910714285714,21.567901495896052" style="fill: none;" fill="none"></path></g></g></g></g><g opacity="0.2"><g><g><g><path stroke="rgb(51, 187, 238)" stroke-width="2px" d="M39.544642857142854,140.8625L40.33553571428571,152.6625L41.126428571428576,129.21L41.917321428571434,131.57000000000002L42.708214285714284,107.2325L43.49910714285714,126.7025L44.29,78.3225L45.08089285714286,74.63499999999999L45.871785714285714,74.7825L46.66267857142857,70.21L47.45357142857143,64.015L48.24446428571429,68.2925L49.03535714285714,75.52L49.82625,69.7675L50.61714285714286,62.9825L51.40803571428572,72.57000000000001L52.198928571428574,70.8L52.989821428571425,66.52250000000001L53.78071428571428,65.9325L54.57160714285715,61.802499999999995L55.362500000000004,75.37249999999999L56.153392857142855,52.6575L56.94428571428571,36.13750000000001L57.73517857142857,33.04L58.526071428571434,40.267500000000005L59.316964285714285,57.37750000000001L60.10785714285714,33.48250000000001L60.89875,47.495L61.68964285714286,24.19000000000001L62.48053571428571,57.9675L63.27142857142857,67.9975L64.06232142857142,35.99000000000001L64.85321428571429,29.942500000000003L65.64410714285715,49.85499999999999L66.435,32.00749999999999L67.22589285714285,56.63999999999999L68.01678571428572,29.205000000000005L68.80767857142857,56.934999999999995L69.59857142857143,28.46750000000001L70.38946428571428,27.582500000000007L71.18035714285713,30.23749999999999L71.97125,28.61499999999999L72.76214285714285,25.369999999999997L73.55303571428573,28.762499999999996L74.34392857142858,39.9725L75.13482142857143,34.36750000000001L75.92571428571429,24.33749999999999L76.71660714285714,43.217499999999994L77.50750000000001,34.220000000000006L78.29839285714286,45.57749999999999L79.08928571428571,53.24749999999999L79.88017857142857,30.97500000000001L80.67107142857142,29.499999999999993L81.46196428571427,38.05499999999999L82.25285714285715,46.167500000000004L83.04375,26.550000000000004L83.83464285714287,33.335L84.62553571428572,55.3125L85.41642857142857,37.90749999999999L86.20732142857143,61.65500000000001L86.99821428571428,33.04L87.78910714285713,27.2875L88.58,30.68L89.37089285714285,52.21500000000001L90.16178571428571,51.62499999999999L90.95267857142858,24.33749999999999L91.74357142857143,38.94L92.5344642857143,52.50999999999999L93.32535714285714,46.60999999999999L94.11625000000001,57.9675L94.90714285714286,34.220000000000006L95.69803571428571,40.415000000000006L96.48892857142857,50.44500000000001L97.27982142857142,50.0025L98.07071428571427,40.267500000000005L98.86160714285714,23.895000000000003L99.6525,53.690000000000005L100.44339285714287,25.95999999999999L101.23428571428572,52.6575L102.02517857142857,28.46750000000001L102.81607142857143,27.582500000000007L103.60696428571428,26.69750000000001L104.39785714285715,23.01L105.18875,41.595L105.97964285714285,23.01L106.77053571428571,23.01L107.56142857142856,34.51499999999999L108.35232142857141,27.877499999999994L109.1432142857143,25.222499999999993L109.93410714285714,25.07500000000001L110.72500000000001,27.2875L111.51589285714286,30.68L112.30678571428571,43.217499999999994L113.09767857142857,23.7475L113.88857142857142,31.712500000000006L114.67946428571429,22.567499999999992L115.47035714285714,39.677499999999995L116.26124999999999,24.042500000000004L117.05214285714287,39.53000000000001L117.84303571428572,26.254999999999995L118.63392857142857,30.827500000000004L119.42482142857143,27.2875L120.21571428571428,32.74500000000001L121.00660714285715,34.9575L121.7975,26.4025L122.58839285714285,23.305000000000007L123.37928571428571,30.68L124.17017857142856,30.68L124.96107142857142,30.384999999999994L125.7519642857143,39.0875L126.54285714285714,46.31500000000001L127.33375000000001,32.154999999999994L128.12464285714285,44.3975L128.9155357142857,22.567499999999992L129.70642857142857,34.809999999999995L130.49732142857144,27.2875L131.2882142857143,32.3025L132.07910714285714,33.48250000000001L132.87,26.550000000000004L133.66089285714287,30.827500000000004L134.4517857142857,21.535000000000007L135.24267857142857,35.25250000000001L136.03357142857143,23.01L136.82446428571427,41.89000000000001L137.61535714285714,27.877499999999994L138.40625,57.9675L139.19714285714286,36.13750000000001L139.9880357142857,25.07500000000001L140.77892857142857,28.172500000000003L141.56982142857143,38.2025L142.36071428571427,24.484999999999996L143.15160714285713,21.092499999999994L143.9425,24.19000000000001L144.73339285714286,35.54749999999999L145.5242857142857,46.905L146.31517857142856,36.4325L147.10607142857145,22.125L147.8969642857143,29.795L148.68785714285715,23.599999999999994L149.47875000000002,26.992499999999996L150.26964285714286,43.06999999999999L151.06053571428572,32.00749999999999L151.85142857142858,53.690000000000005L152.64232142857142,22.567499999999992L153.43321428571429,22.714999999999993L154.22410714285715,23.7475L155.01500000000001,22.714999999999993L155.80589285714285,23.45249999999999L156.59678571428572,25.07500000000001L157.38767857142858,23.599999999999994L158.17857142857142,32.154999999999994L158.96946428571428,41.29999999999999L159.76035714285715,33.1875L160.55124999999998,32.45L161.34214285714285,54.13249999999999L162.1330357142857,32.89249999999999L162.92392857142855,31.269999999999996L163.7148214285714,23.599999999999994L164.5057142857143,25.5175L165.29660714285717,31.565L166.0875,31.565L166.87839285714287,18.142500000000005L167.66928571428573,24.927500000000006L168.46017857142857,35.39999999999999L169.25107142857144,30.384999999999994L170.0419642857143,22.862499999999997L170.83285714285714,21.24L171.62375,30.827500000000004L172.41464285714287,35.8425L173.2055357142857,40.709999999999994L173.99642857142857,49.11749999999999L174.78732142857143,25.222499999999993L175.57821428571427,26.550000000000004L176.36910714285713,21.535000000000007L177.16,21.977499999999996L177.95089285714286,33.925L178.7417857142857,31.417499999999997L179.53267857142856,44.839999999999996L180.32357142857143,33.1875L181.11446428571426,28.61499999999999L181.90535714285716,22.862499999999997L182.69625000000002,33.48250000000001L183.48714285714286,33.925L184.27803571428572,32.00749999999999L185.0689285714286,38.2025L185.85982142857142,37.760000000000005L186.6507142857143,41.15250000000001L187.44160714285715,21.829999999999995L188.23250000000002,30.827500000000004L189.02339285714285,39.0875L189.81428571428572,40.267500000000005L190.60517857142858,25.222499999999993L191.39607142857142,23.01L192.18696428571428,26.4025L192.97785714285715,34.36750000000001L193.76874999999998,22.714999999999993L194.55964285714285,20.354999999999997L195.3505357142857,20.5025L196.14142857142855,21.092499999999994L196.9323214285714,28.025L197.72321428571428,28.025L198.51410714285717,21.535000000000007L199.305,18.437499999999993L200.09589285714287,21.24L200.88678571428574,20.650000000000006L201.67767857142857,21.977499999999996L202.46857142857144,23.305000000000007L203.2594642857143,35.695L204.05035714285714,34.9575L204.84125,19.322499999999994L205.63214285714287,21.829999999999995L206.4230357142857,41.7425L207.21392857142857,19.322499999999994L208.00482142857143,20.05999999999999L208.7957142857143,21.535000000000007L209.58660714285713,20.650000000000006L210.3775,22.420000000000005L211.16839285714286,20.944999999999993L211.9592857142857,18.437499999999993L212.75017857142856,32.154999999999994L213.54107142857143,43.365L214.33196428571426,24.33749999999999L215.12285714285713,18.584999999999997L215.91375,20.944999999999993L216.70464285714283,17.40500000000001L217.49553571428572,18.7325L218.2864285714286,39.677499999999995L219.07732142857145,21.24L219.8682142857143,20.5025L220.65910714285715,21.682500000000008L221.45000000000002,21.387500000000003L222.24089285714285,40.709999999999994L223.03178571428572,30.68L223.82267857142858,22.272500000000004L224.61357142857142,25.812500000000007L225.40446428571428,20.944999999999993L226.19535714285715,20.79750000000001L226.98624999999998,30.23749999999999L227.77714285714285,24.484999999999996L228.5680357142857,23.157500000000006L229.35892857142858,21.682500000000008L230.1498214285714,19.91250000000001L230.94071428571428,19.47L231.73160714285714,22.862499999999997L232.52249999999998,31.12249999999999L233.31339285714284,25.369999999999997L234.10428571428574,23.157500000000006L234.89517857142857,32.3025L235.68607142857144,36.58L236.4769642857143,19.6175L237.26785714285714,18.142500000000005L238.05875,27.2875L238.84964285714287,17.257500000000004L239.64053571428573,26.550000000000004L240.43142857142857,19.322499999999994L241.22232142857143,20.944999999999993L242.0132142857143,18.7325L242.80410714285713,20.207499999999996L243.595,21.535000000000007L244.38589285714286,22.714999999999993L245.1767857142857,20.79750000000001L245.96767857142856,22.420000000000005L246.75857142857143,16.9625L247.54946428571427,20.354999999999997L248.34035714285713,36.87500000000001L249.13125,21.977499999999996L249.92214285714283,20.207499999999996L250.7130357142857,16.225L251.5039285714286,19.91250000000001L252.29482142857145,17.55249999999999L253.0857142857143,26.69750000000001L253.87660714285715,19.6175L254.66750000000002,18.7325L255.45839285714285,18.7325L256.2492857142857,20.05999999999999L257.04017857142856,18.584999999999997" style="fill: none;" fill="none"></path></g><g><path stroke="rgb(204, 51, 17)" stroke-width="2px" d="M39.544642857142854,140.8625L40.33553571428571,152.6625L41.126428571428576,129.21L41.917321428571434,209.45L42.708214285714284,85.845L43.49910714285714,126.40749999999998L44.29,65.78500000000001L45.08089285714286,63.42499999999999L45.871785714285714,85.1075L46.66267857142857,55.75499999999999L47.45357142857143,61.802499999999995L48.24446428571429,61.36L49.03535714285714,53.837500000000006L49.82625,51.772499999999994L50.61714285714286,57.230000000000004L51.40803571428572,60.3275L52.198928571428574,79.2075L52.989821428571425,56.787499999999994L53.78071428571428,38.2025L54.57160714285715,61.802499999999995L55.362500000000004,75.6675L56.153392857142855,67.555L56.94428571428571,60.17999999999999L57.73517857142857,73.16L58.526071428571434,59.00000000000001L59.316964285714285,43.06999999999999L60.10785714285714,74.93L60.89875,55.75499999999999L61.68964285714286,76.405L62.48053571428571,32.597500000000004L63.27142857142857,64.30999999999999L64.06232142857142,62.834999999999994L64.85321428571429,64.16250000000001L65.64410714285715,65.195L66.435,49.70750000000001L67.22589285714285,58.852500000000006L68.01678571428572,50.2975L68.80767857142857,65.195L69.59857142857143,60.91749999999999L70.38946428571428,58.5575L71.18035714285713,37.612500000000004L71.97125,52.50999999999999L72.76214285714285,32.00749999999999L73.55303571428573,27.435000000000006L74.34392857142858,28.91L75.13482142857143,25.812500000000007L75.92571428571429,24.6325L76.71660714285714,47.05250000000001L77.50750000000001,50.44500000000001L78.29839285714286,53.24749999999999L79.08928571428571,40.267500000000005L79.88017857142857,36.58L80.67107142857142,47.20000000000001L81.46196428571427,37.465L82.25285714285715,54.279999999999994L83.04375,35.105000000000004L83.83464285714287,22.420000000000005L84.62553571428572,39.235L85.41642857142857,26.992499999999996L86.20732142857143,20.79750000000001L86.99821428571428,32.89249999999999L87.78910714285713,23.45249999999999L88.58,22.567499999999992L89.37089285714285,29.35250000000001L90.16178571428571,34.0725L90.95267857142858,36.28499999999999L91.74357142857143,37.465L92.5344642857143,54.13249999999999L93.32535714285714,56.1975L94.11625000000001,52.36249999999999L94.90714285714286,42.332499999999996L95.69803571428571,52.6575L96.48892857142857,37.317499999999995L97.27982142857142,32.45L98.07071428571427,48.5275L98.86160714285714,39.53000000000001L99.6525,32.154999999999994L100.44339285714287,51.62499999999999L101.23428571428572,45.872499999999995L102.02517857142857,42.03750000000001L102.81607142857143,46.60999999999999L103.60696428571428,26.992499999999996L104.39785714285715,34.662499999999994L105.18875,41.005L105.97964285714285,45.872499999999995L106.77053571428571,33.04L107.56142857142856,54.575L108.35232142857141,34.36750000000001L109.1432142857143,37.317499999999995L109.93410714285714,41.7425L110.72500000000001,54.279999999999994L111.51589285714286,36.58L112.30678571428571,22.272500000000004L113.09767857142857,38.64500000000001L113.88857142857142,46.7575L114.67946428571429,40.415000000000006L115.47035714285714,20.207499999999996L116.26124999999999,42.332499999999996L117.05214285714287,29.499999999999993L117.84303571428572,28.320000000000004L118.63392857142857,73.3075L119.42482142857143,32.154999999999994L120.21571428571428,30.5325L121.00660714285715,59.00000000000001L121.7975,39.38250000000001L122.58839285714285,26.4025L123.37928571428571,25.95999999999999L124.17017857142856,46.167500000000004L124.96107142857142,41.15250000000001L125.7519642857143,20.05999999999999L126.54285714285714,31.12249999999999L127.33375000000001,29.35250000000001L128.12464285714285,48.379999999999995L128.9155357142857,23.599999999999994L129.70642857142857,48.96999999999999L130.49732142857144,40.120000000000005L131.2882142857143,27.139999999999997L132.07910714285714,24.042500000000004L132.87,46.167500000000004L133.66089285714287,21.24L134.4517857142857,32.74500000000001L135.24267857142857,34.662499999999994L136.03357142857143,31.269999999999996L136.82446428571427,40.8575L137.61535714285714,26.107499999999995L138.40625,21.682500000000008L139.19714285714286,32.89249999999999L139.9880357142857,31.269999999999996L140.77892857142857,22.272500000000004L141.56982142857143,23.599999999999994L142.36071428571427,36.13750000000001L143.15160714285713,22.420000000000005L143.9425,25.222499999999993L144.73339285714286,24.33749999999999L145.5242857142857,26.69750000000001L146.31517857142856,25.07500000000001L147.10607142857145,18.142500000000005L147.8969642857143,27.729999999999993L148.68785714285715,23.157500000000006L149.47875000000002,21.387500000000003L150.26964285714286,35.99000000000001L151.06053571428572,19.765000000000004L151.85142857142858,33.62999999999999L152.64232142857142,22.420000000000005L153.43321428571429,33.04L154.22410714285715,20.650000000000006L155.01500000000001,24.484999999999996L155.80589285714285,39.0875L156.59678571428572,24.6325L157.38767857142858,24.927500000000006L158.17857142857142,24.6325L158.96946428571428,21.682500000000008L159.76035714285715,26.550000000000004L160.55124999999998,20.944999999999993L161.34214285714285,28.172500000000003L162.1330357142857,26.84499999999999L162.92392857142855,30.97500000000001L163.7148214285714,22.272500000000004L164.5057142857143,21.387500000000003L165.29660714285717,22.714999999999993L166.0875,27.729999999999993L166.87839285714287,20.944999999999993L167.66928571428573,21.092499999999994L168.46017857142857,18.7325L169.25107142857144,21.829999999999995L170.0419642857143,20.79750000000001L170.83285714285714,28.025L171.62375,21.24L172.41464285714287,21.092499999999994L173.2055357142857,34.51499999999999L173.99642857142857,18.29000000000001L174.78732142857143,19.765000000000004L175.57821428571427,23.157500000000006L176.36910714285713,19.47L177.16,20.650000000000006L177.95089285714286,20.05999999999999L178.7417857142857,22.567499999999992L179.53267857142856,21.387500000000003L180.32357142857143,20.207499999999996L181.11446428571426,19.47L181.90535714285716,19.47L182.69625000000002,20.650000000000006L183.48714285714286,29.35250000000001L184.27803571428572,23.01L185.0689285714286,21.829999999999995L185.85982142857142,19.765000000000004L186.6507142857143,23.7475L187.44160714285715,18.437499999999993L188.23250000000002,26.107499999999995L189.02339285714285,28.61499999999999L189.81428571428572,19.17499999999999L190.60517857142858,21.387500000000003L191.39607142857142,20.79750000000001L192.18696428571428,25.07500000000001L192.97785714285715,19.47L193.76874999999998,22.567499999999992L194.55964285714285,20.5025L195.3505357142857,19.322499999999994L196.14142857142855,19.765000000000004L196.9323214285714,19.91250000000001L197.72321428571428,19.6175L198.51410714285717,21.387500000000003L199.305,19.17499999999999L200.09589285714287,19.6175L200.88678571428574,26.69750000000001L201.67767857142857,20.354999999999997L202.46857142857144,20.650000000000006L203.2594642857143,19.027500000000007L204.05035714285714,27.2875L204.84125,18.584999999999997L205.63214285714287,18.7325L206.4230357142857,26.4025L207.21392857142857,21.24L208.00482142857143,18.437499999999993L208.7957142857143,21.535000000000007L209.58660714285713,17.8475L210.3775,18.142500000000005L211.16839285714286,20.05999999999999L211.9592857142857,20.207499999999996L212.75017857142856,16.814999999999994L213.54107142857143,20.05999999999999L214.33196428571426,20.05999999999999L215.12285714285713,19.322499999999994L215.91375,20.944999999999993L216.70464285714283,17.995000000000005L217.49553571428572,18.584999999999997L218.2864285714286,20.79750000000001L219.07732142857145,19.91250000000001L219.8682142857143,19.765000000000004L220.65910714285715,20.5025L221.45000000000002,20.944999999999993L222.24089285714285,17.55249999999999L223.03178571428572,21.682500000000008L223.82267857142858,17.257500000000004L224.61357142857142,17.257500000000004L225.40446428571428,21.24L226.19535714285715,19.027500000000007L226.98624999999998,21.387500000000003L227.77714285714285,19.91250000000001L228.5680357142857,19.027500000000007L229.35892857142858,21.24L230.1498214285714,24.484999999999996L230.94071428571428,24.484999999999996L231.73160714285714,20.650000000000006L232.52249999999998,23.305000000000007L233.31339285714284,21.092499999999994L234.10428571428574,19.91250000000001L234.89517857142857,22.862499999999997L235.68607142857144,26.107499999999995L236.4769642857143,21.24L237.26785714285714,17.55249999999999L238.05875,21.829999999999995L238.84964285714287,19.91250000000001L239.64053571428573,20.05999999999999L240.43142857142857,29.795L241.22232142857143,20.05999999999999L242.0132142857143,24.927500000000006L242.80410714285713,22.420000000000005L243.595,20.650000000000006L244.38589285714286,24.927500000000006L245.1767857142857,25.665000000000003L245.96767857142856,20.944999999999993L246.75857142857143,19.47L247.54946428571427,18.142500000000005L248.34035714285713,20.650000000000006L249.13125,29.057500000000005L249.92214285714283,22.272500000000004L250.7130357142857,21.829999999999995L251.5039285714286,25.222499999999993L252.29482142857145,18.584999999999997L253.0857142857143,20.207499999999996L253.87660714285715,36.87500000000001L254.66750000000002,20.354999999999997L255.45839285714285,23.157500000000006L256.2492857142857,18.29000000000001L257.04017857142856,18.880000000000003L257.8310714285714,22.272500000000004L258.6219642857143,21.977499999999996L259.41285714285715,17.40500000000001L260.20375,20.354999999999997L260.9946428571429,21.24L261.78553571428574,19.6175L262.5764285714286,22.862499999999997L263.3673214285714,20.354999999999997L264.1582142857143,18.29000000000001L264.94910714285714,25.5175" style="fill: none;" fill="none"></path></g></g></g></g></g></g><g transform="translate(53, 177)" clip-path="url(#clip_1)"><clipPath id="clip_1"><rect width="276" height="23"></rect></clipPath><g><g><line x1="0" y1="0" x2="0" y2="5" style="visibility: inherit;" fill="rgb(0, 0, 0)" stroke="rgb(204, 204, 204)" stroke-width="1px"></line><line x1="39.544642857142854" y1="0" x2="39.544642857142854" y2="5" style="visibility: inherit;" fill="rgb(0, 0, 0)" stroke="rgb(204, 204, 204)" stroke-width="1px"></line><line x1="79.08928571428571" y1="0" x2="79.08928571428571" y2="5" style="visibility: inherit;" fill="rgb(0, 0, 0)" stroke="rgb(204, 204, 204)" stroke-width="1px"></line><line x1="118.63392857142857" y1="0" x2="118.63392857142857" y2="5" style="visibility: inherit;" fill="rgb(0, 0, 0)" stroke="rgb(204, 204, 204)" stroke-width="1px"></line><line x1="158.17857142857142" y1="0" x2="158.17857142857142" y2="5" style="visibility: inherit;" fill="rgb(0, 0, 0)" stroke="rgb(204, 204, 204)" stroke-width="1px"></line><line x1="197.72321428571428" y1="0" x2="197.72321428571428" y2="5" style="visibility: inherit;" fill="rgb(0, 0, 0)" stroke="rgb(204, 204, 204)" stroke-width="1px"></line><line x1="237.26785714285714" y1="0" x2="237.26785714285714" y2="5" style="visibility: inherit;" fill="rgb(0, 0, 0)" stroke="rgb(204, 204, 204)" stroke-width="1px"></line><line x1="276.8125" y1="0" x2="276.8125" y2="5" style="visibility: inherit;" fill="rgb(0, 0, 0)" stroke="rgb(204, 204, 204)" stroke-width="1px"></line></g><g transform="translate(0, 8)"><text x="0" y="0" dx="0em" dy="0.95em" style="text-anchor: middle; visibility: hidden; font-family: Roboto, sans-serif; font-size: 12px; font-weight: 200;" fill="rgb(50, 49, 63)" stroke="none" stroke-width="1px">-50k</text><text x="39.544642857142854" y="0" dx="0em" dy="0.95em" style="text-anchor: middle; visibility: inherit; font-family: Roboto, sans-serif; font-size: 12px; font-weight: 200;" fill="rgb(50, 49, 63)" stroke="none" stroke-width="1px">0</text><text x="79.08928571428571" y="0" dx="0em" dy="0.95em" style="text-anchor: middle; visibility: inherit; font-family: Roboto, sans-serif; font-size: 12px; font-weight: 200;" fill="rgb(50, 49, 63)" stroke="none" stroke-width="1px">50k</text><text x="118.63392857142857" y="0" dx="0em" dy="0.95em" style="text-anchor: middle; visibility: inherit; font-family: Roboto, sans-serif; font-size: 12px; font-weight: 200;" fill="rgb(50, 49, 63)" stroke="none" stroke-width="1px">100k</text><text x="158.17857142857142" y="0" dx="0em" dy="0.95em" style="text-anchor: middle; visibility: inherit; font-family: Roboto, sans-serif; font-size: 12px; font-weight: 200;" fill="rgb(50, 49, 63)" stroke="none" stroke-width="1px">150k</text><text x="197.72321428571428" y="0" dx="0em" dy="0.95em" style="text-anchor: middle; visibility: inherit; font-family: Roboto, sans-serif; font-size: 12px; font-weight: 200;" fill="rgb(50, 49, 63)" stroke="none" stroke-width="1px">200k</text><text x="237.26785714285714" y="0" dx="0em" dy="0.95em" style="text-anchor: middle; visibility: inherit; font-family: Roboto, sans-serif; font-size: 12px; font-weight: 200;" fill="rgb(50, 49, 63)" stroke="none" stroke-width="1px">250k</text><text x="276.8125" y="0" dx="0em" dy="0.95em" style="text-anchor: middle; visibility: hidden; font-family: Roboto, sans-serif; font-size: 12px; font-weight: 200;" fill="rgb(50, 49, 63)" stroke="none" stroke-width="1px">300k</text></g><line x1="0" y1="0" x2="276.8125" y2="0" fill="rgb(0, 0, 0)" stroke="rgb(204, 204, 204)" stroke-width="1px"></line></g></g></g></g></svg>